<svg width="35" height="32" viewBox="0 0 35 32" fill="none" xmlns="http://www.w3.org/2000/svg">
<path d="M34.5469 16.098C34.5469 7.20605 26.9523 -0.00195312 17.5851 -0.00195312C8.21376 4.68751e-05 0.619141 7.20605 0.619141 16.1C0.619141 24.134 6.8229 30.794 14.9306 32.002V20.752H10.6266V16.1H14.9349V12.55C14.9349 8.51605 17.4685 6.28805 21.3422 6.28805C23.1995 6.28805 25.1395 6.60205 25.1395 6.60205V10.562H23.0002C20.8948 10.562 20.2375 11.804 20.2375 13.078V16.098H24.9402L24.1896 20.75H20.2354V32C28.3431 30.792 34.5469 24.132 34.5469 16.098Z" fill="#4267B2"/>
</svg>
