<svg width="157" height="152" viewBox="0 0 157 152" fill="none" xmlns="http://www.w3.org/2000/svg">
<path d="M157 102.272H96.7705V67.8948H157V102.272ZM97.138 101.909H156.633V68.2572H97.138V101.909Z" fill="#E0E0E0"/>
<path d="M144.575 86.2249H104.837V87.3741H144.575V86.2249Z" fill="#F0F0F0"/>
<path d="M147.313 90.509H104.837V91.7634H147.313V90.509Z" fill="#F0F0F0"/>
<path d="M147.313 94.8442H104.837V96.0986H147.313V94.8442Z" fill="#F0F0F0"/>
<path d="M118.725 80.0012H104.837V82.9849H118.725V80.0012Z" fill="#F0F0F0"/>
<path d="M156.816 68.0759H96.9648V73.5492H156.816V68.0759Z" fill="#E0E0E0"/>
<path d="M152.211 72.7306C152.134 72.6581 152.905 71.7409 153.931 70.6823C154.956 69.6237 155.857 68.8225 155.93 68.8913C156.004 68.9602 155.235 69.8811 154.21 70.9433C153.185 72.0055 152.284 72.8031 152.211 72.7306Z" fill="white"/>
<path d="M155.938 72.7305C155.864 72.8031 154.968 72.0055 153.939 70.9432C152.91 69.881 152.142 68.9638 152.219 68.8913C152.296 68.8188 153.189 69.6164 154.218 70.6822C155.247 71.7481 156.008 72.658 155.938 72.7305Z" fill="white"/>
<path d="M82.8858 0H23.0347V34.018H82.8858V0Z" fill="#E6E6E6"/>
<path d="M70.6484 18.1526H30.9106V19.3018H70.6484V18.1526Z" fill="#F0F0F0"/>
<path d="M73.3863 22.437H30.9106V23.6914H73.3863V22.437Z" fill="#F0F0F0"/>
<path d="M73.3863 26.7722H30.9106V28.0266H73.3863V26.7722Z" fill="#F0F0F0"/>
<path d="M44.7985 11.929H30.9106V14.9126H44.7985V11.929Z" fill="#F0F0F0"/>
<path d="M82.8858 0H23.0347V5.47331H82.8858V0Z" fill="#E0E0E0"/>
<path d="M78.079 4.62972C78.0019 4.56084 78.7736 3.64 79.799 2.5814C80.8243 1.5228 81.7247 0.721602 81.7982 0.794109C81.8717 0.866616 81.1036 1.78383 80.0782 2.84243C79.0529 3.90102 78.1525 4.69497 78.079 4.62972Z" fill="white"/>
<path d="M81.7982 4.62951C81.7247 4.70201 80.828 3.90444 79.799 2.84221C78.77 1.77998 78.0019 0.86639 78.0791 0.793883C78.1562 0.721376 79.0493 1.51895 80.0783 2.58118C81.1073 3.64341 81.8754 4.56062 81.7982 4.62951Z" fill="white"/>
<path d="M60.2186 63.1932H0V28.8127H60.2186V63.1932ZM0.3675 62.8307H59.8511V29.1752H0.3675V62.8307Z" fill="#E0E0E0"/>
<path d="M47.7974 47.1467H8.05957V48.296H47.7974V47.1467Z" fill="#F0F0F0"/>
<path d="M50.5353 51.4312H8.05957V52.6855H50.5353V51.4312Z" fill="#F0F0F0"/>
<path d="M50.5353 55.7664H8.05957V57.0207H50.5353V55.7664Z" fill="#F0F0F0"/>
<path d="M21.9474 40.9231H8.05957V43.9067H21.9474V40.9231Z" fill="#F0F0F0"/>
<path d="M60.0352 28.9941H0.184082V34.4675H60.0352V28.9941Z" fill="#E0E0E0"/>
<path d="M129.717 71.0698H59.0464V133.473H129.717V71.0698Z" fill="#E6E6E6"/>
<path d="M62.6 51.4131H7.23975V108.144H62.6V51.4131Z" fill="#F0F0F0"/>
<path d="M62.6 51.4131H7.23975V57.5932H62.6V51.4131Z" fill="#E0E0E0"/>
<path d="M11.8117 54.4398C11.8016 54.6639 11.725 54.8802 11.5915 55.0618C11.4579 55.2434 11.2732 55.3823 11.0603 55.4613C10.8474 55.5403 10.6157 55.5559 10.3939 55.5061C10.1722 55.4563 9.97008 55.3434 9.81277 55.1814C9.65547 55.0193 9.54986 54.8152 9.50907 54.5945C9.46827 54.3738 9.49408 54.1461 9.58329 53.9397C9.6725 53.7333 9.82117 53.5573 10.0109 53.4335C10.2006 53.3097 10.423 53.2436 10.6504 53.2434C10.9649 53.251 11.2636 53.3811 11.4812 53.6053C11.6988 53.8294 11.8176 54.1295 11.8117 54.4398Z" fill="white"/>
<path d="M16.5267 54.4398C16.5174 54.665 16.4411 54.8825 16.3073 55.0653C16.1736 55.248 15.9883 55.388 15.7746 55.4677C15.5609 55.5474 15.3281 55.5633 15.1053 55.5135C14.8824 55.4636 14.6793 55.3503 14.5213 55.1875C14.3633 55.0247 14.2573 54.8196 14.2165 54.5979C14.1757 54.3761 14.2019 54.1474 14.2919 53.9402C14.3818 53.733 14.5316 53.5564 14.7224 53.4325C14.9133 53.3087 15.1369 53.2429 15.3654 53.2434C15.6799 53.251 15.9786 53.3811 16.1962 53.6053C16.4138 53.8295 16.5326 54.1295 16.5267 54.4398Z" fill="white"/>
<path d="M21.2416 54.4398C21.2322 54.665 21.1559 54.8825 21.0222 55.0653C20.8884 55.248 20.7032 55.388 20.4894 55.4677C20.2757 55.5474 20.0429 55.5633 19.8201 55.5135C19.5973 55.4636 19.3942 55.3503 19.2362 55.1875C19.0781 55.0247 18.9721 54.8196 18.9313 54.5979C18.8905 54.3761 18.9167 54.1474 19.0067 53.9402C19.0967 53.733 19.2464 53.5564 19.4373 53.4325C19.6282 53.3087 19.8518 53.2429 20.0803 53.2434C20.3948 53.251 20.6935 53.3811 20.9111 53.6053C21.1287 53.8295 21.2475 54.1295 21.2416 54.4398Z" fill="white"/>
<path d="M149.095 12.4075H78.4243V81.8788H149.095V12.4075Z" fill="#F0F0F0"/>
<path d="M149.095 12.4075H78.4243V20.545H149.095V12.4075Z" fill="#E0E0E0"/>
<path d="M84.4444 16.3949C84.4314 16.6908 84.3307 16.9764 84.1546 17.2163C83.9785 17.4561 83.7349 17.6397 83.454 17.7442C83.1731 17.8487 82.8672 17.8695 82.5744 17.804C82.2817 17.7385 82.0148 17.5896 81.8071 17.3758C81.5993 17.162 81.4598 16.8927 81.4058 16.6014C81.3519 16.3101 81.3858 16.0095 81.5035 15.737C81.6212 15.4646 81.8174 15.2322 82.0678 15.0688C82.3182 14.9054 82.6117 14.8181 82.9119 14.8179C83.3268 14.8274 83.721 14.9987 84.0083 15.2942C84.2955 15.5898 84.4523 15.9855 84.4444 16.3949Z" fill="white"/>
<path d="M90.2033 15.3289C90.407 15.5471 90.5411 15.8197 90.5889 16.1126C90.6367 16.4056 90.5961 16.7059 90.4721 16.9762C90.3481 17.2465 90.1462 17.4749 89.8916 17.6328C89.637 17.7907 89.3409 17.8712 89.0402 17.8643C88.7395 17.8574 88.4475 17.7633 88.2006 17.5939C87.9538 17.4244 87.7629 17.187 87.6518 16.9113C87.5407 16.6356 87.5143 16.3337 87.5759 16.0433C87.6376 15.7529 87.7844 15.4868 87.9983 15.2781C88.2978 14.997 88.6981 14.8444 89.1114 14.8539C89.5247 14.8634 89.9174 15.0342 90.2033 15.3289Z" fill="white"/>
<path d="M96.8584 16.3949C96.8455 16.6908 96.7447 16.9764 96.5686 17.2163C96.3926 17.4561 96.149 17.6397 95.868 17.7442C95.5871 17.8487 95.2813 17.8695 94.9885 17.804C94.6957 17.7385 94.4289 17.5896 94.2211 17.3758C94.0134 17.162 93.8739 16.8927 93.8199 16.6014C93.7659 16.3101 93.7999 16.0095 93.9176 15.737C94.0353 15.4646 94.2315 15.2322 94.4819 15.0688C94.7322 14.9054 95.0258 14.8181 95.326 14.8179C95.7409 14.8274 96.1351 14.9987 96.4223 15.2942C96.7095 15.5898 96.8663 15.9855 96.8584 16.3949Z" fill="white"/>
<path d="M133.829 151.905C133.829 151.957 108.31 152.001 76.8406 152.001C45.3716 152.001 19.8413 151.957 19.8413 151.905C19.8413 151.854 45.3569 151.81 76.8406 151.81C108.324 151.81 133.829 151.858 133.829 151.905Z" fill="#263238"/>
<path d="M121.959 9.29023L120.066 9.95718L119.254 7.51774C117.762 3.01947 113.007 0.630776 108.637 2.14953C104.267 3.66829 101.941 8.60153 103.433 13.0998L104.245 15.5392L102.345 16.2098C101.621 16.487 101.033 17.0289 100.703 17.7228C100.373 18.4168 100.327 19.2094 100.574 19.936L105.84 35.8087C105.95 36.1684 106.131 36.5027 106.374 36.7918C106.617 37.081 106.916 37.319 107.254 37.4918C107.592 37.6646 107.962 37.7686 108.342 37.7976C108.721 37.8267 109.103 37.7802 109.464 37.6609L129.077 30.7413C129.811 30.4646 130.408 29.9179 130.742 29.2162C131.076 28.5145 131.121 27.7125 130.867 26.9789L125.597 11.1062C125.485 10.7475 125.301 10.4148 125.055 10.1279C124.81 9.84099 124.509 9.60577 124.169 9.43629C123.829 9.2668 123.459 9.16652 123.079 9.14143C122.699 9.11633 122.318 9.16694 121.959 9.29023ZM107.009 11.8275C106.607 10.6579 106.679 9.38011 107.211 8.26184C107.742 7.14357 108.692 6.27161 109.861 5.82862C110.438 5.63384 111.049 5.55573 111.658 5.59896C112.266 5.64218 112.859 5.80585 113.402 6.0802C113.945 6.35456 114.427 6.73397 114.818 7.1958C115.209 7.65764 115.501 8.19243 115.678 8.76827L116.487 11.2077L107.818 14.267L107.009 11.8275ZM118.034 25.9132L119.379 29.9656C119.404 30.0469 119.396 30.1344 119.357 30.21C119.318 30.2856 119.251 30.3435 119.17 30.3716L117.284 31.0349C117.209 31.0554 117.129 31.0465 117.061 31.01C116.992 30.9735 116.941 30.9123 116.917 30.8392L115.561 26.8049C114.813 26.7647 114.096 26.5002 113.504 26.0467C112.913 25.5932 112.477 24.9725 112.253 24.2676C111.934 23.3356 111.992 22.3179 112.416 21.4274C112.84 20.5369 113.597 19.8427 114.528 19.4902C114.988 19.3352 115.475 19.2732 115.959 19.3077C116.444 19.3422 116.916 19.4726 117.349 19.6911C117.781 19.9096 118.165 20.2118 118.476 20.5795C118.788 20.9473 119.021 21.3732 119.162 21.8318C119.399 22.5478 119.418 23.3164 119.219 24.0433C119.019 24.7701 118.608 25.4238 118.038 25.9241L118.034 25.9132Z" fill="#55AB60"/>
<path d="M119.981 9.91389C119.981 9.96463 116.472 11.2659 112.106 12.8137C107.74 14.3614 104.179 15.6047 104.16 15.5684C104.142 15.5322 107.67 14.2201 112.039 12.6687C116.409 11.1173 119.963 9.86677 119.981 9.91389Z" fill="#263238"/>
<path d="M124.149 10.5808C124.165 10.6123 124.179 10.645 124.189 10.6787C124.219 10.7512 124.252 10.8454 124.296 10.9614C124.392 11.226 124.524 11.5921 124.689 12.0488L126.1 16.1013C126.688 17.8194 127.39 19.8565 128.169 22.1183C128.537 23.2528 128.971 24.4345 129.375 25.6778C129.591 26.3184 129.685 26.9933 129.65 27.6677C129.619 28.0185 129.518 28.3597 129.353 28.6718C129.176 28.9828 128.94 29.2573 128.658 29.4801C128.09 29.8889 127.46 30.2058 126.791 30.4189L124.899 31.0895L121.316 32.3545L115.248 34.4858L111.151 35.9067L110.048 36.2692L109.754 36.3634C109.723 36.3772 109.689 36.3858 109.655 36.3888C109.655 36.3888 109.684 36.3888 109.747 36.3453L110.033 36.2329L111.136 35.8233L115.211 34.3445L121.268 32.1696L124.844 30.8937L126.736 30.2195C127.386 30.0151 127.998 29.7078 128.548 29.3097C128.81 29.103 129.03 28.8482 129.195 28.5594C129.35 28.2708 129.444 27.9537 129.47 27.6279C129.504 26.978 129.414 26.3277 129.206 25.7104C128.809 24.478 128.39 23.2854 128.011 22.1509C127.247 19.8855 126.541 17.8411 125.983 16.123C125.424 14.4049 124.954 13.0239 124.63 12.0524C124.476 11.5776 124.358 11.2079 124.263 10.9397L124.175 10.6497C124.164 10.6277 124.155 10.6046 124.149 10.5808Z" fill="#263238"/>
<path d="M113.8 5.58209C113.8 5.58209 113.605 5.48785 113.245 5.34286C112.732 5.14831 112.189 5.04048 111.639 5.02388C110.824 4.99633 110.014 5.14736 109.265 5.4661C108.355 5.863 107.577 6.50497 107.02 7.31833C106.459 8.12937 106.158 9.08782 106.156 10.0695C106.164 10.8741 106.288 11.6735 106.524 12.4437C106.715 13.1034 106.913 13.629 107.045 13.9951C107.124 14.181 107.187 14.3724 107.237 14.5678C107.132 14.3939 107.045 14.2106 106.976 14.0204C106.825 13.658 106.608 13.1433 106.395 12.4799C106.133 11.7017 105.991 10.8892 105.972 10.0695C105.963 9.05074 106.27 8.05363 106.854 7.21321C107.431 6.37014 108.241 5.70832 109.188 5.30661C109.96 4.98613 110.796 4.84475 111.632 4.89339C112.194 4.92162 112.745 5.0506 113.26 5.27399C113.398 5.33661 113.53 5.40931 113.657 5.49147C113.709 5.51412 113.757 5.5447 113.8 5.58209Z" fill="#263238"/>
<path d="M113.969 19.7658C114.028 19.7308 114.09 19.7005 114.153 19.6752C114.337 19.5933 114.528 19.5266 114.723 19.4758C115.033 19.3857 115.352 19.3321 115.675 19.3164C116.113 19.2931 116.552 19.3585 116.965 19.5085C117.905 19.8347 118.769 20.7807 119.195 22.0458C119.4 22.7246 119.4 23.4475 119.195 24.1264C118.969 24.8632 118.562 25.534 118.012 26.0801L118.034 25.9822C118.523 27.3052 119.056 28.7406 119.607 30.2376L119.64 30.3282L119.548 30.3609L118.707 30.6364L116.869 31.2417L116.777 31.2707L116.748 31.1801C116.244 29.6794 115.693 28.2803 115.278 26.9065L115.359 26.9681C114.64 26.9093 113.955 26.6433 113.389 26.2033C112.876 25.8141 112.456 25.3193 112.158 24.7534C111.888 24.2516 111.754 23.69 111.768 23.1223C111.785 22.5422 111.932 21.9729 112.198 21.4553C112.464 20.9377 112.843 20.4845 113.308 20.1283C113.499 19.9752 113.714 19.8528 113.944 19.7658C113.736 19.8873 113.535 20.0192 113.341 20.1609C112.831 20.5868 112.44 21.1347 112.205 21.7522C112.004 22.2178 111.91 22.7216 111.93 23.2273C111.95 23.7331 112.083 24.2282 112.319 24.6773C112.613 25.2217 113.023 25.6966 113.521 26.0692C114.061 26.4874 114.714 26.7395 115.399 26.7941H115.461L115.48 26.8485C115.884 28.1969 116.439 29.6069 116.95 31.1148L116.829 31.0568L118.666 30.4515L119.504 30.1724L119.445 30.2956C118.898 28.7986 118.368 27.3596 117.883 26.0366V25.9822L117.927 25.9387C118.462 25.4153 118.86 24.7724 119.089 24.0647C119.284 23.4153 119.284 22.7242 119.089 22.0748C118.688 20.8569 117.861 19.9326 116.965 19.6063C116.568 19.4554 116.144 19.3851 115.719 19.3997C115.401 19.4069 115.086 19.4495 114.778 19.5266C114.23 19.6607 113.973 19.7839 113.969 19.7658Z" fill="#263238"/>
<path d="M102.61 124.426L65.9003 124.259C63.7803 124.248 61.7517 123.407 60.2599 121.921C58.7681 120.435 57.9351 118.427 57.9439 116.336L58.3335 25.569C58.3378 24.5331 58.5491 23.5082 58.9552 22.5528C59.3614 21.5975 59.9545 20.7305 60.7006 20.0013C61.4466 19.2722 62.3311 18.6952 63.3034 18.3034C64.2757 17.9116 65.3167 17.7126 66.367 17.7179L103.073 17.8846C105.193 17.8952 107.222 18.7352 108.714 20.2202C110.207 21.7051 111.041 23.7137 111.033 25.8046L110.643 116.568C110.639 117.604 110.428 118.629 110.022 119.585C109.616 120.541 109.023 121.408 108.277 122.138C107.531 122.868 106.646 123.445 105.674 123.838C104.702 124.23 103.661 124.43 102.61 124.426Z" fill="#455A64"/>
<path d="M103.018 21.0054H95.903C95.6709 21.0097 95.4418 21.059 95.229 21.1505C95.0162 21.2421 94.8237 21.3741 94.6627 21.5391C94.5016 21.704 94.375 21.8986 94.2902 22.1118C94.2054 22.325 94.164 22.5526 94.1684 22.7815V24.0538C94.1728 24.2826 94.1313 24.51 94.0465 24.723C93.9616 24.936 93.835 25.1303 93.6739 25.295C93.5128 25.4596 93.3203 25.5913 93.1075 25.6825C92.8947 25.7736 92.6658 25.8225 92.4338 25.8263L78.5643 25.7647C78.0951 25.7523 77.6501 25.5568 77.3269 25.2211C77.0038 24.8854 76.8289 24.4369 76.8407 23.9741V22.7018C76.8526 22.2396 76.6783 21.7916 76.3559 21.456C76.0335 21.1204 75.5894 20.9245 75.1208 20.9112H72.6182L66.389 20.8822C64.9074 20.8735 63.4827 21.4442 62.4268 22.4693C61.3708 23.4945 60.7698 24.8906 60.7553 26.3519L60.3878 114.947C60.3844 115.672 60.5258 116.391 60.8039 117.062C61.0821 117.733 61.4915 118.343 62.0089 118.858C62.5262 119.373 63.1413 119.783 63.8191 120.063C64.4969 120.344 65.224 120.49 65.9591 120.493L102.591 120.66C103.327 120.663 104.056 120.524 104.737 120.249C105.418 119.974 106.037 119.57 106.559 119.06C107.082 118.549 107.497 117.942 107.782 117.273C108.066 116.604 108.215 115.887 108.218 115.161L108.585 26.5657C108.594 25.1003 108.013 23.6914 106.969 22.6488C105.925 21.6061 104.504 21.015 103.018 21.0054Z" fill="white"/>
<path d="M98.0896 108.84L70.8505 108.724C70.5675 108.724 70.3396 108.419 70.3433 108.049L70.3727 101.021C70.3727 100.659 70.6042 100.347 70.8872 100.347L98.1263 100.47C98.2831 100.497 98.4234 100.582 98.5179 100.709C98.6124 100.835 98.6538 100.992 98.6335 101.148L98.6078 108.169C98.6078 108.542 98.3726 108.843 98.0896 108.84Z" fill="#55AB60"/>
<path d="M76.5371 107.953V103.066H77.0537V107.506H79.7904V107.953H76.5371ZM81.983 107.988C81.6292 107.988 81.3104 107.908 81.0265 107.75C80.7473 107.587 80.5262 107.366 80.3633 107.087C80.2004 106.803 80.1189 106.48 80.1189 106.117C80.1189 105.749 80.2004 105.425 80.3633 105.146C80.5262 104.867 80.7473 104.648 81.0265 104.49C81.3058 104.332 81.6246 104.252 81.983 104.252C82.346 104.252 82.6671 104.332 82.9464 104.49C83.2303 104.648 83.4514 104.867 83.6096 105.146C83.7725 105.425 83.854 105.749 83.854 106.117C83.854 106.48 83.7725 106.803 83.6096 107.087C83.4514 107.366 83.2303 107.587 82.9464 107.75C82.6625 107.908 82.3413 107.988 81.983 107.988ZM81.983 107.548C82.2482 107.548 82.4833 107.49 82.6881 107.373C82.8929 107.252 83.0534 107.085 83.1698 106.871C83.2908 106.652 83.3513 106.4 83.3513 106.117C83.3513 105.828 83.2908 105.577 83.1698 105.363C83.0534 105.148 82.8929 104.983 82.6881 104.867C82.4833 104.746 82.2506 104.685 81.9899 104.685C81.7293 104.685 81.4966 104.746 81.2918 104.867C81.087 104.983 80.9241 105.148 80.8031 105.363C80.6821 105.577 80.6216 105.828 80.6216 106.117C80.6216 106.4 80.6821 106.652 80.8031 106.871C80.9241 107.085 81.087 107.252 81.2918 107.373C81.4966 107.49 81.727 107.548 81.983 107.548ZM86.4298 109.342C86.0947 109.342 85.7735 109.293 85.4663 109.195C85.1592 109.098 84.9102 108.958 84.7193 108.776L84.9707 108.399C85.1429 108.553 85.3546 108.674 85.606 108.762C85.862 108.856 86.1319 108.902 86.4158 108.902C86.8812 108.902 87.2233 108.793 87.4421 108.574C87.6608 108.36 87.7702 108.025 87.7702 107.569V106.654L87.84 106.026L87.7911 105.397V104.287H88.2659V107.506C88.2659 108.139 88.11 108.602 87.7981 108.895C87.4909 109.193 87.0348 109.342 86.4298 109.342ZM86.339 107.813C85.9899 107.813 85.6758 107.739 85.3965 107.59C85.1173 107.436 84.8962 107.224 84.7333 106.954C84.5751 106.684 84.4959 106.375 84.4959 106.026C84.4959 105.677 84.5751 105.37 84.7333 105.104C84.8962 104.834 85.1173 104.625 85.3965 104.476C85.6758 104.327 85.9899 104.252 86.339 104.252C86.6648 104.252 86.958 104.32 87.2187 104.455C87.4793 104.59 87.6864 104.79 87.84 105.055C87.9936 105.321 88.0704 105.644 88.0704 106.026C88.0704 106.407 87.9936 106.731 87.84 106.996C87.6864 107.261 87.4793 107.464 87.2187 107.604C86.958 107.743 86.6648 107.813 86.339 107.813ZM86.3879 107.373C86.6578 107.373 86.8975 107.317 87.107 107.206C87.3164 107.089 87.4816 106.931 87.6026 106.731C87.7237 106.526 87.7842 106.291 87.7842 106.026C87.7842 105.76 87.7237 105.528 87.6026 105.328C87.4816 105.128 87.3164 104.972 87.107 104.86C86.8975 104.744 86.6578 104.685 86.3879 104.685C86.1226 104.685 85.8829 104.744 85.6688 104.86C85.4594 104.972 85.2941 105.128 85.1731 105.328C85.0568 105.528 84.9986 105.76 84.9986 106.026C84.9986 106.291 85.0568 106.526 85.1731 106.731C85.2941 106.931 85.4594 107.089 85.6688 107.206C85.8829 107.317 86.1226 107.373 86.3879 107.373ZM76.4324 116.953V113.287H76.928V116.953H76.4324ZM76.6837 112.478C76.5813 112.478 76.4952 112.443 76.4254 112.373C76.3556 112.303 76.3207 112.219 76.3207 112.122C76.3207 112.024 76.3556 111.942 76.4254 111.877C76.4952 111.807 76.5813 111.772 76.6837 111.772C76.7861 111.772 76.8722 111.805 76.942 111.87C77.0118 111.935 77.0467 112.017 77.0467 112.115C77.0467 112.217 77.0118 112.303 76.942 112.373C76.8769 112.443 76.7907 112.478 76.6837 112.478ZM80.1783 113.252C80.4761 113.252 80.7368 113.311 80.9602 113.427C81.1882 113.539 81.3651 113.711 81.4908 113.944C81.6211 114.176 81.6862 114.47 81.6862 114.823V116.953H81.1906V114.872C81.1906 114.486 81.0928 114.195 80.8974 114C80.7065 113.799 80.4366 113.699 80.0875 113.699C79.8269 113.699 79.5988 113.753 79.4033 113.86C79.2125 113.962 79.0636 114.114 78.9565 114.314C78.8541 114.509 78.8029 114.747 78.8029 115.026V116.953H78.3073V113.287H78.782V114.293L78.7052 114.104C78.8215 113.839 79.0077 113.632 79.2637 113.483C79.5197 113.329 79.8245 113.252 80.1783 113.252Z" fill="#E8E8E3"/>
<path d="M76.2836 47.0491L66.8315 47.0068L66.8237 48.718L76.2757 48.7603L76.2836 47.0491Z" fill="#55AB60"/>
<path opacity="0.1" d="M76.2836 47.0491L66.8315 47.0068L66.8237 48.718L76.2757 48.7603L76.2836 47.0491Z" fill="black"/>
<path d="M103.992 57.5533C104.066 57.5459 104.139 57.5289 104.209 57.5026C104.31 57.4634 104.399 57.3966 104.464 57.3101C104.529 57.2235 104.568 57.1206 104.576 57.0132C104.576 56.4369 104.576 55.596 104.576 54.5158C104.576 53.9757 104.576 53.3704 104.576 52.7034C104.576 52.5403 104.576 52.37 104.576 52.1996C104.6 52.0343 104.564 51.866 104.473 51.7248C104.423 51.6571 104.357 51.6018 104.281 51.5635C104.205 51.5251 104.121 51.5046 104.036 51.5037H103.463H98.1522L67.4145 51.3913C67.3358 51.39 67.258 51.4074 67.1876 51.4421C67.1172 51.4768 67.0564 51.5278 67.0102 51.5906C66.9215 51.7324 66.8875 51.901 66.9147 52.0655C66.9147 52.428 66.9147 52.7904 66.9147 53.1529C66.9147 53.8778 66.9147 54.6028 66.9147 55.3277C66.9147 55.6902 66.9147 56.0527 66.9147 56.4152C66.8994 56.584 66.8994 56.7538 66.9147 56.9226C66.934 56.995 66.9699 57.062 67.0196 57.1186C67.0692 57.1751 67.1314 57.2197 67.2013 57.2488C67.2737 57.2773 67.3513 57.2908 67.4292 57.2887H69.2997L77.4619 57.3322L91.2799 57.4156L100.596 57.4881L103.128 57.5171H103.786C103.937 57.5171 104.01 57.5171 104.01 57.5171H103.786H103.128H100.596H91.2799L77.4619 57.4736L69.2997 57.441H67.4292C67.3262 57.4451 67.2236 57.4278 67.1278 57.3902C67.0311 57.3495 66.945 57.2875 66.8762 57.209C66.8074 57.1304 66.7577 57.0375 66.7309 56.9371C66.7096 56.842 66.7022 56.7443 66.7089 56.6471V56.3789C66.7089 56.0164 66.7089 55.654 66.7089 55.2915C66.7089 54.5665 66.7089 53.8416 66.7089 53.1167C66.7089 52.7542 66.7089 52.3917 66.7089 52.0292C66.7019 51.9327 66.7019 51.8358 66.7089 51.7393C66.7226 51.6326 66.7645 51.5314 66.8301 51.4457C66.8935 51.3582 66.9775 51.2871 67.0747 51.2385C67.172 51.1899 67.2797 51.1652 67.3887 51.1666L98.1265 51.3333L103.437 51.3695H104.01C104.111 51.3696 104.211 51.3937 104.3 51.4398C104.39 51.4858 104.467 51.5525 104.525 51.6341C104.628 51.7917 104.67 51.9812 104.642 52.167C104.642 52.3373 104.642 52.5077 104.642 52.6708C104.642 53.3305 104.642 53.9358 104.642 54.4832C104.642 55.5706 104.617 56.4043 104.609 56.9842C104.6 57.0957 104.559 57.2024 104.491 57.2917C104.422 57.3809 104.33 57.4491 104.223 57.4881C104.154 57.5306 104.074 57.5532 103.992 57.5533Z" fill="#E0E0E0"/>
<path d="M86.9581 53.2109H69.6709V54.8097H86.9581V53.2109Z" fill="#55AB60"/>
<path opacity="0.2" d="M86.9581 53.2109H69.6709V54.8097H86.9581V53.2109Z" fill="white"/>
<path d="M76.2191 62.6566L66.7671 62.6143L66.7592 64.3254L76.2112 64.3677L76.2191 62.6566Z" fill="#55AB60"/>
<path opacity="0.1" d="M76.2191 62.6566L66.7671 62.6143L66.7592 64.3254L76.2112 64.3677L76.2191 62.6566Z" fill="black"/>
<path d="M103.752 73.1613C103.827 73.1523 103.9 73.139 103.973 73.1215C104.076 73.0892 104.17 73.0357 104.25 72.9644C104.33 72.8931 104.393 72.8058 104.436 72.7082C104.494 72.5619 104.517 72.4043 104.502 72.2479C104.502 72.0739 104.502 71.8854 104.502 71.6752C104.502 71.2547 104.502 70.7763 104.502 70.2253V67.9236C104.52 67.757 104.482 67.5892 104.396 67.4452C104.305 67.2974 104.162 67.1878 103.995 67.1371C103.812 67.1048 103.626 67.0951 103.44 67.1081H98.1518L67.5207 66.9957C67.3559 66.9961 67.1969 67.0555 67.0732 67.1628C66.9495 67.2701 66.8695 67.4181 66.8481 67.5793C66.8481 67.9236 66.8481 68.3042 66.8481 68.6667C66.8481 69.3916 66.8481 70.1166 66.8481 70.8415C66.8481 71.204 66.8481 71.5665 66.8481 71.9289C66.8344 72.0983 66.8419 72.2688 66.8702 72.4364C66.9161 72.5834 67.0105 72.711 67.1385 72.7989C67.2742 72.8838 67.4337 72.9244 67.5942 72.9149H68.105H69.1671L77.2998 72.9547L91.0701 73.0381L100.353 73.1106L102.878 73.1396H103.536H103.756H103.536H102.878H100.353H91.0701L77.2925 73.1251L69.1597 73.0961H67.5611C67.3623 73.1077 67.1651 73.0556 66.9988 72.9475C66.8316 72.8332 66.7096 72.6655 66.6534 72.4726C66.6204 72.2885 66.6106 72.101 66.624 71.9144C66.624 71.552 66.624 71.1895 66.624 70.827C66.624 70.1021 66.624 69.3771 66.624 68.6522C66.624 68.2897 66.624 67.9272 66.624 67.5648C66.6508 67.3575 66.7533 67.167 66.9122 67.0289C67.0712 66.8908 67.2757 66.8145 67.4876 66.8145L98.1187 66.9812L103.407 67.0211C103.604 67.0091 103.802 67.0225 103.995 67.0609C104.186 67.1225 104.347 67.2516 104.447 67.4234C104.542 67.5831 104.583 67.7684 104.565 67.9526C104.565 68.123 104.565 68.2897 104.565 68.4565C104.565 69.1125 104.565 69.7142 104.565 70.2688C104.565 70.8234 104.565 71.291 104.565 71.7187C104.565 71.9253 104.565 72.1174 104.565 72.295C104.578 72.4571 104.552 72.62 104.487 72.7699C104.44 72.8699 104.371 72.9586 104.285 73.0299C104.2 73.1012 104.099 73.1535 103.991 73.1831C103.911 73.1896 103.83 73.1823 103.752 73.1613Z" fill="#E0E0E0"/>
<path d="M76.1483 78.942L66.6963 78.8997L66.6884 80.6108L76.1404 80.6531L76.1483 78.942Z" fill="#55AB60"/>
<path opacity="0.1" d="M76.1483 78.942L66.6963 78.8997L66.6884 80.6108L76.1404 80.6531L76.1483 78.942Z" fill="black"/>
<path d="M103.679 89.4399C103.754 89.4312 103.827 89.4179 103.9 89.4C104.002 89.368 104.096 89.3149 104.176 89.2443C104.256 89.1737 104.32 89.0872 104.363 88.9904C104.421 88.844 104.443 88.6865 104.429 88.5301C104.429 88.3525 104.429 88.1676 104.429 87.9538C104.429 87.5369 104.429 87.0548 104.429 86.5039V84.2022C104.447 84.0355 104.409 83.8678 104.323 83.7237C104.23 83.5787 104.088 83.4708 103.922 83.4192C103.739 83.3857 103.553 83.3748 103.367 83.3866H98.0787L67.4476 83.2743C67.2828 83.2746 67.1238 83.334 67.0001 83.4414C66.8764 83.5487 66.7964 83.6967 66.775 83.8578C66.775 84.2203 66.775 84.5828 66.775 84.9452C66.775 85.6702 66.775 86.3951 66.775 87.1201C66.775 87.4825 66.775 87.845 66.775 88.2075C66.7613 88.3757 66.7687 88.5449 66.7971 88.7113C66.8411 88.8592 66.9359 88.9874 67.0653 89.0738C67.2003 89.1607 67.3604 89.2014 67.5211 89.1898H69.1197L77.2525 89.2333L91.0227 89.3167L100.306 89.3892L102.83 89.4181H103.488C103.635 89.4181 103.709 89.4181 103.709 89.4181C103.709 89.4181 103.635 89.4181 103.488 89.4181H102.83H100.306H91.0227L77.2525 89.3783L69.1197 89.3457H67.5211C67.3221 89.3589 67.1243 89.3066 66.9588 89.197C66.7916 89.0828 66.6695 88.915 66.6133 88.7222C66.5804 88.538 66.5705 88.3506 66.5839 88.164C66.5839 87.8015 66.5839 87.4391 66.5839 87.0766C66.5839 86.3516 66.5839 85.6267 66.5839 84.9018C66.5839 84.5393 66.5839 84.1768 66.5839 83.7962C66.6099 83.5893 66.7116 83.3988 66.87 83.2606C67.0284 83.1224 67.2324 83.0461 67.4439 83.0459L98.075 83.2126L103.363 83.2525C103.56 83.2406 103.758 83.254 103.951 83.2924C104.142 83.3539 104.303 83.483 104.403 83.6548C104.498 83.8145 104.54 83.9998 104.521 84.1841C104.521 84.3544 104.521 84.5248 104.521 84.6879C104.521 85.344 104.521 85.9457 104.521 86.5003C104.521 87.0548 104.521 87.5224 104.521 87.9501C104.521 88.1567 104.521 88.3489 104.521 88.5265C104.535 88.6886 104.509 88.8517 104.444 89.0013C104.396 89.1013 104.327 89.19 104.241 89.2613C104.156 89.3326 104.056 89.3849 103.948 89.4145C103.862 89.4436 103.77 89.4523 103.679 89.4399Z" fill="#E0E0E0"/>
<path d="M86.5888 69.271L69.3018 69.1936L69.2944 70.7924L86.5814 70.8697L86.5888 69.271Z" fill="#55AB60"/>
<path opacity="0.2" d="M86.5888 69.271L69.3018 69.1936L69.2944 70.7924L86.5814 70.8697L86.5888 69.271Z" fill="white"/>
<path d="M70.8656 86.4824C70.8547 86.6282 70.8007 86.7677 70.7103 86.8835C70.6198 86.9993 70.4969 87.0864 70.3567 87.134C70.2165 87.1815 70.0653 87.1874 69.9218 87.151C69.7782 87.1145 69.6487 87.0373 69.5492 86.9289C69.4498 86.8204 69.3848 86.6856 69.3623 86.5411C69.3398 86.3965 69.3608 86.2487 69.4227 86.1158C69.4846 85.983 69.5847 85.871 69.7105 85.7937C69.8364 85.7164 69.9824 85.6773 70.1306 85.6812C70.3353 85.6924 70.5273 85.7829 70.6649 85.9328C70.8025 86.0828 70.8746 86.2803 70.8656 86.4824Z" fill="#55AB60"/>
<path d="M73.2061 86.4932C73.2133 86.5954 73.1992 86.6979 73.1645 86.7945C73.1298 86.8911 73.0754 86.9796 73.0045 87.0545C72.9337 87.1295 72.848 87.1892 72.7527 87.2301C72.6575 87.2709 72.5548 87.292 72.4509 87.292C72.347 87.292 72.2443 87.2709 72.149 87.2301C72.0538 87.1892 71.9681 87.1295 71.8973 87.0545C71.8264 86.9796 71.772 86.8911 71.7373 86.7945C71.7026 86.6979 71.6885 86.5954 71.6957 86.4932C71.6885 86.391 71.7026 86.2884 71.7373 86.1918C71.772 86.0952 71.8264 86.0067 71.8973 85.9318C71.9681 85.8569 72.0538 85.7971 72.149 85.7563C72.2443 85.7154 72.347 85.6943 72.4509 85.6943C72.5548 85.6943 72.6575 85.7154 72.7527 85.7563C72.848 85.7971 72.9337 85.8569 73.0045 85.9318C73.0754 86.0067 73.1298 86.0952 73.1645 86.1918C73.1992 86.2884 73.2133 86.391 73.2061 86.4932Z" fill="#55AB60"/>
<path d="M75.5506 86.5041C75.5398 86.6499 75.4858 86.7894 75.3953 86.9053C75.3049 87.0211 75.1819 87.1082 75.0418 87.1557C74.9016 87.2033 74.7504 87.2092 74.6068 87.1727C74.4633 87.1362 74.3338 87.059 74.2343 86.9506C74.1348 86.8422 74.0698 86.7073 74.0473 86.5628C74.0248 86.4183 74.0459 86.2704 74.1078 86.1376C74.1697 86.0047 74.2697 85.8927 74.3956 85.8154C74.5214 85.7382 74.6675 85.699 74.8156 85.7029C75.02 85.7151 75.2115 85.8058 75.3489 85.9556C75.4863 86.1053 75.5587 86.3023 75.5506 86.5041Z" fill="#55AB60"/>
<path d="M77.892 86.5151C77.8811 86.6609 77.8271 86.8004 77.7366 86.9162C77.6462 87.0321 77.5233 87.1192 77.3831 87.1667C77.2429 87.2142 77.0917 87.2201 76.9481 87.1837C76.8046 87.1472 76.6751 87.07 76.5756 86.9616C76.4762 86.8532 76.4111 86.7183 76.3887 86.5738C76.3662 86.4293 76.3872 86.2814 76.4491 86.1485C76.511 86.0157 76.611 85.9037 76.7369 85.8264C76.8627 85.7491 77.0088 85.71 77.157 85.7139C77.3614 85.7261 77.5528 85.8168 77.6902 85.9665C77.8276 86.1163 77.9 86.3133 77.892 86.5151Z" fill="#55AB60"/>
<path d="M80.2325 86.5222C80.2224 86.6683 80.169 86.8081 80.0789 86.9245C79.9889 87.0408 79.8661 87.1285 79.726 87.1766C79.5858 87.2246 79.4344 87.231 79.2906 87.1949C79.1468 87.1589 79.0169 87.0819 78.9171 86.9736C78.8173 86.8652 78.7519 86.7304 78.7292 86.5857C78.7064 86.4411 78.7273 86.293 78.7891 86.1599C78.8509 86.0269 78.9511 85.9147 79.077 85.8373C79.203 85.7599 79.3492 85.7207 79.4975 85.7246C79.7013 85.7368 79.8922 85.827 80.0295 85.976C80.1668 86.125 80.2396 86.321 80.2325 86.5222Z" fill="#55AB60"/>
<path d="M82.5773 86.5332C82.5673 86.6785 82.5144 86.8177 82.4252 86.9337C82.336 87.0497 82.2143 87.1375 82.0752 87.1862C81.9361 87.2349 81.7856 87.2425 81.6422 87.2079C81.4988 87.1733 81.3688 87.0981 81.2681 86.9915C81.1675 86.885 81.1006 86.7518 81.0758 86.6082C81.0509 86.4647 81.0691 86.3171 81.1282 86.1836C81.1872 86.0502 81.2846 85.9366 81.4082 85.857C81.5318 85.7774 81.6763 85.7352 81.8239 85.7356C82.0309 85.7432 82.2264 85.8314 82.3676 85.9808C82.5088 86.1303 82.5842 86.329 82.5773 86.5332Z" fill="#55AB60"/>
<path d="M84.9185 86.5442C84.9258 86.6464 84.9116 86.749 84.8769 86.8455C84.8422 86.9421 84.7878 87.0306 84.717 87.1056C84.6461 87.1805 84.5604 87.2402 84.4652 87.2811C84.3699 87.3219 84.2672 87.343 84.1633 87.343C84.0594 87.343 83.9567 87.3219 83.8614 87.2811C83.7662 87.2402 83.6805 87.1805 83.6097 87.1056C83.5388 87.0306 83.4844 86.9421 83.4497 86.8455C83.415 86.749 83.4009 86.6464 83.4081 86.5442C83.4009 86.442 83.415 86.3394 83.4497 86.2428C83.4844 86.1462 83.5388 86.0577 83.6097 85.9828C83.6805 85.9079 83.7662 85.8481 83.8614 85.8073C83.9567 85.7664 84.0594 85.7454 84.1633 85.7454C84.2672 85.7454 84.3699 85.7664 84.4652 85.8073C84.5604 85.8481 84.6461 85.9079 84.717 85.9828C84.7878 86.0577 84.8422 86.1462 84.8769 86.2428C84.9116 86.3394 84.9258 86.442 84.9185 86.5442Z" fill="#55AB60"/>
<path d="M87.2594 86.5549C87.2494 86.7002 87.1965 86.8394 87.1073 86.9554C87.0181 87.0715 86.8964 87.1592 86.7573 87.2079C86.6182 87.2566 86.4677 87.2642 86.3243 87.2296C86.1809 87.195 86.0509 87.1198 85.9503 87.0133C85.8496 86.9067 85.7828 86.7735 85.7579 86.6299C85.733 86.4864 85.7512 86.3388 85.8103 86.2053C85.8694 86.0719 85.9667 85.9584 86.0903 85.8788C86.2139 85.7992 86.3584 85.757 86.506 85.7573C86.713 85.7649 86.9086 85.8531 87.0498 86.0026C87.191 86.1521 87.2664 86.3507 87.2594 86.5549Z" fill="#55AB60"/>
<path d="M89.6007 86.5659C89.5906 86.7119 89.5371 86.8518 89.4471 86.9682C89.357 87.0845 89.2343 87.1722 89.0941 87.2203C88.954 87.2683 88.8026 87.2747 88.6588 87.2387C88.515 87.2026 88.3851 87.1256 88.2853 87.0172C88.1854 86.9089 88.1201 86.7741 88.0973 86.6294C88.0746 86.4848 88.0954 86.3367 88.1573 86.2036C88.2191 86.0706 88.3192 85.9584 88.4452 85.881C88.5711 85.8036 88.7174 85.7644 88.8657 85.7683C89.0694 85.7805 89.2603 85.8707 89.3976 86.0197C89.5349 86.1687 89.6078 86.3647 89.6007 86.5659Z" fill="#55AB60"/>
<g opacity="0.2">
<path opacity="0.2" d="M70.8656 86.4824C70.8547 86.6282 70.8007 86.7677 70.7103 86.8835C70.6198 86.9993 70.4969 87.0864 70.3567 87.134C70.2165 87.1815 70.0653 87.1874 69.9218 87.151C69.7782 87.1145 69.6487 87.0373 69.5492 86.9289C69.4498 86.8204 69.3848 86.6856 69.3623 86.5411C69.3398 86.3965 69.3608 86.2487 69.4227 86.1158C69.4846 85.983 69.5847 85.871 69.7105 85.7937C69.8364 85.7164 69.9824 85.6773 70.1306 85.6812C70.3353 85.6924 70.5273 85.7829 70.6649 85.9328C70.8025 86.0828 70.8746 86.2803 70.8656 86.4824Z" fill="white"/>
<path opacity="0.2" d="M73.2066 86.4934C73.2138 86.5956 73.1997 86.6982 73.165 86.7948C73.1303 86.8913 73.0759 86.9798 73.005 87.0548C72.9342 87.1297 72.8485 87.1894 72.7532 87.2303C72.658 87.2711 72.5552 87.2922 72.4514 87.2922C72.3475 87.2922 72.2448 87.2711 72.1495 87.2303C72.0543 87.1894 71.9686 87.1297 71.8977 87.0548C71.8269 86.9798 71.7725 86.8913 71.7378 86.7948C71.7031 86.6982 71.6889 86.5956 71.6962 86.4934C71.6889 86.3912 71.7031 86.2886 71.7378 86.192C71.7725 86.0955 71.8269 86.007 71.8977 85.932C71.9686 85.8571 72.0543 85.7974 72.1495 85.7565C72.2448 85.7157 72.3475 85.6946 72.4514 85.6946C72.5552 85.6946 72.658 85.7157 72.7532 85.7565C72.8485 85.7974 72.9342 85.8571 73.005 85.932C73.0759 86.007 73.1303 86.0955 73.165 86.192C73.1997 86.2886 73.2138 86.3912 73.2066 86.4934Z" fill="white"/>
<path opacity="0.2" d="M75.5511 86.5043C75.5403 86.6502 75.4863 86.7896 75.3958 86.9055C75.3054 87.0213 75.1824 87.1084 75.0423 87.1559C74.9021 87.2035 74.7509 87.2094 74.6073 87.1729C74.4638 87.1364 74.3342 87.0592 74.2348 86.9508C74.1353 86.8424 74.0703 86.7076 74.0478 86.563C74.0253 86.4185 74.0463 86.2707 74.1082 86.1378C74.1701 86.0049 74.2702 85.8929 74.3961 85.8157C74.5219 85.7384 74.668 85.6993 74.8161 85.7031C75.0205 85.7153 75.212 85.806 75.3494 85.9558C75.4868 86.1056 75.5592 86.3025 75.5511 86.5043Z" fill="white"/>
<path opacity="0.2" d="M77.8919 86.5156C77.8811 86.6614 77.8271 86.8009 77.7366 86.9167C77.6462 87.0325 77.5232 87.1196 77.3831 87.1672C77.2429 87.2147 77.0917 87.2206 76.9481 87.1842C76.8046 87.1477 76.6751 87.0705 76.5756 86.9621C76.4762 86.8536 76.4111 86.7188 76.3887 86.5743C76.3662 86.4298 76.3872 86.2819 76.4491 86.149C76.511 86.0162 76.611 85.9042 76.7369 85.8269C76.8627 85.7496 77.0088 85.7105 77.1569 85.7144C77.3613 85.7265 77.5528 85.8172 77.6902 85.967C77.8276 86.1168 77.9 86.3137 77.8919 86.5156Z" fill="white"/>
<path opacity="0.2" d="M80.233 86.5229C80.2229 86.669 80.1695 86.8089 80.0794 86.9252C79.9893 87.0415 79.8666 87.1292 79.7264 87.1773C79.5863 87.2254 79.4349 87.2318 79.2911 87.1957C79.1473 87.1596 79.0174 87.0826 78.9176 86.9743C78.8178 86.866 78.7524 86.7311 78.7297 86.5864C78.7069 86.4418 78.7277 86.2937 78.7896 86.1607C78.8514 86.0276 78.9516 85.9154 79.0775 85.838C79.2035 85.7606 79.3497 85.7214 79.498 85.7254C79.7018 85.7375 79.8926 85.8277 80.0299 85.9767C80.1672 86.1257 80.2401 86.3217 80.233 86.5229Z" fill="white"/>
<path opacity="0.2" d="M82.5778 86.5339C82.5678 86.6792 82.5149 86.8184 82.4257 86.9344C82.3365 87.0505 82.2148 87.1382 82.0757 87.187C81.9366 87.2357 81.7861 87.2432 81.6427 87.2086C81.4993 87.174 81.3693 87.0988 81.2686 86.9923C81.168 86.8857 81.1011 86.7525 81.0762 86.6089C81.0514 86.4654 81.0696 86.3178 81.1287 86.1844C81.1877 86.0509 81.2851 85.9374 81.4087 85.8578C81.5323 85.7782 81.6768 85.736 81.8244 85.7363C82.0314 85.7439 82.2269 85.8321 82.3681 85.9816C82.5093 86.1311 82.5847 86.3297 82.5778 86.5339Z" fill="white"/>
<path opacity="0.2" d="M84.9185 86.5449C84.9257 86.6471 84.9116 86.7497 84.8769 86.8463C84.8422 86.9429 84.7878 87.0314 84.7169 87.1063C84.6461 87.1812 84.5604 87.241 84.4651 87.2818C84.3699 87.3227 84.2672 87.3438 84.1633 87.3438C84.0594 87.3438 83.9567 87.3227 83.8614 87.2818C83.7662 87.241 83.6805 87.1812 83.6097 87.1063C83.5388 87.0314 83.4844 86.9429 83.4497 86.8463C83.415 86.7497 83.4009 86.6471 83.4081 86.5449C83.4009 86.4427 83.415 86.3401 83.4497 86.2436C83.4844 86.147 83.5388 86.0585 83.6097 85.9835C83.6805 85.9086 83.7662 85.8489 83.8614 85.808C83.9567 85.7672 84.0594 85.7461 84.1633 85.7461C84.2672 85.7461 84.3699 85.7672 84.4651 85.808C84.5604 85.8489 84.6461 85.9086 84.7169 85.9835C84.7878 86.0585 84.8422 86.147 84.8769 86.2436C84.9116 86.3401 84.9257 86.4427 84.9185 86.5449Z" fill="white"/>
<path opacity="0.2" d="M87.2594 86.5559C87.2494 86.7012 87.1965 86.8404 87.1073 86.9564C87.0181 87.0724 86.8965 87.1602 86.7573 87.2089C86.6182 87.2576 86.4677 87.2651 86.3243 87.2306C86.1809 87.196 86.0509 87.1208 85.9503 87.0142C85.8496 86.9077 85.7828 86.7745 85.7579 86.6309C85.733 86.4874 85.7512 86.3398 85.8103 86.2063C85.8694 86.0729 85.9667 85.9593 86.0903 85.8797C86.2139 85.8001 86.3584 85.7579 86.506 85.7583C86.713 85.7659 86.9086 85.854 87.0498 86.0035C87.191 86.153 87.2664 86.3516 87.2594 86.5559Z" fill="white"/>
<path opacity="0.2" d="M89.6007 86.5666C89.5906 86.7127 89.5372 86.8526 89.4471 86.9689C89.357 87.0852 89.2343 87.1729 89.0941 87.221C88.954 87.2691 88.8026 87.2755 88.6588 87.2394C88.515 87.2033 88.3851 87.1263 88.2853 87.018C88.1854 86.9097 88.1201 86.7748 88.0973 86.6301C88.0746 86.4855 88.0954 86.3374 88.1573 86.2044C88.2191 86.0713 88.3192 85.9591 88.4452 85.8817C88.5711 85.8043 88.7174 85.7651 88.8657 85.7691C89.0695 85.7812 89.2603 85.8714 89.3976 86.0204C89.5349 86.1694 89.6078 86.3654 89.6007 86.5666Z" fill="white"/>
</g>
<path d="M86.2743 34.2394C86.5296 34.1285 86.7462 33.946 86.8972 33.7146C87.0481 33.4832 87.1267 33.2132 87.1233 32.9381C87.1328 32.7592 87.1053 32.5804 87.0424 32.4123C86.9796 32.2443 86.8827 32.0907 86.7578 31.9608C86.6328 31.8309 86.4823 31.7274 86.3155 31.6567C86.1486 31.586 85.969 31.5496 85.7874 31.5496C85.6058 31.5496 85.4262 31.586 85.2593 31.6567C85.0925 31.7274 84.942 31.8309 84.817 31.9608C84.6921 32.0907 84.5952 32.2443 84.5324 32.4123C84.4695 32.5804 84.442 32.7592 84.4515 32.9381C84.4459 33.216 84.5239 33.4892 84.6757 33.7234C84.8274 33.9576 85.0461 34.1422 85.3041 34.2539C83.2461 34.5583 83.338 36.7622 83.338 36.7622L88.2037 36.7839C88.2037 36.7839 88.3176 34.5402 86.2743 34.2394Z" fill="#55AB60"/>
<path opacity="0.1" d="M86.2743 34.2394C86.5296 34.1285 86.7462 33.946 86.8972 33.7146C87.0481 33.4832 87.1267 33.2132 87.1233 32.9381C87.1328 32.7592 87.1053 32.5804 87.0424 32.4123C86.9796 32.2443 86.8827 32.0907 86.7578 31.9608C86.6328 31.8309 86.4823 31.7274 86.3155 31.6567C86.1486 31.586 85.969 31.5496 85.7874 31.5496C85.6058 31.5496 85.4262 31.586 85.2593 31.6567C85.0925 31.7274 84.942 31.8309 84.817 31.9608C84.6921 32.0907 84.5952 32.2443 84.5324 32.4123C84.4695 32.5804 84.442 32.7592 84.4515 32.9381C84.4459 33.216 84.5239 33.4892 84.6757 33.7234C84.8274 33.9576 85.0461 34.1422 85.3041 34.2539C83.2461 34.5583 83.338 36.7622 83.338 36.7622L88.2037 36.7839C88.2037 36.7839 88.3176 34.5402 86.2743 34.2394Z" fill="black"/>
<path d="M94.181 38.2051L76.8389 38.1274L76.8295 40.1721L94.1716 40.2497L94.181 38.2051Z" fill="#55AB60"/>
<path opacity="0.2" d="M94.181 38.2051L76.8389 38.1274L76.8295 40.1721L94.1716 40.2497L94.181 38.2051Z" fill="white"/>
<path d="M30.4252 48.7996H30.2525L29.7527 48.8358C29.4822 48.8519 29.2132 48.887 28.9478 48.941C28.7759 48.9648 28.6054 48.9974 28.437 49.0388L27.8674 49.1947C26.8978 49.4881 25.9831 49.9349 25.1589 50.5177C24.07 51.2973 23.1607 52.2954 22.4908 53.4465C22.0972 54.11 21.7839 54.8168 21.5574 55.5524C21.3194 56.3519 21.1824 57.1774 21.1495 58.01C21.1276 58.4474 21.1349 58.8857 21.1715 59.3221C21.1715 59.5433 21.234 59.7644 21.2634 59.9891C21.2881 60.2156 21.3311 60.4399 21.392 60.6597C21.7225 62.1142 22.393 63.4724 23.3501 64.6259C24.3072 65.7795 25.5244 66.6965 26.9045 67.3038C27.9034 67.7289 28.9741 67.9662 30.0614 68.0033C31.1843 68.0643 32.3084 67.9053 33.3689 67.5357L33.6923 67.4161H33.7364L33.7731 67.4379L38.4073 69.7577L38.2713 69.8737C37.7752 68.3586 37.2974 66.8905 36.8344 65.4805V65.4262L36.8748 65.3863C37.999 64.2695 38.8335 62.9018 39.3077 61.3991C39.7371 60.0253 39.8624 58.5766 39.6752 57.1509C39.5086 55.8839 39.0956 54.6605 38.4587 53.548C37.9098 52.5922 37.2017 51.7345 36.364 51.0107C35.6729 50.4377 34.908 49.9575 34.0892 49.5825C33.4696 49.319 32.8243 49.1186 32.1635 48.9844L31.4285 48.8648L30.8956 48.825L30.5722 48.8032H30.4619C30.4986 48.7992 30.5355 48.7992 30.5722 48.8032H30.8993L31.4321 48.825L32.1671 48.9301C32.8362 49.0544 33.4903 49.2475 34.1186 49.5064C34.9514 49.877 35.7301 50.3561 36.4338 50.9309C37.2869 51.6515 38.01 52.5094 38.5727 53.4682C39.2276 54.5927 39.6533 55.8327 39.8258 57.1183C40.0286 58.566 39.9121 60.0398 39.4841 61.439C39.0068 62.9729 38.1594 64.3697 37.0145 65.5095L37.0365 65.4153C37.4996 66.8253 37.981 68.2933 38.4808 69.8048L38.5506 70.0259L38.3411 69.9208L33.707 67.6046H33.7878L33.4571 67.7242C32.3762 68.0994 31.2313 68.2619 30.0871 68.2027C28.9764 68.161 27.8833 67.9151 26.8641 67.4778C24.9199 66.6565 23.3024 65.2292 22.2593 63.4144C21.7793 62.5763 21.4288 61.6723 21.2193 60.7322C21.1619 60.5067 21.119 60.2779 21.0907 60.0471C21.0613 59.8187 21.0135 59.594 21.0025 59.3693C20.903 58.0795 21.0412 56.7827 21.4104 55.5416C21.6425 54.7958 21.9645 54.0803 22.3696 53.4102C23.0554 52.2487 23.9836 51.2442 25.0927 50.4633C25.9305 49.879 26.8606 49.4356 27.8453 49.1512L28.4223 49.0062C28.5921 48.9673 28.7638 48.9371 28.9368 48.9156C29.2049 48.8666 29.4764 48.8375 29.749 48.8286L30.2525 48.8105C30.3097 48.8029 30.3674 48.7992 30.4252 48.7996Z" fill="#55AB60"/>
<path d="M32.5201 57.2524H31.8402L30.3702 55.2153V53.8778C30.3702 53.8778 29.3192 53.8125 29.4441 55.5632C29.5691 57.314 29.4441 56.8681 29.4441 56.8681C29.4441 56.8681 27.2134 56.8682 27.0297 57.0675C26.8459 57.2669 26.8349 59.391 26.8092 60.5762C26.7951 60.862 26.8782 61.1441 27.0453 61.3779C27.2124 61.6117 27.454 61.7837 27.7316 61.8666C27.8094 61.8879 27.8897 61.8989 27.9705 61.8993C28.5291 61.8993 31.3698 61.4534 31.3698 61.4534H32.5422L32.5201 57.2524Z" fill="#55AB60"/>
<path d="M34.464 56.8936L34.0451 61.4752H32.8838V56.9878L34.464 56.8936Z" fill="#55AB60"/>
<path d="M48.3149 150.168V147.069L42.6811 147.029L42.6333 151.716L42.9824 151.741C44.537 151.839 50.891 151.984 51.9347 151.665C53.096 151.31 48.3149 150.168 48.3149 150.168Z" fill="#55AB60"/>
<path d="M52.0672 151.376C52.0672 151.428 49.9578 151.472 47.3595 151.472C44.7613 151.472 42.6519 151.428 42.6519 151.376C42.6519 151.325 44.7613 151.281 47.3595 151.281C49.9578 151.281 52.0672 151.325 52.0672 151.376Z" fill="#263238"/>
<path d="M48.4144 150.803C48.3666 150.777 48.4144 150.614 48.5283 150.44C48.6422 150.266 48.7966 150.194 48.8333 150.23C48.8701 150.266 48.7929 150.404 48.6827 150.552C48.5724 150.701 48.4622 150.828 48.4144 150.803Z" fill="#263238"/>
<path d="M48.7745 151.006C48.723 151.006 48.7488 150.803 48.859 150.61C48.9693 150.418 49.1163 150.302 49.1567 150.331C49.1971 150.36 49.131 150.523 49.0281 150.694C48.9252 150.864 48.8223 151.024 48.7745 151.006Z" fill="#263238"/>
<path d="M44.3497 151.361C44.3277 151.361 44.2432 151.296 44.1219 151.158C43.9738 150.981 43.8089 150.818 43.6294 150.672C43.4529 150.533 43.2426 150.442 43.0194 150.408C42.8467 150.386 42.7364 150.408 42.7254 150.386C42.7144 150.364 42.8209 150.288 43.0231 150.273C43.2898 150.268 43.55 150.355 43.7581 150.52C43.953 150.677 44.1174 150.867 44.2432 151.082C44.3277 151.241 44.3718 151.347 44.3497 151.361Z" fill="#263238"/>
<path d="M48.4329 150.219C48.4586 150.263 48.3631 150.372 48.2014 150.43C48.0397 150.488 47.8964 150.467 47.889 150.43C47.8817 150.394 47.9956 150.317 48.1352 150.266C48.2749 150.215 48.4035 150.175 48.4329 150.219Z" fill="#263238"/>
<path d="M48.3447 149.919C48.3447 149.974 48.1977 150.018 48.0066 150.022C47.8155 150.025 47.6648 149.981 47.6685 149.93C47.6722 149.879 47.8229 149.831 48.0066 149.828C48.1904 149.824 48.3374 149.868 48.3447 149.919Z" fill="#263238"/>
<path d="M62.1884 150.168V147.069L56.5546 147.029L56.5068 151.669L56.856 151.694C58.4105 151.792 64.7682 151.984 65.8083 151.665C66.9696 151.31 62.1884 150.168 62.1884 150.168Z" fill="#55AB60"/>
<path d="M65.9405 151.383C65.9405 151.435 63.8347 151.479 61.2328 151.479C58.6309 151.479 56.5288 151.435 56.5288 151.383C56.5288 151.332 58.6346 151.288 61.2328 151.288C63.831 151.288 65.9405 151.332 65.9405 151.383Z" fill="#263238"/>
<path d="M62.2873 150.803C62.2432 150.777 62.2873 150.614 62.4013 150.44C62.5152 150.266 62.6695 150.194 62.7063 150.23C62.743 150.266 62.6659 150.404 62.5556 150.552C62.4454 150.701 62.3351 150.828 62.2873 150.803Z" fill="#263238"/>
<path d="M62.6477 151.006C62.5999 151.006 62.622 150.803 62.7359 150.61C62.8499 150.418 62.9932 150.302 63.0336 150.331C63.074 150.36 63.0042 150.523 62.9013 150.694C62.7984 150.864 62.6992 151.024 62.6477 151.006Z" fill="#263238"/>
<path d="M58.2228 151.361C58.2007 151.361 58.1199 151.296 57.9949 151.158C57.8469 150.981 57.682 150.818 57.5025 150.672C57.326 150.533 57.1157 150.442 56.8924 150.408C56.7234 150.386 56.6095 150.408 56.5984 150.386C56.5874 150.364 56.694 150.288 56.8961 150.273C57.1629 150.268 57.4231 150.355 57.6311 150.52C57.827 150.676 57.9916 150.866 58.1162 151.082C58.2007 151.241 58.2448 151.347 58.2228 151.361Z" fill="#263238"/>
<path d="M62.3055 150.219C62.3312 150.263 62.2356 150.372 62.0739 150.43C61.9122 150.488 61.7689 150.467 61.7616 150.43C61.7542 150.394 61.8681 150.317 62.0078 150.266C62.1474 150.215 62.2761 150.175 62.3055 150.219Z" fill="#263238"/>
<path d="M62.2248 149.919C62.2248 149.974 62.0778 150.018 61.8867 150.022C61.6956 150.025 61.5486 149.981 61.5523 149.93C61.556 149.879 61.703 149.831 61.8867 149.828C62.0705 149.824 62.2248 149.868 62.2248 149.919Z" fill="#263238"/>
<path d="M82.9445 58.1366C82.7975 57.988 82.4337 58.0605 82.4337 58.0605C82.4702 57.8518 82.4702 57.6385 82.4337 57.4298C82.3675 57.2268 81.9045 57.2667 81.9045 57.2667C81.8831 57.0957 81.8831 56.9229 81.9045 56.752C81.9082 56.7141 81.8999 56.676 81.8809 56.6429C81.8618 56.6098 81.8328 56.5833 81.7979 56.5671C81.5788 56.479 81.3435 56.437 81.107 56.4439C80.824 56.2445 81.9706 54.6605 82.3969 54.153C82.8232 53.6456 82.7461 53.2505 82.3675 53.2505C82.1066 53.2505 80.7689 54.7729 80.3573 55.284C79.9457 55.795 78.8542 57.2159 78.8175 56.0814C78.7807 54.9469 78.3177 54.0914 78.0274 53.9464C77.737 53.8014 77.4283 54.1422 77.5864 54.4575C77.7252 54.8158 77.8118 55.1917 77.8436 55.5739C77.8835 55.8784 77.8699 56.1874 77.8032 56.4874C77.6813 57.0454 77.5155 57.5932 77.3071 58.1257H77.2777C77.2777 58.1257 69.2588 65.7123 68.6782 66.2524C68.16 66.7381 57.7377 65.676 55.6466 65.4585C54.936 65.356 54.2185 65.3075 53.5004 65.3136C52.5927 65.3534 52.431 65.4803 51.5269 65.4912C49.2438 65.5162 46.966 65.7137 44.7135 66.082C43.6935 66.253 42.7408 66.6971 41.9592 67.3657C41.1777 68.0343 40.5973 68.9017 40.2814 69.8735C38.1756 76.3617 33.4055 91.7196 32.5639 100.346C31.928 101.484 31.3539 102.654 30.844 103.852C30.2523 105.439 30.3957 105.494 30.5941 105.53C31.1307 105.628 31.7407 102.779 31.9686 103.467C32.1964 104.156 30.8109 106.864 31.3732 106.943C32.1082 107.045 32.6925 104.044 32.7624 103.804C32.8322 103.565 33.196 103.641 33.1299 103.866C33.0233 104.185 31.9906 107.567 32.7109 107.676C33.1078 107.734 33.1519 107.02 33.1519 107.02C33.1519 107.02 33.8869 103.783 34.2213 103.848C34.5558 103.913 34.1993 105.823 34.0302 106.461C33.8612 107.099 34.0964 107.422 34.4418 107.266C34.677 107.157 35.2393 105.218 35.3937 104.587C35.548 103.957 35.9339 102.21 36.4521 103.221C36.9702 104.232 37.7567 104.819 38.0801 104.834C38.153 104.826 38.2217 104.796 38.2773 104.749C38.333 104.702 38.3731 104.639 38.3925 104.569C38.4118 104.5 38.4096 104.426 38.386 104.357C38.3624 104.289 38.3186 104.229 38.2602 104.185C37.982 103.917 37.7433 103.612 37.5509 103.279C37.3795 103.019 37.2551 102.732 37.1834 102.431C37.0353 101.829 36.9491 101.215 36.9261 100.597L36.8673 100.234C37.6905 96.2143 40.0609 84.4158 43.4823 76.88L44.8862 79.7291L45.4962 81.8386L41.7551 90.9476L57.712 90.741L55.3306 81.7009L58.2228 72.2766C61.3502 72.3455 69.3801 72.4615 70.7178 71.8634C72.4009 71.1385 81.107 60.2933 81.107 60.2933C81.6745 59.8584 82.218 59.3937 82.735 58.9014C82.735 58.9014 83.2642 58.4628 82.9445 58.1366Z" fill="#FFBE9D"/>
<path d="M41.0531 84.2165C41.5161 82.6579 43.8939 74.9517 43.8939 74.9517C43.8939 74.9517 45.0625 81.2334 44.7538 81.9909C44.4698 82.6395 44.1344 83.2649 43.7505 83.8613C41.0531 87.9101 41.4059 89.9363 41.4059 89.9363L57.7045 89.447C57.7413 87.1996 56.3925 81.9728 56.1132 81.1391C55.8339 80.3054 56.7637 77.576 56.7637 77.576C56.7637 77.576 58.6012 75.731 58.5351 74.7814C58.5002 73.9283 58.3932 73.0796 58.2153 72.2441L68.1378 72.6065L67.8255 65.9733L53.5738 64.5669C53.0777 65.9479 48.5905 65.2701 48.5905 65.2701C43.7469 65.4296 43.4455 66.3068 41.4316 67.8509C39.4177 69.395 36.0845 82.647 36.0845 82.647L41.0531 84.2165Z" fill="#55AB60"/>
<path d="M50.6891 82.6472C50.4066 82.697 50.1189 82.7116 49.8328 82.6907C49.2999 82.6907 48.5686 82.6545 47.7638 82.5747C46.959 82.495 46.2313 82.3826 45.7131 82.2811C45.4274 82.2448 45.1473 82.1742 44.8789 82.0708C45.1662 82.0709 45.4529 82.0976 45.7352 82.1506C46.257 82.2158 46.981 82.3064 47.7822 82.3862C48.5833 82.466 49.3109 82.5203 49.8365 82.5566C50.1229 82.5602 50.4084 82.5905 50.6891 82.6472Z" fill="#263238"/>
<path d="M51.8061 81.2805C51.5235 81.4171 51.2248 81.5181 50.9167 81.5814C49.4505 81.9615 47.9379 82.1384 46.4222 82.1071C46.1086 82.1172 45.7949 82.0879 45.4888 82.0201C45.7983 81.9815 46.1103 81.9658 46.4222 81.973C46.9992 81.9548 47.793 81.915 48.6676 81.8134C49.5423 81.7119 50.3214 81.5669 50.8726 81.4509C51.1788 81.3703 51.4909 81.3133 51.8061 81.2805Z" fill="#263238"/>
<path d="M57.2894 75.1838C57.282 75.4602 57.2438 75.7349 57.1755 76.003C57.08 76.5069 56.933 77.1956 56.7455 77.9495C56.5581 78.7034 56.378 79.3994 56.2163 79.8706C56.1513 80.1403 56.0551 80.4018 55.9297 80.6499C55.9502 80.3744 56.0019 80.1021 56.084 79.838C56.2237 79.2725 56.3817 78.6201 56.5581 77.906C56.7345 77.1919 56.9036 76.5395 57.0432 75.974C57.0929 75.7019 57.1756 75.4366 57.2894 75.1838Z" fill="#263238"/>
<path d="M41.2262 83.2926C40.376 83.1631 39.5369 82.9704 38.7162 82.7162C37.8775 82.5227 37.0545 82.2682 36.2539 81.9548C37.1037 82.0865 37.9426 82.2791 38.7639 82.5313C39.6028 82.724 40.4259 82.9785 41.2262 83.2926Z" fill="#263238"/>
<path d="M58.3923 72.1644C58.2537 72.188 58.112 72.188 57.9734 72.1644C57.5895 72.1256 57.2126 72.0366 56.8525 71.8998C56.2513 71.677 55.704 71.3326 55.2458 70.8888C54.7876 70.4449 54.4286 69.9115 54.1918 69.3226C53.9301 68.6749 53.8184 67.9777 53.8647 67.2819C53.8811 66.708 54.0551 66.1493 54.3682 65.6653C54.5884 65.3392 54.9173 65.0994 55.298 64.9875C55.3997 64.9598 55.5048 64.9464 55.6103 64.9476C55.6838 64.9476 55.7206 64.9476 55.7206 64.9476C55.7206 64.9476 55.5662 64.9476 55.32 65.0455C54.9708 65.1727 54.6746 65.4112 54.4784 65.7233C53.9786 66.499 53.839 67.9162 54.3719 69.2393C54.6199 69.8631 55.0081 70.4233 55.5074 70.8776C55.9166 71.2494 56.3878 71.5487 56.9003 71.7621C57.3812 71.9495 57.8816 72.0845 58.3923 72.1644Z" fill="#263238"/>
<path d="M66.9584 72.476C66.8664 71.3645 66.8369 70.2488 66.8701 69.134C66.8413 68.0202 66.8757 66.9057 66.9732 65.7957C67.0653 66.906 67.0948 68.0205 67.0615 69.134C67.0924 70.249 67.058 71.3649 66.9584 72.476Z" fill="#263238"/>
<path d="M53.4785 64.973C53.5189 64.1647 53.6034 63.2513 53.6034 63.2513C53.6034 63.2513 55.632 63.0302 55.7533 60.9641C55.8746 58.898 55.7533 54.1315 55.7533 54.1315L52.0783 52.2756L47.999 55.44L48.6275 65.7704L52.3686 66.0061C52.6546 66.0139 52.932 65.9095 53.1401 65.7158C53.3481 65.5222 53.4698 65.255 53.4785 64.973Z" fill="#FFBE9D"/>
<path d="M53.8422 59.3295C53.8422 59.3295 53.8422 59.3694 53.8091 59.4165C53.7818 59.4507 53.7464 59.4778 53.7061 59.4955C53.6657 59.5131 53.6216 59.5209 53.5776 59.518C53.3424 59.518 53.1146 59.2497 53.0337 58.9379C52.9953 58.7868 52.9953 58.6287 53.0337 58.4775C53.0412 58.4116 53.0654 58.3485 53.1039 58.294C53.1424 58.2396 53.194 58.1955 53.2542 58.1657C53.3036 58.1456 53.3591 58.1456 53.4085 58.1657C53.4452 58.1837 53.4749 58.213 53.4931 58.2491C53.5188 58.3108 53.4931 58.3506 53.4931 58.347C53.4931 58.3434 53.4931 58.3108 53.4563 58.2745C53.4371 58.2485 53.4089 58.2305 53.377 58.2238C53.3451 58.2171 53.3119 58.2222 53.2836 58.2382C53.2385 58.2651 53.2011 58.3028 53.1747 58.3478C53.1484 58.3928 53.134 58.4437 53.1329 58.4956C53.102 58.6305 53.102 58.7705 53.1329 58.9053C53.2064 59.1881 53.4049 59.4165 53.5813 59.4382C53.6158 59.4429 53.6509 59.4404 53.6844 59.431C53.7179 59.4217 53.7491 59.4056 53.776 59.3839C53.8201 59.3549 53.8348 59.3258 53.8422 59.3295Z" fill="#EB996E"/>
<path d="M57.0135 53.0151C56.7305 52.0654 55.7052 51.5942 54.7718 51.3332C53.3495 50.9345 51.8134 50.7605 50.4242 51.2644C49.0351 51.7682 47.3666 52.6526 47.3666 54.1641C46.5471 54.0989 46.0767 54.8057 45.7533 55.6829C45.5465 56.2173 45.4226 56.7794 45.3858 57.3503C45.2829 59.3294 44.7206 62.0624 43.4197 63.5123C42.6847 64.3206 41.6667 64.8788 41.2477 65.8865C40.8802 66.76 41.0713 67.7967 40.7296 68.6811C40.4245 69.4605 39.752 70.015 39.2596 70.6929C38.7579 71.4618 38.4626 72.3439 38.4015 73.2563C38.3405 74.1688 38.5156 75.0815 38.9104 75.9088C39.3081 76.7149 39.8681 77.4327 40.5561 78.0185C41.2441 78.6043 42.0459 79.0458 42.9125 79.3161C44.6291 79.8312 46.4597 79.8488 48.1861 79.3668C49.4819 79.0612 50.6906 78.4701 51.7215 77.6378C52.7764 76.7882 53.5008 75.6049 53.7722 74.2886C54.0331 72.8097 53.6141 71.3054 53.3018 69.8338C52.3242 65.1833 52.6035 64.9404 53.8383 60.6234C53.8677 60.5473 53.8824 60.4675 53.9045 60.3914C53.9265 60.3153 53.9375 60.279 53.9522 60.221C53.9873 60.0504 54.0058 59.8768 54.0073 59.7027C53.827 59.7689 53.6312 59.7829 53.4431 59.743C53.255 59.7032 53.0822 59.6113 52.9453 59.478C52.808 59.3358 52.7123 59.1597 52.6683 58.9683C52.6243 58.7768 52.6336 58.5772 52.6954 58.3906C52.7821 58.1865 52.9113 58.0026 53.0746 57.8508C53.2379 57.6991 53.4318 57.5829 53.6435 57.5098C54.0514 57.343 54.4888 57.256 54.8893 57.0712C55.7383 56.6724 56.3263 55.846 56.7269 54.9797C57.0562 54.3793 57.1578 53.6828 57.0135 53.0151Z" fill="#263238"/>
<path d="M53.9889 59.4272C54.0665 59.5404 54.1307 59.6621 54.18 59.7898C54.2902 60.0182 54.4372 60.3408 54.5989 60.7142L54.6283 60.7831H54.5512L54.1837 60.8157C53.9301 60.8157 53.7169 60.8629 53.467 60.8592C53.4453 60.8544 53.4251 60.8442 53.4084 60.8297C53.3917 60.8151 53.379 60.7966 53.3715 60.7759C53.3605 60.7429 53.3605 60.7073 53.3715 60.6744C53.38 60.6255 53.391 60.5771 53.4046 60.5293L53.4707 60.2719C53.504 60.1002 53.5557 59.9325 53.6251 59.7717C53.6182 59.9467 53.5923 60.1205 53.5479 60.2901L53.4964 60.5475C53.4781 60.6345 53.445 60.7686 53.4964 60.7577C53.6802 60.7577 53.9411 60.7179 54.1837 60.7034L54.5512 60.6707L54.5034 60.7505C54.3454 60.388 54.2131 60.0472 54.1359 59.8115C54.0682 59.6912 54.0187 59.5617 53.9889 59.4272Z" fill="#55AB60"/>
<path d="M41.4063 89.9366L57.7049 89.4473L64.7977 116.756L63.4931 148.081H54.8752L55.9299 117.423L49.6273 98.4112L50.5975 149.295L41.8877 149.422L40.9726 101.594C40.9322 100.263 40.4912 97.2658 40.6566 95.9464L41.4063 89.9366Z" fill="#263238"/>
<path d="M51.7955 98.799C51.5287 98.8156 51.2609 98.7997 50.998 98.7519C50.5056 98.6939 49.833 98.5923 49.0944 98.4473C48.3557 98.3023 47.6942 98.1356 47.2164 98.0014C46.9611 97.946 46.714 97.8583 46.4814 97.7404C46.4814 97.686 47.6795 97.9688 49.1495 98.2624C50.6195 98.5561 51.8028 98.7446 51.7955 98.799Z" fill="#455A64"/>
<path d="M63.4049 146.363C63.4049 146.414 61.4535 146.458 59.0463 146.458C56.6392 146.458 54.6841 146.414 54.6841 146.363C54.6841 146.312 56.6355 146.268 59.0463 146.268C61.4571 146.268 63.4049 146.308 63.4049 146.363Z" fill="#455A64"/>
<path d="M50.5202 147.973C50.5202 148.028 48.6239 148.068 46.2866 148.068C43.9493 148.068 42.0566 148.028 42.0566 147.973C42.0566 147.918 43.9529 147.877 46.2866 147.877C48.6202 147.877 50.5202 147.921 50.5202 147.973Z" fill="#455A64"/>
<path d="M49.3952 147.841C49.3438 147.841 49.1159 136.724 48.8844 123.012C48.6529 109.3 48.5169 98.1755 48.5647 98.1755C48.6125 98.1755 48.8477 109.289 49.0755 123.008C49.3034 136.728 49.4504 147.841 49.3952 147.841Z" fill="#455A64"/>
<path d="M62.2469 146.362C62.2429 146.313 62.2429 146.263 62.2469 146.214V145.779C62.2469 145.387 62.2763 144.825 62.2984 144.111C62.3498 142.661 62.4233 140.555 62.5152 137.975C62.7137 132.784 62.993 125.629 63.298 117.731C63.298 117.654 63.298 117.582 63.298 117.517V117.542C61.3686 109.93 59.623 103.022 58.3551 98.023L56.8851 92.1111C56.7161 91.4188 56.5874 90.8787 56.4956 90.5017C56.4515 90.3241 56.4221 90.1864 56.3963 90.0813C56.382 90.0341 56.3734 89.9854 56.3706 89.9363C56.3897 89.982 56.4045 90.0293 56.4147 90.0776C56.4441 90.1791 56.4809 90.3169 56.5323 90.4909C56.6315 90.8533 56.7749 91.4043 56.9586 92.093C57.3261 93.4921 57.8443 95.5075 58.4911 97.9904C59.77 102.985 61.534 109.876 63.4891 117.499V117.524C63.4891 117.589 63.4891 117.665 63.4891 117.738C63.162 125.636 62.8643 132.788 62.6475 137.978C62.5336 140.563 62.438 142.654 62.3719 144.111C62.3351 144.836 62.3057 145.387 62.2874 145.779C62.2874 145.964 62.2653 146.109 62.2616 146.214C62.2622 146.264 62.2572 146.313 62.2469 146.362Z" fill="#455A64"/>
<path d="M59.4359 116.879C58.8169 117.08 58.1792 117.219 57.5322 117.296C56.7384 117.43 56.0622 117.524 55.7572 117.539V117.466C55.8564 117.495 55.9078 117.513 55.9078 117.528C55.9078 117.542 55.8454 117.528 55.7425 117.528H55.522L55.7425 117.463C56.0291 117.379 56.7053 117.241 57.4991 117.1C58.1358 116.964 58.7845 116.89 59.4359 116.879Z" fill="#455A64"/>
<path d="M59.285 117.919C58.7117 117.945 58.1373 117.92 57.5687 117.843C56.9947 117.832 56.4228 117.77 55.8599 117.658C57.0084 117.566 58.1645 117.654 59.285 117.919Z" fill="#455A64"/>
<path opacity="0.2" d="M41.3364 90.5131C41.5295 90.7576 41.7726 90.9592 42.0499 91.1048C42.3273 91.2503 42.6327 91.3366 42.9461 91.3578C43.6025 91.4345 44.2665 91.4223 44.9196 91.3216C49.1274 90.8611 53.5852 90.437 57.7049 89.4473C52.3725 89.7409 46.7387 89.643 41.4063 89.9367L41.3511 90.3862" fill="black"/>
<g opacity="0.2">
<path opacity="0.2" d="M46.8306 97.925L49.8367 109.43L49.6272 98.4108L46.8306 97.925Z" fill="black"/>
</g>
</svg>
