<svg width="222" height="54" viewBox="0 0 222 54" fill="none" xmlns="http://www.w3.org/2000/svg">
<path d="M57.977 38.9327C56.4799 38.9327 55.0405 38.6928 53.6586 38.213C52.2959 37.7332 51.2403 37.0998 50.4918 36.3129L51.3267 34.6719C52.056 35.4013 53.0252 35.9962 54.2344 36.4569C55.4435 36.8983 56.6911 37.119 57.977 37.119C59.7811 37.119 61.1342 36.7927 62.0363 36.1402C62.9383 35.4684 63.3894 34.6048 63.3894 33.5492C63.3894 32.7431 63.1399 32.1001 62.6408 31.6203C62.161 31.1404 61.566 30.7758 60.8559 30.5263C60.1458 30.2576 59.1573 29.9697 57.8906 29.6626C56.3744 29.2787 55.1652 28.9141 54.2632 28.5686C53.3611 28.2039 52.5838 27.6569 51.9312 26.9276C51.2979 26.1983 50.9812 25.2099 50.9812 23.9623C50.9812 22.9451 51.2499 22.0238 51.7873 21.1986C52.3247 20.3541 53.15 19.6823 54.2632 19.1833C55.3763 18.6843 56.7582 18.4348 58.4088 18.4348C59.5604 18.4348 60.6832 18.5979 61.7772 18.9242C62.8903 19.2313 63.85 19.6631 64.6561 20.2197L63.9364 21.9183C63.0919 21.3617 62.1898 20.949 61.2302 20.6803C60.2705 20.3925 59.3301 20.2485 58.4088 20.2485C56.6431 20.2485 55.3092 20.594 54.4071 21.2849C53.5242 21.9567 53.0828 22.8299 53.0828 23.9047C53.0828 24.7108 53.3227 25.3634 53.8025 25.8624C54.3015 26.3422 54.9157 26.7165 55.645 26.9852C56.3936 27.2347 57.3916 27.513 58.6391 27.8201C60.117 28.1847 61.3069 28.5494 62.209 28.9141C63.1303 29.2595 63.9076 29.7969 64.5409 30.5263C65.1743 31.2364 65.491 32.2057 65.491 33.434C65.491 34.4512 65.2127 35.3821 64.6561 36.2266C64.1187 37.0518 63.2838 37.714 62.1514 38.213C61.019 38.6928 59.6276 38.9327 57.977 38.9327ZM84.3259 28.6838H86.37V36.3705C85.4295 37.1958 84.3163 37.8292 83.0304 38.2706C81.7445 38.712 80.3914 38.9327 78.9711 38.9327C76.9559 38.9327 75.1421 38.4913 73.5299 37.6084C71.9177 36.7256 70.651 35.5068 69.7297 33.9522C68.8085 32.3784 68.3479 30.6222 68.3479 28.6838C68.3479 26.7453 68.8085 24.9987 69.7297 23.4441C70.651 21.8703 71.9177 20.642 73.5299 19.7591C75.1421 18.8762 76.9655 18.4348 78.9999 18.4348C80.5353 18.4348 81.946 18.6843 83.2319 19.1833C84.5178 19.6631 85.6022 20.3829 86.4851 21.3425L85.1608 22.6956C83.5678 21.1218 81.5429 20.3349 79.0863 20.3349C77.4549 20.3349 75.977 20.6995 74.6527 21.4289C73.3476 22.139 72.3208 23.137 71.5723 24.423C70.8237 25.6897 70.4495 27.11 70.4495 28.6838C70.4495 30.2576 70.8237 31.6778 71.5723 32.9446C72.3208 34.2113 73.3476 35.2093 74.6527 35.9387C75.9578 36.668 77.4261 37.0327 79.0575 37.0327C81.1303 37.0327 82.8864 36.5144 84.3259 35.478V28.6838Z" fill="#040404"/>
<path d="M112.979 28.4534H116.52V36.4857C115.484 37.3109 114.275 37.9443 112.893 38.3857C111.511 38.8272 110.091 39.0479 108.632 39.0479C106.578 39.0479 104.726 38.6065 103.076 37.7236C101.425 36.8215 100.129 35.5836 99.189 34.0098C98.2486 32.436 97.7784 30.6606 97.7784 28.6838C97.7784 26.7069 98.2486 24.9316 99.189 23.3577C100.129 21.7839 101.425 20.5556 103.076 19.6727C104.745 18.7707 106.617 18.3196 108.69 18.3196C110.378 18.3196 111.914 18.5979 113.296 19.1545C114.678 19.7111 115.839 20.5268 116.779 21.6016L114.419 23.9047C112.883 22.3693 111.031 21.6016 108.862 21.6016C107.442 21.6016 106.175 21.8991 105.062 22.4941C103.968 23.089 103.104 23.9239 102.471 24.9987C101.857 26.0735 101.55 27.3019 101.55 28.6838C101.55 30.0273 101.857 31.2364 102.471 32.3112C103.104 33.386 103.968 34.2305 105.062 34.8447C106.175 35.4588 107.432 35.7659 108.833 35.7659C110.407 35.7659 111.789 35.4205 112.979 34.7295V28.4534ZM124.537 25.6321C125.573 24.0199 127.397 23.2138 130.007 23.2138V26.6397C129.7 26.5821 129.421 26.5534 129.172 26.5534C127.771 26.5534 126.677 26.966 125.89 27.7913C125.103 28.5974 124.71 29.7682 124.71 31.3036V38.76H121.111V23.3865H124.537V25.6321ZM139.828 38.9615C138.274 38.9615 136.873 38.6257 135.625 37.9539C134.378 37.2822 133.399 36.3513 132.689 35.1614C131.998 33.9522 131.652 32.5895 131.652 31.0733C131.652 29.557 131.998 28.2039 132.689 27.014C133.399 25.824 134.378 24.8932 135.625 24.2214C136.873 23.5497 138.274 23.2138 139.828 23.2138C141.402 23.2138 142.813 23.5497 144.061 24.2214C145.308 24.8932 146.277 25.824 146.968 27.014C147.678 28.2039 148.033 29.557 148.033 31.0733C148.033 32.5895 147.678 33.9522 146.968 35.1614C146.277 36.3513 145.308 37.2822 144.061 37.9539C142.813 38.6257 141.402 38.9615 139.828 38.9615ZM139.828 35.8811C141.153 35.8811 142.247 35.4396 143.11 34.5568C143.974 33.6739 144.406 32.5127 144.406 31.0733C144.406 29.6338 143.974 28.4726 143.11 27.5898C142.247 26.7069 141.153 26.2655 139.828 26.2655C138.504 26.2655 137.41 26.7069 136.547 27.5898C135.702 28.4726 135.28 29.6338 135.28 31.0733C135.28 32.5127 135.702 33.6739 136.547 34.5568C137.41 35.4396 138.504 35.8811 139.828 35.8811ZM158.528 38.9615C156.935 38.9615 155.505 38.6257 154.238 37.9539C152.972 37.2822 151.983 36.3513 151.273 35.1614C150.563 33.9522 150.208 32.5895 150.208 31.0733C150.208 29.557 150.563 28.2039 151.273 27.014C151.983 25.824 152.962 24.8932 154.21 24.2214C155.476 23.5497 156.916 23.2138 158.528 23.2138C160.044 23.2138 161.369 23.5209 162.501 24.1351C163.653 24.7492 164.516 25.6321 165.092 26.7837L162.328 28.3959C161.887 27.6857 161.33 27.1579 160.658 26.8125C160.006 26.4478 159.286 26.2655 158.499 26.2655C157.156 26.2655 156.043 26.7069 155.16 27.5898C154.277 28.4534 153.835 29.6146 153.835 31.0733C153.835 32.5319 154.267 33.7027 155.131 34.5856C156.014 35.4492 157.137 35.8811 158.499 35.8811C159.286 35.8811 160.006 35.7083 160.658 35.3629C161.33 34.9982 161.887 34.4608 162.328 33.7507L165.092 35.3629C164.497 36.5144 163.624 37.4069 162.472 38.0403C161.34 38.6544 160.025 38.9615 158.528 38.9615ZM182.43 31.1596C182.43 31.4091 182.411 31.7642 182.372 32.2248H170.31C170.521 33.3572 171.068 34.2593 171.951 34.931C172.853 35.5836 173.966 35.9099 175.29 35.9099C176.979 35.9099 178.371 35.3533 179.465 34.2401L181.394 36.4569C180.703 37.2822 179.829 37.9059 178.774 38.3282C177.718 38.7504 176.528 38.9615 175.204 38.9615C173.515 38.9615 172.028 38.6257 170.742 37.9539C169.456 37.2822 168.458 36.3513 167.748 35.1614C167.057 33.9522 166.711 32.5895 166.711 31.0733C166.711 29.5762 167.047 28.2327 167.719 27.0428C168.41 25.8336 169.36 24.8932 170.569 24.2214C171.778 23.5497 173.141 23.2138 174.657 23.2138C176.154 23.2138 177.488 23.5497 178.659 24.2214C179.849 24.874 180.77 25.8048 181.422 27.014C182.094 28.2039 182.43 29.5858 182.43 31.1596ZM174.657 26.0927C173.505 26.0927 172.527 26.4382 171.72 27.1291C170.934 27.8009 170.454 28.703 170.281 29.8353H179.004C178.851 28.7221 178.38 27.8201 177.593 27.1291C176.807 26.4382 175.828 26.0927 174.657 26.0927ZM189.313 25.6321C190.349 24.0199 192.172 23.2138 194.783 23.2138V26.6397C194.476 26.5821 194.197 26.5534 193.948 26.5534C192.547 26.5534 191.453 26.966 190.666 27.7913C189.879 28.5974 189.485 29.7682 189.485 31.3036V38.76H185.887V23.3865H189.313V25.6321ZM212.792 23.3865L205.595 39.9979C204.923 41.6677 204.108 42.8385 203.148 43.5102C202.188 44.2012 201.027 44.5467 199.665 44.5467C198.897 44.5467 198.139 44.4219 197.39 44.1724C196.642 43.9229 196.027 43.5774 195.548 43.136L196.987 40.4874C197.333 40.8136 197.736 41.0727 198.196 41.2647C198.676 41.4566 199.156 41.5526 199.636 41.5526C200.269 41.5526 200.787 41.3894 201.19 41.0632C201.613 40.7369 201.996 40.1899 202.342 39.4222L202.601 38.8176L195.893 23.3865H199.636L204.472 34.7583L209.338 23.3865H212.792Z" fill="#55AB60"/>
<path d="M30.3976 5.79517C31.229 5.79666 32.026 6.10373 32.6145 6.64931C33.203 7.19489 33.5351 7.93463 33.5383 8.70695V14.61C33.5351 15.3823 33.203 16.122 32.6145 16.6676C32.026 17.2132 31.229 17.5203 30.3976 17.5218H24.0488" stroke="black" stroke-width="1.69349" stroke-linecap="round" stroke-linejoin="round"/>
<path d="M10.3194 52.9967C12.5131 52.9967 14.2916 51.3449 14.2916 49.3073C14.2916 47.2697 12.5131 45.6179 10.3194 45.6179C8.12558 45.6179 6.34717 47.2697 6.34717 49.3073C6.34717 51.3449 8.12558 52.9967 10.3194 52.9967Z" stroke="black" stroke-width="1.69349" stroke-linecap="round" stroke-linejoin="round"/>
<path d="M5.67445 5.05898e-06C5.67445 5.05898e-06 5.47892 15.5863 20.2479 13.6848C22.301 -0.0624299 5.67445 5.05898e-06 5.67445 5.05898e-06Z" fill="#A3CB38"/>
<path d="M5.80322 2.20801C6.26762 6.10742 8.60791 15.1323 20.2666 13.6338L5.80322 2.20801Z" fill="#C4E538"/>
<path d="M20.2486 13.5489L7.93604 0.11377C12.1156 0.53947 21.8678 2.70203 20.2486 13.5489Z" fill="#A2E54C"/>
<path d="M1 35.1174H27.886" stroke="#A2E54C" stroke-width="1.69349" stroke-linecap="round" stroke-linejoin="round"/>
<path d="M37.5095 36.2528C37.5095 38.0592 36.737 39.7917 35.3618 41.069C33.9867 42.3464 32.1217 43.064 30.177 43.064H8.48488C6.54017 43.064 4.6751 42.3464 3.29999 41.069C1.92487 39.7917 1.15234 38.0592 1.15234 36.2528V24.3332C1.15234 22.5267 1.92487 20.7943 3.29999 19.5169C4.6751 18.2396 6.54017 17.522 8.48488 17.522H30.177" stroke="black" stroke-width="1.69349" stroke-linecap="round" stroke-linejoin="round"/>
<path d="M34.9136 47.1392C35.376 47.7292 35.6396 48.4332 35.6712 49.1623C35.7027 49.8915 35.5008 50.6129 35.0909 51.2354C34.681 51.858 34.0816 52.3536 33.3684 52.6597C32.6552 52.9658 31.8603 53.0686 31.0842 52.955C30.3081 52.8415 29.5857 52.5168 29.0084 52.0219C28.431 51.527 28.0246 50.8843 27.8405 50.1749C27.6565 49.4655 27.703 48.7213 27.9744 48.0365C28.2457 47.3517 28.7295 46.757 29.3647 46.3276C29.7862 46.0417 30.2642 45.836 30.7714 45.7221C31.2786 45.6082 31.8051 45.5883 32.3205 45.6637C32.836 45.7392 33.3304 45.9083 33.7754 46.1615C34.2203 46.4147 34.6071 46.7469 34.9136 47.1392Z" stroke="black" stroke-width="1.69349" stroke-linecap="round" stroke-linejoin="round"/>
<path d="M15.5 9.14429L22.4238 15.5752" stroke="#A3CB38" stroke-width="1.69349" stroke-linecap="round" stroke-linejoin="round"/>
</svg>
