<svg width="328" height="110" viewBox="0 0 328 110" fill="none" xmlns="http://www.w3.org/2000/svg">
<path d="M85.853 57.0897C83.6498 57.0897 81.5314 56.7366 79.4977 56.0304C77.4922 55.3243 75.9386 54.3922 74.8371 53.2341L76.0658 50.819C77.1391 51.8924 78.5655 52.768 80.345 53.4459C82.1245 54.0956 83.9605 54.4204 85.853 54.4204C88.5082 54.4204 90.4995 53.9402 91.8271 52.9799C93.1546 51.9912 93.8184 50.7202 93.8184 49.1666C93.8184 47.9803 93.4512 47.0341 92.7168 46.3279C92.0107 45.6218 91.135 45.0851 90.0899 44.7179C89.0448 44.3224 87.5902 43.8987 85.7259 43.4468C83.4945 42.8819 81.715 42.3452 80.3874 41.8368C79.0598 41.3001 77.9159 40.4951 76.9555 39.4217C76.0234 38.3484 75.5573 36.8937 75.5573 35.0577C75.5573 33.5607 75.9528 32.2049 76.7437 30.9903C77.5346 29.7475 78.7491 28.7588 80.3874 28.0245C82.0257 27.2901 84.0594 26.9229 86.4886 26.9229C88.1833 26.9229 89.8357 27.1629 91.4457 27.6431C93.084 28.0951 94.4963 28.7306 95.6827 29.5497L94.6234 32.0495C93.3806 31.2304 92.053 30.6231 90.6407 30.2276C89.2284 29.804 87.8444 29.5921 86.4886 29.5921C83.8899 29.5921 81.9268 30.1005 80.5993 31.1174C79.2999 32.106 78.6503 33.3912 78.6503 34.973C78.6503 36.1593 79.0033 37.1197 79.7095 37.8541C80.4439 38.5602 81.3478 39.111 82.4211 39.5065C83.5227 39.8737 84.9915 40.2832 86.8275 40.7352C89.0025 41.2719 90.7537 41.8085 92.0813 42.3452C93.4371 42.8536 94.5811 43.6445 95.5132 44.7179C96.4453 45.763 96.9114 47.1894 96.9114 48.9972C96.9114 50.4942 96.5018 51.8641 95.6827 53.107C94.8918 54.3215 93.6631 55.296 91.9965 56.0304C90.33 56.7366 88.2822 57.0897 85.853 57.0897ZM124.631 42.0063H127.639V53.3188C126.255 54.5334 124.617 55.4655 122.724 56.1152C120.832 56.7648 118.84 57.0897 116.75 57.0897C113.784 57.0897 111.115 56.44 108.742 55.1407C106.37 53.8414 104.505 52.0477 103.15 49.7598C101.794 47.4436 101.116 44.8591 101.116 42.0063C101.116 39.1534 101.794 36.583 103.15 34.2951C104.505 31.9789 106.37 30.1712 108.742 28.8718C111.115 27.5725 113.798 26.9229 116.792 26.9229C119.052 26.9229 121.128 27.2901 123.021 28.0245C124.913 28.7306 126.509 29.7898 127.808 31.2021L125.859 33.1935C123.515 30.8773 120.535 29.7192 116.92 29.7192C114.519 29.7192 112.344 30.2559 110.395 31.3292C108.474 32.3743 106.963 33.8431 105.861 35.7356C104.76 37.5999 104.209 39.6901 104.209 42.0063C104.209 44.3224 104.76 46.4126 105.861 48.2769C106.963 50.1411 108.474 51.6099 110.395 52.6833C112.315 53.7566 114.476 54.2933 116.877 54.2933C119.928 54.2933 122.512 53.5307 124.631 52.0054V42.0063Z" fill="#040404"/>
<path d="M166.8 41.6673H172.011V53.4883C170.486 54.7029 168.706 55.635 166.672 56.2847C164.639 56.9343 162.549 57.2591 160.402 57.2591C157.379 57.2591 154.654 56.6095 152.225 55.3102C149.795 53.9826 147.889 52.1607 146.505 49.8445C145.121 47.5284 144.429 44.9156 144.429 42.0063C144.429 39.0969 145.121 36.4842 146.505 34.168C147.889 31.8518 149.795 30.044 152.225 28.7447C154.682 27.4172 157.436 26.7534 160.487 26.7534C162.972 26.7534 165.232 27.1629 167.266 27.9821C169.299 28.8012 171.008 30.0017 172.392 31.5835L168.918 34.973C166.658 32.7133 163.933 31.5835 160.741 31.5835C158.651 31.5835 156.786 32.0213 155.148 32.8969C153.538 33.7725 152.267 35.0012 151.335 36.583C150.431 38.1648 149.979 39.9725 149.979 42.0063C149.979 43.9835 150.431 45.763 151.335 47.3448C152.267 48.9265 153.538 50.1694 155.148 51.0732C156.786 51.9771 158.636 52.4291 160.698 52.4291C163.015 52.4291 165.048 51.9206 166.8 50.9038V41.6673ZM183.809 37.5151C185.334 35.1425 188.018 33.9561 191.859 33.9561V38.9981C191.407 38.9133 190.998 38.8709 190.631 38.8709C188.569 38.8709 186.959 39.4782 185.8 40.6928C184.642 41.8792 184.063 43.6022 184.063 45.8618V56.8354H178.767V34.2103H183.809V37.5151ZM206.314 57.132C204.026 57.132 201.964 56.6377 200.128 55.6491C198.292 54.6605 196.851 53.2906 195.806 51.5393C194.789 49.7598 194.281 47.7543 194.281 45.5229C194.281 43.2915 194.789 41.3001 195.806 39.5488C196.851 37.7976 198.292 36.4277 200.128 35.439C201.964 34.4504 204.026 33.9561 206.314 33.9561C208.63 33.9561 210.706 34.4504 212.542 35.439C214.378 36.4277 215.804 37.7976 216.821 39.5488C217.866 41.3001 218.389 43.2915 218.389 45.5229C218.389 47.7543 217.866 49.7598 216.821 51.5393C215.804 53.2906 214.378 54.6605 212.542 55.6491C210.706 56.6377 208.63 57.132 206.314 57.132ZM206.314 52.5985C208.263 52.5985 209.873 51.9489 211.144 50.6496C212.415 49.3502 213.05 47.6414 213.05 45.5229C213.05 43.4044 212.415 41.6956 211.144 40.3962C209.873 39.0969 208.263 38.4473 206.314 38.4473C204.365 38.4473 202.755 39.0969 201.484 40.3962C200.241 41.6956 199.619 43.4044 199.619 45.5229C199.619 47.6414 200.241 49.3502 201.484 50.6496C202.755 51.9489 204.365 52.5985 206.314 52.5985ZM233.834 57.132C231.489 57.132 229.385 56.6377 227.521 55.6491C225.657 54.6605 224.202 53.2906 223.157 51.5393C222.112 49.7598 221.589 47.7543 221.589 45.5229C221.589 43.2915 222.112 41.3001 223.157 39.5488C224.202 37.7976 225.642 36.4277 227.478 35.439C229.343 34.4504 231.461 33.9561 233.834 33.9561C236.065 33.9561 238.014 34.4081 239.681 35.3119C241.375 36.2158 242.647 37.5151 243.494 39.2099L239.426 41.5826C238.777 40.5375 237.958 39.7607 236.969 39.2523C236.009 38.7156 234.949 38.4473 233.791 38.4473C231.814 38.4473 230.176 39.0969 228.877 40.3962C227.577 41.6673 226.928 43.3762 226.928 45.5229C226.928 47.6696 227.563 49.3926 228.834 50.6919C230.134 51.963 231.786 52.5985 233.791 52.5985C234.949 52.5985 236.009 52.3443 236.969 51.8359C237.958 51.2992 238.777 50.5083 239.426 49.4632L243.494 51.8359C242.618 53.5307 241.333 54.8441 239.638 55.7762C237.972 56.6801 236.037 57.132 233.834 57.132ZM269.01 45.65C269.01 46.0172 268.982 46.5398 268.926 47.2177H251.173C251.484 48.8842 252.289 50.2117 253.588 51.2004C254.916 52.1607 256.554 52.6409 258.503 52.6409C260.989 52.6409 263.036 51.8218 264.646 50.1835L267.485 53.4459C266.468 54.6605 265.183 55.5785 263.63 56.1999C262.076 56.8213 260.325 57.132 258.376 57.132C255.89 57.132 253.701 56.6377 251.809 55.6491C249.916 54.6605 248.447 53.2906 247.402 51.5393C246.385 49.7598 245.877 47.7543 245.877 45.5229C245.877 43.3197 246.371 41.3425 247.36 39.5912C248.377 37.8117 249.775 36.4277 251.554 35.439C253.334 34.4504 255.339 33.9561 257.571 33.9561C259.774 33.9561 261.737 34.4504 263.46 35.439C265.211 36.3994 266.567 37.7693 267.527 39.5488C268.516 41.3001 269.01 43.3338 269.01 45.65ZM257.571 38.193C255.876 38.193 254.435 38.7015 253.249 39.7183C252.091 40.7069 251.385 42.0345 251.131 43.701H263.968C263.743 42.0628 263.05 40.7352 261.892 39.7183C260.734 38.7015 259.294 38.193 257.571 38.193ZM279.14 37.5151C280.665 35.1425 283.348 33.9561 287.19 33.9561V38.9981C286.738 38.9133 286.328 38.8709 285.961 38.8709C283.899 38.8709 282.289 39.4782 281.131 40.6928C279.973 41.8792 279.394 43.6022 279.394 45.8618V56.8354H274.098V34.2103H279.14V37.5151ZM313.695 34.2103L303.102 58.6573C302.114 61.1147 300.913 62.8377 299.501 63.8264C298.089 64.8432 296.38 65.3516 294.374 65.3516C293.244 65.3516 292.129 65.168 291.027 64.8008C289.926 64.4336 289.022 63.9252 288.315 63.2756L290.434 59.3776C290.942 59.8578 291.536 60.2391 292.213 60.5216C292.92 60.804 293.626 60.9453 294.332 60.9453C295.264 60.9453 296.027 60.7052 296.62 60.225C297.241 59.7448 297.806 58.9398 298.315 57.8099L298.696 56.9202L288.824 34.2103H294.332L301.45 50.9461L308.61 34.2103H313.695Z" fill="#55AB60"/>
<path d="M45.2643 8.52881C46.4879 8.53101 47.6609 8.98292 48.527 9.78585C49.3931 10.5888 49.8818 11.6775 49.8866 12.8141V21.5016C49.8818 22.6382 49.3931 23.7269 48.527 24.5298C47.6609 25.3327 46.4879 25.7846 45.2643 25.7868H35.9209" stroke="black" stroke-width="2.4923" stroke-linecap="round" stroke-linejoin="round"/>
<path d="M15.7155 77.9954C18.9441 77.9954 21.5614 75.5644 21.5614 72.5657C21.5614 69.5669 18.9441 67.136 15.7155 67.136C12.4869 67.136 9.86963 69.5669 9.86963 72.5657C9.86963 75.5644 12.4869 77.9954 15.7155 77.9954Z" stroke="black" stroke-width="2.4923" stroke-linecap="round" stroke-linejoin="round"/>
<path d="M8.87959 7.44529e-06C8.87959 7.44529e-06 8.59182 22.9383 30.3273 20.14C33.3488 -0.0918779 8.87959 7.44529e-06 8.87959 7.44529e-06Z" fill="#A3CB38"/>
<path d="M9.06885 3.24951C9.75229 8.98827 13.1965 22.2701 30.3546 20.0648L9.06885 3.24951Z" fill="#C4E538"/>
<path d="M30.3279 19.9399L12.2075 0.16748C18.3585 0.793983 32.7109 3.97662 30.3279 19.9399Z" fill="#A2E54C"/>
<path d="M2 51.6824H41.568" stroke="#A2E54C" stroke-width="2.4923" stroke-linecap="round" stroke-linejoin="round"/>
<path d="M55.7309 53.3529C55.7309 56.0115 54.5939 58.5611 52.5702 60.441C50.5464 62.3209 47.8016 63.377 44.9396 63.377H13.0154C10.1534 63.377 7.40856 62.3209 5.3848 60.441C3.36105 58.5611 2.22412 56.0115 2.22412 53.3529V35.8109C2.22412 33.1524 3.36105 30.6027 5.3848 28.7228C7.40856 26.843 10.1534 25.7869 13.0154 25.7869H44.9396" stroke="black" stroke-width="2.4923" stroke-linecap="round" stroke-linejoin="round"/>
<path d="M51.9105 69.3749C52.591 70.2431 52.979 71.2793 53.0254 72.3523C53.0719 73.4254 52.7747 74.4871 52.1714 75.4033C51.5682 76.3195 50.686 77.0489 49.6364 77.4994C48.5868 77.9498 47.4169 78.1011 46.2748 77.934C45.1326 77.767 44.0695 77.2891 43.2198 76.5608C42.37 75.8325 41.7719 74.8865 41.5011 73.8425C41.2302 72.7985 41.2987 71.7033 41.698 70.6954C42.0973 69.6876 42.8094 68.8123 43.7442 68.1804C44.3645 67.7598 45.068 67.4569 45.8145 67.2893C46.5609 67.1217 47.3357 67.0925 48.0943 67.2035C48.8529 67.3144 49.5805 67.5633 50.2353 67.936C50.8902 68.3086 51.4595 68.7976 51.9105 69.3749Z" stroke="black" stroke-width="2.4923" stroke-linecap="round" stroke-linejoin="round"/>
<path d="M23.3398 13.4575L33.5297 22.9219" stroke="#A3CB38" stroke-width="2.4923" stroke-linecap="round" stroke-linejoin="round"/>
<path d="M17.08 100.16V105H15.62V100.16L10.02 91H11.6L16.4 98.86L21.2 91H22.68L17.08 100.16ZM28.8839 105.1C27.8706 105.1 26.9572 104.873 26.1439 104.42C25.3306 103.953 24.6906 103.313 24.2239 102.5C23.7572 101.687 23.5239 100.767 23.5239 99.74C23.5239 98.7133 23.7572 97.7933 24.2239 96.98C24.6906 96.1667 25.3306 95.5333 26.1439 95.08C26.9572 94.6267 27.8706 94.4 28.8839 94.4C29.8972 94.4 30.8106 94.6267 31.6239 95.08C32.4372 95.5333 33.0706 96.1667 33.5239 96.98C33.9906 97.7933 34.2239 98.7133 34.2239 99.74C34.2239 100.767 33.9906 101.687 33.5239 102.5C33.0706 103.313 32.4372 103.953 31.6239 104.42C30.8106 104.873 29.8972 105.1 28.8839 105.1ZM28.8839 103.84C29.6306 103.84 30.2972 103.673 30.8839 103.34C31.4839 102.993 31.9506 102.507 32.2839 101.88C32.6172 101.253 32.7839 100.54 32.7839 99.74C32.7839 98.94 32.6172 98.2267 32.2839 97.6C31.9506 96.9733 31.4839 96.4933 30.8839 96.16C30.2972 95.8133 29.6306 95.64 28.8839 95.64C28.1372 95.64 27.4639 95.8133 26.8639 96.16C26.2772 96.4933 25.8106 96.9733 25.4639 97.6C25.1306 98.2267 24.9639 98.94 24.9639 99.74C24.9639 100.54 25.1306 101.253 25.4639 101.88C25.8106 102.507 26.2772 102.993 26.8639 103.34C27.4639 103.673 28.1372 103.84 28.8839 103.84ZM47.703 94.48V105H46.343V103.08C45.9696 103.72 45.4563 104.22 44.803 104.58C44.1496 104.927 43.403 105.1 42.563 105.1C41.1896 105.1 40.103 104.72 39.303 103.96C38.5163 103.187 38.123 102.06 38.123 100.58V94.48H39.543V100.44C39.543 101.547 39.8163 102.387 40.363 102.96C40.9096 103.533 41.6896 103.82 42.703 103.82C43.8096 103.82 44.683 103.487 45.323 102.82C45.963 102.14 46.283 101.2 46.283 100V94.48H47.703ZM54.14 96.54C54.4733 95.8333 54.9667 95.3 55.62 94.94C56.2867 94.58 57.1067 94.4 58.08 94.4V95.78L57.74 95.76C56.6333 95.76 55.7667 96.1 55.14 96.78C54.5133 97.46 54.2 98.4133 54.2 99.64V105H52.78V94.48H54.14V96.54ZM73.6017 94.4C74.9217 94.4 75.9684 94.7867 76.7417 95.56C77.5284 96.32 77.9217 97.4333 77.9217 98.9V105H76.5017V99.04C76.5017 97.9467 76.2284 97.1133 75.6817 96.54C75.1351 95.9667 74.3551 95.68 73.3417 95.68C72.2084 95.68 71.3084 96.02 70.6417 96.7C69.9884 97.3667 69.6617 98.2933 69.6617 99.48V105H68.2417V94.48H69.6017V96.42C69.9884 95.78 70.5217 95.2867 71.2017 94.94C71.8951 94.58 72.6951 94.4 73.6017 94.4ZM92.0759 100.18H83.2759C83.3559 101.273 83.7759 102.16 84.5359 102.84C85.2959 103.507 86.2559 103.84 87.4159 103.84C88.0693 103.84 88.6693 103.727 89.2159 103.5C89.7626 103.26 90.2359 102.913 90.6359 102.46L91.4359 103.38C90.9693 103.94 90.3826 104.367 89.6759 104.66C88.9826 104.953 88.2159 105.1 87.3759 105.1C86.2959 105.1 85.3359 104.873 84.4959 104.42C83.6693 103.953 83.0226 103.313 82.5559 102.5C82.0893 101.687 81.8559 100.767 81.8559 99.74C81.8559 98.7133 82.0759 97.7933 82.5159 96.98C82.9693 96.1667 83.5826 95.5333 84.3559 95.08C85.1426 94.6267 86.0226 94.4 86.9959 94.4C87.9693 94.4 88.8426 94.6267 89.6159 95.08C90.3893 95.5333 90.9959 96.1667 91.4359 96.98C91.8759 97.78 92.0959 98.7 92.0959 99.74L92.0759 100.18ZM86.9959 95.62C85.9826 95.62 85.1293 95.9467 84.4359 96.6C83.7559 97.24 83.3693 98.08 83.2759 99.12H90.7359C90.6426 98.08 90.2493 97.24 89.5559 96.6C88.8759 95.9467 88.0226 95.62 86.9959 95.62ZM105.246 100.18H96.4462C96.5262 101.273 96.9462 102.16 97.7062 102.84C98.4662 103.507 99.4262 103.84 100.586 103.84C101.24 103.84 101.84 103.727 102.386 103.5C102.933 103.26 103.406 102.913 103.806 102.46L104.606 103.38C104.14 103.94 103.553 104.367 102.846 104.66C102.153 104.953 101.386 105.1 100.546 105.1C99.4662 105.1 98.5062 104.873 97.6662 104.42C96.8396 103.953 96.1929 103.313 95.7262 102.5C95.2596 101.687 95.0262 100.767 95.0262 99.74C95.0262 98.7133 95.2462 97.7933 95.6862 96.98C96.1396 96.1667 96.7529 95.5333 97.5262 95.08C98.3129 94.6267 99.1929 94.4 100.166 94.4C101.14 94.4 102.013 94.6267 102.786 95.08C103.56 95.5333 104.166 96.1667 104.606 96.98C105.046 97.78 105.266 98.7 105.266 99.74L105.246 100.18ZM100.166 95.62C99.1529 95.62 98.2996 95.9467 97.6062 96.6C96.9262 97.24 96.5396 98.08 96.4462 99.12H103.906C103.813 98.08 103.42 97.24 102.726 96.6C102.046 95.9467 101.193 95.62 100.166 95.62ZM118.857 90.16V105H117.497V102.92C117.07 103.627 116.503 104.167 115.797 104.54C115.103 104.913 114.317 105.1 113.437 105.1C112.45 105.1 111.557 104.873 110.757 104.42C109.957 103.967 109.33 103.333 108.877 102.52C108.423 101.707 108.197 100.78 108.197 99.74C108.197 98.7 108.423 97.7733 108.877 96.96C109.33 96.1467 109.957 95.52 110.757 95.08C111.557 94.6267 112.45 94.4 113.437 94.4C114.29 94.4 115.057 94.58 115.737 94.94C116.43 95.2867 116.997 95.8 117.437 96.48V90.16H118.857ZM113.557 103.84C114.29 103.84 114.95 103.673 115.537 103.34C116.137 102.993 116.603 102.507 116.937 101.88C117.283 101.253 117.457 100.54 117.457 99.74C117.457 98.94 117.283 98.2267 116.937 97.6C116.603 96.9733 116.137 96.4933 115.537 96.16C114.95 95.8133 114.29 95.64 113.557 95.64C112.81 95.64 112.137 95.8133 111.537 96.16C110.95 96.4933 110.483 96.9733 110.137 97.6C109.803 98.2267 109.637 98.94 109.637 99.74C109.637 100.54 109.803 101.253 110.137 101.88C110.483 102.507 110.95 102.993 111.537 103.34C112.137 103.673 112.81 103.84 113.557 103.84ZM126.731 105.1C125.878 105.1 125.058 104.98 124.271 104.74C123.498 104.487 122.891 104.173 122.451 103.8L123.091 102.68C123.531 103.027 124.085 103.313 124.751 103.54C125.418 103.753 126.111 103.86 126.831 103.86C127.791 103.86 128.498 103.713 128.951 103.42C129.418 103.113 129.651 102.687 129.651 102.14C129.651 101.753 129.525 101.453 129.271 101.24C129.018 101.013 128.698 100.847 128.311 100.74C127.925 100.62 127.411 100.507 126.771 100.4C125.918 100.24 125.231 100.08 124.711 99.92C124.191 99.7467 123.745 99.46 123.371 99.06C123.011 98.66 122.831 98.1067 122.831 97.4C122.831 96.52 123.198 95.8 123.931 95.24C124.665 94.68 125.685 94.4 126.991 94.4C127.671 94.4 128.351 94.4933 129.031 94.68C129.711 94.8533 130.271 95.0867 130.711 95.38L130.091 96.52C129.225 95.92 128.191 95.62 126.991 95.62C126.085 95.62 125.398 95.78 124.931 96.1C124.478 96.42 124.251 96.84 124.251 97.36C124.251 97.76 124.378 98.08 124.631 98.32C124.898 98.56 125.225 98.74 125.611 98.86C125.998 98.9667 126.531 99.08 127.211 99.2C128.051 99.36 128.725 99.52 129.231 99.68C129.738 99.84 130.171 100.113 130.531 100.5C130.891 100.887 131.071 101.42 131.071 102.1C131.071 103.02 130.685 103.753 129.911 104.3C129.151 104.833 128.091 105.1 126.731 105.1ZM141.131 94.48H142.551V105H141.131V94.48ZM141.851 92.18C141.557 92.18 141.311 92.08 141.111 91.88C140.911 91.68 140.811 91.44 140.811 91.16C140.811 90.8933 140.911 90.66 141.111 90.46C141.311 90.26 141.557 90.16 141.851 90.16C142.144 90.16 142.391 90.26 142.591 90.46C142.791 90.6467 142.891 90.8733 142.891 91.14C142.891 91.4333 142.791 91.68 142.591 91.88C142.391 92.08 142.144 92.18 141.851 92.18ZM152.962 94.4C154.282 94.4 155.329 94.7867 156.102 95.56C156.889 96.32 157.282 97.4333 157.282 98.9V105H155.862V99.04C155.862 97.9467 155.589 97.1133 155.042 96.54C154.495 95.9667 153.715 95.68 152.702 95.68C151.569 95.68 150.669 96.02 150.002 96.7C149.349 97.3667 149.022 98.2933 149.022 99.48V105H147.602V94.48H148.962V96.42C149.349 95.78 149.882 95.2867 150.562 94.94C151.255 94.58 152.055 94.4 152.962 94.4ZM167.011 108.98C166.571 108.98 166.158 108.92 165.771 108.8C165.371 108.693 165.045 108.527 164.791 108.3L165.291 107.22C165.705 107.58 166.251 107.76 166.931 107.76C167.491 107.76 167.918 107.593 168.211 107.26C168.518 106.927 168.671 106.433 168.671 105.78V94.48H170.091V105.78C170.091 106.767 169.825 107.547 169.291 108.12C168.758 108.693 167.998 108.98 167.011 108.98ZM169.391 92.16C169.098 92.16 168.851 92.06 168.651 91.86C168.451 91.66 168.351 91.42 168.351 91.14C168.351 90.8733 168.451 90.64 168.651 90.44C168.851 90.24 169.098 90.14 169.391 90.14C169.685 90.14 169.931 90.24 170.131 90.44C170.331 90.6267 170.431 90.8533 170.431 91.12C170.431 91.4133 170.331 91.66 170.131 91.86C169.931 92.06 169.685 92.16 169.391 92.16ZM184.64 94.48V105H183.28V103.08C182.906 103.72 182.393 104.22 181.74 104.58C181.086 104.927 180.34 105.1 179.5 105.1C178.126 105.1 177.04 104.72 176.24 103.96C175.453 103.187 175.06 102.06 175.06 100.58V94.48H176.48V100.44C176.48 101.547 176.753 102.387 177.3 102.96C177.846 103.533 178.626 103.82 179.64 103.82C180.746 103.82 181.62 103.487 182.26 102.82C182.9 102.14 183.22 101.2 183.22 100V94.48H184.64ZM192.537 105.1C191.683 105.1 190.863 104.98 190.077 104.74C189.303 104.487 188.697 104.173 188.257 103.8L188.897 102.68C189.337 103.027 189.89 103.313 190.557 103.54C191.223 103.753 191.917 103.86 192.637 103.86C193.597 103.86 194.303 103.713 194.757 103.42C195.223 103.113 195.457 102.687 195.457 102.14C195.457 101.753 195.33 101.453 195.077 101.24C194.823 101.013 194.503 100.847 194.117 100.74C193.73 100.62 193.217 100.507 192.577 100.4C191.723 100.24 191.037 100.08 190.517 99.92C189.997 99.7467 189.55 99.46 189.177 99.06C188.817 98.66 188.637 98.1067 188.637 97.4C188.637 96.52 189.003 95.8 189.737 95.24C190.47 94.68 191.49 94.4 192.797 94.4C193.477 94.4 194.157 94.4933 194.837 94.68C195.517 94.8533 196.077 95.0867 196.517 95.38L195.897 96.52C195.03 95.92 193.997 95.62 192.797 95.62C191.89 95.62 191.203 95.78 190.737 96.1C190.283 96.42 190.057 96.84 190.057 97.36C190.057 97.76 190.183 98.08 190.437 98.32C190.703 98.56 191.03 98.74 191.417 98.86C191.803 98.9667 192.337 99.08 193.017 99.2C193.857 99.36 194.53 99.52 195.037 99.68C195.543 99.84 195.977 100.113 196.337 100.5C196.697 100.887 196.877 101.42 196.877 102.1C196.877 103.02 196.49 103.753 195.717 104.3C194.957 104.833 193.897 105.1 192.537 105.1ZM206.142 104.36C205.875 104.6 205.542 104.787 205.142 104.92C204.755 105.04 204.349 105.1 203.922 105.1C202.935 105.1 202.175 104.833 201.642 104.3C201.109 103.767 200.842 103.013 200.842 102.04V95.68H198.962V94.48H200.842V92.18H202.262V94.48H205.462V95.68H202.262V101.96C202.262 102.587 202.415 103.067 202.722 103.4C203.042 103.72 203.495 103.88 204.082 103.88C204.375 103.88 204.655 103.833 204.922 103.74C205.202 103.647 205.442 103.513 205.642 103.34L206.142 104.36ZM220.461 105.1C219.448 105.1 218.535 104.873 217.721 104.42C216.908 103.953 216.268 103.313 215.801 102.5C215.335 101.687 215.101 100.767 215.101 99.74C215.101 98.7133 215.335 97.7933 215.801 96.98C216.268 96.1667 216.908 95.5333 217.721 95.08C218.535 94.6267 219.448 94.4 220.461 94.4C221.475 94.4 222.388 94.6267 223.201 95.08C224.015 95.5333 224.648 96.1667 225.101 96.98C225.568 97.7933 225.801 98.7133 225.801 99.74C225.801 100.767 225.568 101.687 225.101 102.5C224.648 103.313 224.015 103.953 223.201 104.42C222.388 104.873 221.475 105.1 220.461 105.1ZM220.461 103.84C221.208 103.84 221.875 103.673 222.461 103.34C223.061 102.993 223.528 102.507 223.861 101.88C224.195 101.253 224.361 100.54 224.361 99.74C224.361 98.94 224.195 98.2267 223.861 97.6C223.528 96.9733 223.061 96.4933 222.461 96.16C221.875 95.8133 221.208 95.64 220.461 95.64C219.715 95.64 219.041 95.8133 218.441 96.16C217.855 96.4933 217.388 96.9733 217.041 97.6C216.708 98.2267 216.541 98.94 216.541 99.74C216.541 100.54 216.708 101.253 217.041 101.88C217.388 102.507 217.855 102.993 218.441 103.34C219.041 103.673 219.715 103.84 220.461 103.84ZM235.16 94.4C236.48 94.4 237.527 94.7867 238.3 95.56C239.087 96.32 239.48 97.4333 239.48 98.9V105H238.06V99.04C238.06 97.9467 237.787 97.1133 237.24 96.54C236.694 95.9667 235.914 95.68 234.9 95.68C233.767 95.68 232.867 96.02 232.2 96.7C231.547 97.3667 231.22 98.2933 231.22 99.48V105H229.8V94.48H231.16V96.42C231.547 95.78 232.08 95.2867 232.76 94.94C233.454 94.58 234.254 94.4 235.16 94.4ZM253.635 100.18H244.835C244.915 101.273 245.335 102.16 246.095 102.84C246.855 103.507 247.815 103.84 248.975 103.84C249.628 103.84 250.228 103.727 250.775 103.5C251.321 103.26 251.795 102.913 252.195 102.46L252.995 103.38C252.528 103.94 251.941 104.367 251.235 104.66C250.541 104.953 249.775 105.1 248.935 105.1C247.855 105.1 246.895 104.873 246.055 104.42C245.228 103.953 244.581 103.313 244.115 102.5C243.648 101.687 243.415 100.767 243.415 99.74C243.415 98.7133 243.635 97.7933 244.075 96.98C244.528 96.1667 245.141 95.5333 245.915 95.08C246.701 94.6267 247.581 94.4 248.555 94.4C249.528 94.4 250.401 94.6267 251.175 95.08C251.948 95.5333 252.555 96.1667 252.995 96.98C253.435 97.78 253.655 98.7 253.655 99.74L253.635 100.18ZM248.555 95.62C247.541 95.62 246.688 95.9467 245.995 96.6C245.315 97.24 244.928 98.08 244.835 99.12H252.295C252.201 98.08 251.808 97.24 251.115 96.6C250.435 95.9467 249.581 95.62 248.555 95.62ZM269.399 94.4C270.386 94.4 271.279 94.6267 272.079 95.08C272.879 95.52 273.506 96.1467 273.959 96.96C274.413 97.7733 274.639 98.7 274.639 99.74C274.639 100.793 274.413 101.727 273.959 102.54C273.506 103.353 272.879 103.987 272.079 104.44C271.293 104.88 270.399 105.1 269.399 105.1C268.546 105.1 267.773 104.927 267.079 104.58C266.399 104.22 265.839 103.7 265.399 103.02V108.88H263.979V94.48H265.339V96.56C265.766 95.8667 266.326 95.3333 267.019 94.96C267.726 94.5867 268.519 94.4 269.399 94.4ZM269.299 103.84C270.033 103.84 270.699 103.673 271.299 103.34C271.899 102.993 272.366 102.507 272.699 101.88C273.046 101.253 273.219 100.54 273.219 99.74C273.219 98.94 273.046 98.2333 272.699 97.62C272.366 96.9933 271.899 96.5067 271.299 96.16C270.699 95.8133 270.033 95.64 269.299 95.64C268.553 95.64 267.879 95.8133 267.279 96.16C266.693 96.5067 266.226 96.9933 265.879 97.62C265.546 98.2333 265.379 98.94 265.379 99.74C265.379 100.54 265.546 101.253 265.879 101.88C266.226 102.507 266.693 102.993 267.279 103.34C267.879 103.673 268.553 103.84 269.299 103.84ZM278.634 90.16H280.054V105H278.634V90.16ZM288.785 94.4C290.158 94.4 291.212 94.7467 291.945 95.44C292.678 96.12 293.045 97.1333 293.045 98.48V105H291.685V103.36C291.365 103.907 290.892 104.333 290.265 104.64C289.652 104.947 288.918 105.1 288.065 105.1C286.892 105.1 285.958 104.82 285.265 104.26C284.572 103.7 284.225 102.96 284.225 102.04C284.225 101.147 284.545 100.427 285.185 99.88C285.838 99.3333 286.872 99.06 288.285 99.06H291.625V98.42C291.625 97.5133 291.372 96.8267 290.865 96.36C290.358 95.88 289.618 95.64 288.645 95.64C287.978 95.64 287.338 95.7533 286.725 95.98C286.112 96.1933 285.585 96.4933 285.145 96.88L284.505 95.82C285.038 95.3667 285.678 95.02 286.425 94.78C287.172 94.5267 287.958 94.4 288.785 94.4ZM288.285 103.98C289.085 103.98 289.772 103.8 290.345 103.44C290.918 103.067 291.345 102.533 291.625 101.84V100.12H288.325C286.525 100.12 285.625 100.747 285.625 102C285.625 102.613 285.858 103.1 286.325 103.46C286.792 103.807 287.445 103.98 288.285 103.98ZM302.401 105.1C301.361 105.1 300.428 104.873 299.601 104.42C298.788 103.967 298.148 103.333 297.681 102.52C297.214 101.693 296.981 100.767 296.981 99.74C296.981 98.7133 297.214 97.7933 297.681 96.98C298.148 96.1667 298.788 95.5333 299.601 95.08C300.428 94.6267 301.361 94.4 302.401 94.4C303.308 94.4 304.114 94.58 304.821 94.94C305.541 95.2867 306.108 95.8 306.521 96.48L305.461 97.2C305.114 96.68 304.674 96.2933 304.141 96.04C303.608 95.7733 303.028 95.64 302.401 95.64C301.641 95.64 300.954 95.8133 300.341 96.16C299.741 96.4933 299.268 96.9733 298.921 97.6C298.588 98.2267 298.421 98.94 298.421 99.74C298.421 100.553 298.588 101.273 298.921 101.9C299.268 102.513 299.741 102.993 300.341 103.34C300.954 103.673 301.641 103.84 302.401 103.84C303.028 103.84 303.608 103.713 304.141 103.46C304.674 103.207 305.114 102.82 305.461 102.3L306.521 103.02C306.108 103.7 305.541 104.22 304.821 104.58C304.101 104.927 303.294 105.1 302.401 105.1ZM319.395 100.18H310.595C310.675 101.273 311.095 102.16 311.855 102.84C312.615 103.507 313.575 103.84 314.735 103.84C315.388 103.84 315.988 103.727 316.535 103.5C317.081 103.26 317.555 102.913 317.955 102.46L318.755 103.38C318.288 103.94 317.701 104.367 316.995 104.66C316.301 104.953 315.535 105.1 314.695 105.1C313.615 105.1 312.655 104.873 311.815 104.42C310.988 103.953 310.341 103.313 309.875 102.5C309.408 101.687 309.175 100.767 309.175 99.74C309.175 98.7133 309.395 97.7933 309.835 96.98C310.288 96.1667 310.901 95.5333 311.675 95.08C312.461 94.6267 313.341 94.4 314.315 94.4C315.288 94.4 316.161 94.6267 316.935 95.08C317.708 95.5333 318.315 96.1667 318.755 96.98C319.195 97.78 319.415 98.7 319.415 99.74L319.395 100.18ZM314.315 95.62C313.301 95.62 312.448 95.9467 311.755 96.6C311.075 97.24 310.688 98.08 310.595 99.12H318.055C317.961 98.08 317.568 97.24 316.875 96.6C316.195 95.9467 315.341 95.62 314.315 95.62Z" fill="#55AB60"/>
</svg>
