<svg width="271" height="123" viewBox="0 0 271 123" fill="none" xmlns="http://www.w3.org/2000/svg">
<path d="M243 77.7505H27V77.8095H243V77.7505Z" fill="#EBEBEB" stroke="#D9D9D9"/>
<path d="M44.3972 79.9824H39.3887V80.0414H44.3972V79.9824Z" fill="#EBEBEB" stroke="#D9D9D9"/>
<path d="M127.861 79.3467H107.795V79.4057H127.861V79.3467Z" fill="#EBEBEB" stroke="#D9D9D9"/>
<path d="M51.9813 82.1599H42.9814V82.2189H51.9813V82.1599Z" fill="#EBEBEB" stroke="#D9D9D9"/>
<path d="M231.169 81.7661H220.969V81.8251H231.169V81.7661Z" fill="#EBEBEB" stroke="#D9D9D9"/>
<path d="M200.823 81.7661H197.996V81.8251H200.823V81.7661Z" fill="#EBEBEB" stroke="#D9D9D9"/>
<path d="M186.005 80.7771H180.574V80.8361H186.005V80.7771Z" fill="#EBEBEB" stroke="#D9D9D9"/>
<path d="M168.856 80.7771H157.417V80.8361H168.856V80.7771Z" fill="#EBEBEB" stroke="#D9D9D9"/>
<path d="M82.9694 67.2959H37.3696C37.0125 67.2954 36.6701 67.1542 36.4177 66.9033C36.1653 66.6524 36.0236 66.3123 36.0236 65.9577V2.32729C36.0265 1.97461 36.1695 1.63733 36.4216 1.38878C36.6736 1.14023 37.0143 1.00051 37.3696 1H82.9694C83.1464 1 83.3217 1.03461 83.4853 1.10187C83.6488 1.16912 83.7974 1.26768 83.9226 1.39195C84.0478 1.51621 84.1471 1.66373 84.2149 1.82609C84.2826 1.98845 84.3175 2.16246 84.3175 2.3382V65.9567C84.3176 66.1325 84.2828 66.3066 84.2151 66.4691C84.1475 66.6316 84.0482 66.7792 83.923 66.9036C83.7978 67.028 83.6491 67.1266 83.4855 67.1939C83.3219 67.2613 83.1465 67.2959 82.9694 67.2959ZM37.3696 1.04662C37.0281 1.04715 36.7007 1.1822 36.4594 1.42213C36.2181 1.66206 36.0825 1.98725 36.0825 2.3263V65.9567C36.0825 66.2958 36.2181 66.6209 36.4594 66.8609C36.7007 67.1008 37.0281 67.2359 37.3696 67.2364H82.9694C83.3111 67.2356 83.6385 67.1005 83.8801 66.8607C84.1216 66.6209 84.2577 66.2959 84.2585 65.9567V2.32729C84.2577 1.98814 84.1216 1.66311 83.8801 1.42329C83.6385 1.18348 83.3111 1.0484 82.9694 1.04762L37.3696 1.04662Z" fill="#EBEBEB" stroke="#D9D9D9"/>
<path d="M231.974 67.2959H186.372C186.014 67.2951 185.672 67.1539 185.419 66.9031C185.167 66.6523 185.024 66.3124 185.024 65.9577V2.32729C185.027 1.97451 185.171 1.63738 185.423 1.38894C185.675 1.1405 186.016 1.00076 186.372 1H231.973C232.328 1.00103 232.669 1.14098 232.92 1.38948C233.172 1.63797 233.315 1.97496 233.317 2.32729V65.9577C233.317 66.3118 233.176 66.6514 232.924 66.9022C232.673 67.153 232.331 67.2946 231.974 67.2959ZM186.372 1.04662C186.03 1.04741 185.703 1.18249 185.461 1.4223C185.219 1.66212 185.083 1.98715 185.083 2.3263V65.9567C185.083 66.2959 185.219 66.6209 185.461 66.8607C185.703 67.1005 186.03 67.2356 186.372 67.2364H231.973C232.315 67.2356 232.642 67.1005 232.884 66.8607C233.126 66.6209 233.262 66.2959 233.263 65.9567V2.32729C233.262 1.98814 233.126 1.66311 232.884 1.42329C232.642 1.18348 232.315 1.0484 231.973 1.04762L186.372 1.04662Z" fill="#EBEBEB" stroke="#D9D9D9"/>
<path d="M39.6622 77.7505H47.6348L47.6348 44.7012H39.6622L39.6622 77.7505Z" fill="#E6E6E6" stroke="#D9D9D9"/>
<path d="M40.9872 77.7506H39.6602V74.7747H42.3783L40.9872 77.7506Z" fill="#F0F0F0" stroke="#D9D9D9"/>
<path d="M150.677 77.7505H158.65V44.7012H150.677V77.7505Z" fill="#E6E6E6" stroke="#D9D9D9"/>
<path d="M39.6626 76.6086H93.6177V44.7012L39.6626 44.7012L39.6626 76.6086Z" fill="#F0F0F0" stroke="#D9D9D9"/>
<path d="M40.6919 54.8662L218.97 54.8662V46.1148L40.6919 46.1148V54.8662Z" fill="#E6E6E6" stroke="#D9D9D9"/>
<path d="M40.6924 47.3083L92.5879 47.3083V46.118L40.6924 46.118V47.3083Z" fill="#E0E0E0" stroke="#D9D9D9"/>
<path d="M146.529 77.7506H147.856V74.7747H145.136L146.529 77.7506Z" fill="#F0F0F0" stroke="#D9D9D9"/>
<path opacity="0.22" d="M40.6919 65.0313L218.97 65.0312V56.2799L40.6919 56.2799V65.0313Z" fill="#E6E6E6" stroke="#D9D9D9"/>
<path d="M40.6924 57.4731L92.5879 57.4731V56.2828L40.6924 56.2828V57.4731Z" fill="#E0E0E0" stroke="#D9D9D9"/>
<path opacity="0.22" d="M40.6919 75.1931L218.97 75.1931V66.4418L40.6919 66.4418V75.1931Z" fill="#E6E6E6" stroke="#D9D9D9"/>
<path d="M40.6924 67.6353H92.5879V66.4449H40.6924V67.6353Z" fill="#E0E0E0" stroke="#D9D9D9"/>
<path d="M209.47 77.7506H227.958L229.598 20.1099H211.111L209.47 77.7506Z" fill="#E6E6E6" stroke="#D9D9D9"/>
<path d="M208.907 77.7506H227.394L229.035 20.1099H210.548L208.907 77.7506Z" fill="#F0F0F0" stroke="#D9D9D9"/>
<path d="M226.285 76.1117L227.832 21.7505H211.655L210.108 76.1117H226.285Z" fill="#FAFAFA" stroke="#D9D9D9"/>
<path d="M75.1483 35.7297L128.468 35.7297V6.21099L75.1483 6.21099V35.7297Z" fill="#F0F0F0" stroke="#D9D9D9"/>
<path d="M44.2496 35.7297L212.634 35.7297V6.21099L44.2496 6.21099V35.7297Z" fill="#F5F5F5" stroke="#D9D9D9"/>
<path opacity="0.22" d="M205.116 33.2734V8.66309L75.1768 8.66309V33.2734L205.116 33.2734Z" fill="white" stroke="#D9D9D9"/>
<path d="M46.8114 43.38C47.8263 43.38 48.6491 42.5632 48.6491 41.5557C48.6491 40.5482 47.8263 39.7314 46.8114 39.7314C45.7964 39.7314 44.9736 40.5482 44.9736 41.5557C44.9736 42.5632 45.7964 43.38 46.8114 43.38Z" fill="#F0F0F0" stroke="#D9D9D9"/>
<path d="M69.2821 42.8116C69.5152 41.8311 68.9034 40.8485 67.9156 40.6171C66.9278 40.3857 65.938 40.993 65.7049 41.9735C65.4717 42.9541 66.0835 43.9366 67.0713 44.1681C68.0591 44.3995 69.0489 43.7922 69.2821 42.8116Z" fill="#E6E6E6" stroke="#D9D9D9"/>
<path d="M74.0682 41.5497C74.3013 40.5691 73.6896 39.5866 72.7017 39.3551C71.7139 39.1237 70.7241 39.731 70.491 40.7116C70.2578 41.6921 70.8696 42.6747 71.8574 42.9061C72.8453 43.1376 73.835 42.5303 74.0682 41.5497Z" fill="#F0F0F0" stroke="#D9D9D9"/>
<path d="M55.4646 42.2351C55.4646 42.2351 55.3038 44.7012 49.088 44.7012C42.8723 44.7012 42.7134 42.2351 42.7134 42.2351H55.4646Z" fill="#E6E6E6" stroke="#D9D9D9"/>
<path d="M86.0391 88.3372C111.327 88.3372 131.828 87.1491 131.828 85.6836C131.828 84.2181 111.327 83.03 86.0391 83.03C60.7508 83.03 40.2505 84.2181 40.2505 85.6836C40.2505 87.1491 60.7508 88.3372 86.0391 88.3372Z" fill="#F5F5F5"/>
<path d="M115.432 88.9987H90.7959C90.3885 89.0007 89.985 88.9205 89.6098 88.7629C89.2346 88.6054 88.8956 88.3738 88.6133 88.0822C88.3311 87.7906 88.1115 87.4451 87.9679 87.0667C87.8243 86.6883 87.7596 86.2848 87.7779 85.8808L90.526 15.4553C90.568 14.6211 90.9287 13.8342 91.5347 13.2549C92.1408 12.6756 92.9465 12.3475 93.7878 12.3374H118.424C118.831 12.3358 119.235 12.4163 119.61 12.574C119.985 12.7317 120.323 12.9633 120.606 13.2548C120.888 13.5463 121.107 13.8916 121.251 14.2699C121.395 14.6481 121.46 15.0514 121.442 15.4553L118.693 85.8818C118.651 86.7156 118.29 87.5021 117.684 88.0812C117.078 88.6603 116.273 88.9884 115.432 88.9987Z" fill="#263238"/>
<path d="M88.0336 19.6158H87.7977L87.9626 15.4316C88.0121 14.3858 88.463 13.3985 89.2226 12.6722C89.9823 11.9459 90.9932 11.5359 92.0478 11.5261V11.7642C91.0546 11.7752 90.103 12.1622 89.3876 12.8462C88.6721 13.5302 88.2468 14.4596 88.1985 15.4445L88.0336 19.6158Z" fill="#55AB60"/>
<path d="M95.7291 11.5171H93.7214V11.7512H95.7291V11.5171Z" fill="#55AB60"/>
<path d="M113.691 88.9987H89.0547C88.6473 89.0007 88.2438 88.9205 87.8686 88.763C87.4934 88.6054 87.1544 88.3738 86.8721 88.0822C86.5899 87.7906 86.3703 87.4451 86.2267 87.0667C86.0831 86.6883 86.0184 86.2848 86.0367 85.8808L88.7858 15.4543C88.8277 14.6201 89.1885 13.8332 89.7945 13.2539C90.4006 12.6746 91.2063 12.3465 92.0476 12.3364H116.684C117.091 12.3349 117.494 12.4153 117.869 12.573C118.244 12.7307 118.583 12.9623 118.865 13.2538C119.147 13.5453 119.367 13.8907 119.511 14.2689C119.655 14.6471 119.719 15.0504 119.702 15.4543L116.953 85.8808C116.911 86.715 116.55 87.5019 115.944 88.0812C115.338 88.6605 114.532 88.9886 113.691 88.9987Z" fill="#55AB60"/>
<path opacity="0.8" d="M114.476 80.898H88.9044C88.6766 80.8996 88.4508 80.8551 88.2408 80.7673C88.0309 80.6794 87.8411 80.5501 87.6831 80.3871C87.5251 80.2242 87.4021 80.031 87.3218 79.8193C87.2414 79.6077 87.2053 79.382 87.2156 79.1561L89.601 18.0552C89.6239 17.5883 89.8257 17.1476 90.165 16.8234C90.5044 16.4993 90.9558 16.3161 91.4267 16.3113H116.995C117.223 16.3101 117.449 16.355 117.659 16.4431C117.869 16.5312 118.058 16.6607 118.216 16.8238C118.374 16.9869 118.497 17.1801 118.578 17.3918C118.658 17.6035 118.694 17.8292 118.684 18.0552L116.299 79.1561C116.276 79.6223 116.074 80.0623 115.736 80.3861C115.397 80.7099 114.946 80.893 114.476 80.898Z" fill="white"/>
<path opacity="0.4" d="M103.618 80.8982H97.2417L107.994 16.3115H114.371L103.618 80.8982Z" fill="white"/>
<path opacity="0.4" d="M96.1204 80.8982H92.9326L103.687 16.3115H106.875L96.1204 80.8982Z" fill="white"/>
<path d="M107.721 62.0115H95.1482C94.5676 62.0115 94.1069 61.3806 94.0809 60.5513L93.7242 48.9638C93.6962 48.0095 94.2488 47.1782 94.9163 47.1782H109.086C109.754 47.1782 110.243 48.0055 110.141 48.9638L108.899 60.5513C108.81 61.3816 108.299 62.0115 107.721 62.0115Z" fill="#55AB60"/>
<path d="M107.72 62.4541H95.1476C94.3191 62.4541 93.6716 61.6406 93.6386 60.5693L93.2819 48.9818C93.2466 48.327 93.4741 47.685 93.9144 47.1962C94.0418 47.0582 94.196 46.9471 94.3677 46.8697C94.5395 46.7923 94.7252 46.7502 94.9138 46.7458H109.083C109.271 46.7504 109.456 46.7946 109.626 46.8755C109.796 46.9564 109.946 47.0721 110.067 47.2151C110.272 47.4658 110.423 47.7555 110.511 48.0664C110.598 48.3772 110.621 48.7026 110.577 49.0225L109.335 60.6099C109.334 61.0586 109.17 61.4919 108.873 61.8305C108.577 62.1691 108.167 62.3905 107.72 62.4541ZM94.9157 47.6218C94.8455 47.6273 94.777 47.6465 94.7143 47.6784C94.6515 47.7102 94.5957 47.754 94.55 47.8073C94.2776 48.1248 94.1397 48.5348 94.1652 48.9511L94.522 60.5385C94.539 61.1109 94.8218 61.5752 95.1476 61.5752H107.721C108.021 61.5752 108.392 61.1466 108.46 60.5058L109.703 48.9183C109.732 48.7212 109.722 48.5202 109.673 48.3271C109.623 48.134 109.536 47.9525 109.415 47.7934C109.376 47.7427 109.327 47.701 109.27 47.6714C109.214 47.6417 109.151 47.6248 109.087 47.6218H94.9157Z" fill="#55AB60"/>
<path d="M108.899 60.9909H108.852C108.795 60.9847 108.739 60.9673 108.688 60.9397C108.637 60.912 108.592 60.8747 108.556 60.8299C108.519 60.785 108.492 60.7335 108.476 60.6782C108.46 60.6229 108.454 60.565 108.461 60.5078L109.828 47.7726C110.041 45.7826 111.304 44.2817 112.766 44.2817H113.72C113.778 44.2817 113.835 44.2931 113.889 44.3151C113.943 44.3371 113.991 44.3694 114.032 44.4102C114.073 44.4509 114.106 44.4992 114.128 44.5524C114.15 44.6056 114.162 44.6626 114.162 44.7202C114.162 44.7778 114.15 44.8348 114.128 44.888C114.106 44.9412 114.073 44.9895 114.032 45.0302C113.991 45.0709 113.943 45.1033 113.889 45.1253C113.835 45.1473 113.778 45.1587 113.72 45.1587H112.776C111.783 45.1587 110.886 46.349 110.716 47.8658L109.351 60.602C109.339 60.7114 109.286 60.8123 109.202 60.8844C109.118 60.9565 109.01 60.9945 108.899 60.9909Z" fill="#55AB60"/>
<path d="M97.7338 66.3238C97.4884 66.3193 97.2466 66.2649 97.0232 66.164C96.7997 66.0632 96.5995 65.9181 96.4347 65.7376C95.8156 65.0157 95.5069 64.0812 95.5753 63.1356C95.6442 61.3847 96.7135 59.9612 97.9626 59.9612C98.2081 59.9651 98.4502 60.0192 98.6737 60.1201C98.8972 60.2209 99.0974 60.3664 99.2617 60.5475C99.8809 61.2694 100.19 62.2038 100.121 63.1495C100.052 64.9003 98.9829 66.3238 97.7338 66.3238ZM97.9696 60.3441C96.9253 60.3441 96.0259 61.6029 95.971 63.1574C95.9354 63.5749 95.9838 63.9952 96.1131 64.394C96.2424 64.7928 96.4502 65.1621 96.7245 65.4806C96.8535 65.6241 97.0108 65.7397 97.1866 65.8204C97.3625 65.9011 97.5531 65.9452 97.7468 65.9499C98.7901 65.9499 99.6904 64.691 99.7454 63.1366C99.7809 62.7191 99.7326 62.2987 99.6033 61.8999C99.474 61.5011 99.2662 61.1318 98.9919 60.8133C98.8617 60.6687 98.7028 60.5523 98.5252 60.4716C98.3475 60.3908 98.155 60.3474 97.9596 60.3441H97.9696Z" fill="#55AB60"/>
<path d="M104.603 66.3238C104.358 66.3197 104.116 66.2655 103.892 66.1646C103.669 66.0638 103.468 65.9184 103.304 65.7376C102.683 65.0168 102.374 64.0815 102.445 63.1356C102.51 61.3847 103.583 59.9612 104.832 59.9612C105.077 59.9648 105.32 60.0188 105.543 60.1197C105.767 60.2205 105.967 60.3662 106.131 60.5475C106.752 61.2682 107.061 62.2035 106.99 63.1495C106.924 64.9003 105.852 66.3238 104.603 66.3238ZM104.839 60.3441C103.793 60.3441 102.895 61.6029 102.84 63.1574C102.805 63.5746 102.853 63.9947 102.982 64.3935C103.11 64.7922 103.317 65.1617 103.591 65.4806C103.72 65.6241 103.877 65.7397 104.053 65.8204C104.229 65.9011 104.419 65.9452 104.613 65.9499C105.659 65.9499 106.557 64.691 106.612 63.1366C106.647 62.7193 106.599 62.2992 106.47 61.9005C106.341 61.5018 106.134 61.1323 105.861 60.8133C105.731 60.669 105.573 60.5529 105.396 60.4722C105.219 60.3914 105.027 60.3479 104.832 60.3441H104.839Z" fill="#55AB60"/>
<path d="M107.474 35.7883C107.771 31.7053 105.715 28.2303 102.881 28.0267C100.046 27.823 97.5072 30.9678 97.2095 35.0508C96.9118 39.1337 98.9681 42.6087 101.802 42.8124C104.637 43.016 107.176 39.8712 107.474 35.7883Z" fill="#55AB60"/>
<path d="M102.063 43.2659C101.459 43.2567 100.863 43.1239 100.313 42.8759C99.7624 42.6279 99.2697 42.27 98.865 41.8245C97.3392 40.0436 96.5763 37.7406 96.7395 35.4083C96.9043 31.0922 99.5375 27.5835 102.615 27.5835C103.219 27.5925 103.815 27.7249 104.365 27.9726C104.916 28.2202 105.408 28.5777 105.813 29.0229C107.34 30.8041 108.103 33.1081 107.939 35.4411C107.773 39.7543 105.138 43.2659 102.063 43.2659ZM102.617 28.4624C100.019 28.4624 97.7717 31.5941 97.6208 35.444C97.4567 37.5402 98.131 39.6161 99.4976 41.2224C99.8202 41.5808 100.213 41.8698 100.653 42.0714C101.092 42.2731 101.569 42.3832 102.053 42.3949C104.651 42.3949 106.899 39.2632 107.049 35.4133C107.215 33.3186 106.543 31.2435 105.179 29.6369C104.856 29.2772 104.462 28.9873 104.021 28.7851C103.58 28.5829 103.103 28.4727 102.617 28.4614V28.4624Z" fill="white"/>
<path d="M98.8389 35.2606C100.054 36.4774 100.993 37.9387 101.592 39.546C102.507 36.8359 103.911 34.3133 105.734 32.1011C104.024 33.1909 102.624 34.6978 101.668 36.4778C100.847 35.8349 99.8724 35.4154 98.8389 35.2606Z" fill="white"/>
<path d="M101.463 86.8165C101.255 86.8148 101.049 86.7704 100.859 86.6861C100.669 86.6018 100.498 86.4793 100.358 86.3264C100.134 86.0775 99.9625 85.7867 99.8534 85.471C99.7442 85.1554 99.6998 84.8212 99.7226 84.4882C99.6914 83.9341 99.8705 83.3885 100.225 82.959C100.579 82.5295 101.082 82.2472 101.635 82.168C101.844 82.1708 102.05 82.2163 102.24 82.3017C102.43 82.387 102.601 82.5104 102.741 82.664C102.963 82.9117 103.134 83.2009 103.242 83.5149C103.351 83.8288 103.395 84.161 103.373 84.4922C103.406 85.0467 103.228 85.5933 102.875 86.0237C102.521 86.4542 102.017 86.7371 101.463 86.8165ZM101.635 82.416C101.147 82.495 100.707 82.7528 100.401 83.1384C100.095 83.5241 99.9455 84.0096 99.9824 84.4992C99.9606 84.7984 99.9994 85.0989 100.096 85.3831C100.193 85.6672 100.347 85.9293 100.547 86.1538C100.664 86.2825 100.807 86.3857 100.966 86.4571C101.125 86.5284 101.298 86.5663 101.472 86.5685C101.961 86.4896 102.401 86.2319 102.707 85.8462C103.013 85.4605 103.162 84.9749 103.125 84.4853C103.147 84.1856 103.109 83.8845 103.012 83.5999C102.915 83.3152 102.761 83.0527 102.561 82.8277C102.443 82.6997 102.3 82.5972 102.141 82.5265C101.982 82.4559 101.81 82.4186 101.635 82.417V82.416Z" fill="white"/>
<path d="M104.256 15.2449C104.16 15.2425 104.065 15.2204 103.977 15.1802C103.89 15.1399 103.811 15.0823 103.747 15.0108C103.648 14.9007 103.572 14.772 103.524 14.6323C103.475 14.4926 103.456 14.3447 103.466 14.1974C103.454 13.95 103.537 13.7073 103.696 13.5169C103.856 13.3266 104.081 13.2024 104.328 13.1687C104.425 13.1712 104.52 13.1932 104.608 13.2335C104.695 13.2738 104.774 13.3314 104.838 13.4028C104.938 13.5126 105.014 13.6412 105.063 13.7809C105.112 13.9207 105.132 14.0687 105.122 14.2162C105.133 14.4641 105.051 14.7072 104.891 14.8976C104.73 15.088 104.504 15.212 104.256 15.2449ZM104.327 13.4256C104.007 13.4256 103.728 13.7798 103.714 14.2192C103.699 14.4491 103.775 14.6757 103.927 14.8501C103.968 14.8964 104.019 14.9336 104.076 14.9594C104.133 14.9851 104.195 14.9989 104.257 14.9999C104.578 14.9999 104.857 14.6458 104.871 14.2063C104.887 13.9757 104.811 13.748 104.658 13.5734C104.616 13.5276 104.565 13.4909 104.508 13.4654C104.451 13.44 104.39 13.4265 104.327 13.4256Z" fill="white"/>
<path d="M75.3538 20.5493C72.6497 20.1902 71.1877 21.8171 71.9562 24.7692C72.6807 27.5468 71.2786 27.1788 71.0118 29.8115C70.745 32.4443 72.9315 32.5524 73.643 34.7021C74.3545 36.8517 78.2808 39.294 79.8158 38.1929C81.3507 37.0918 84.3977 37.3448 84.6755 33.7061C84.9533 30.0675 82.0543 29.8711 83.0486 27.8831C84.3477 25.3039 81.4756 25.9329 81.4756 22.6464C81.4846 19.9997 77.6183 17.1309 75.3538 20.5493Z" fill="#263238"/>
<path d="M71.9514 34.5563C71.8925 35.6792 71.7885 36.7645 71.6237 37.8685C71.479 39.0101 71.2267 40.1357 70.8702 41.2304C70.7595 41.5501 70.6187 41.8586 70.4495 42.152C70.3338 42.3512 70.1916 42.534 70.0268 42.6956L69.9438 42.771L69.8988 42.8057L69.8729 42.8265L69.7729 42.895L69.5731 43.0309C69.0736 43.3491 68.5481 43.6251 68.0021 43.8562C66.9678 44.3067 65.8932 44.6597 64.7923 44.9107L64.4126 43.8721C65.345 43.3582 66.3023 42.8335 67.1757 42.2849C67.6025 42.0261 68.0127 41.7411 68.4039 41.4318L68.5318 41.3217L68.5977 41.2681V41.2562C68.5977 41.2562 68.6237 41.2116 68.6567 41.1441C68.7406 40.958 68.8107 40.766 68.8665 40.5697C69.0007 40.0926 69.1065 39.608 69.1833 39.1185C69.2733 38.6125 69.3462 38.0937 69.4082 37.5709C69.5291 36.5303 69.633 35.461 69.708 34.4224L71.9514 34.5563Z" fill="#FFB573"/>
<path d="M65.1167 43.8958L63.313 43.3423L63.6508 45.5088C64.3032 45.428 64.9144 45.1487 65.4005 44.7093L65.1167 43.8958Z" fill="#FFB573"/>
<path d="M61.831 44.737L61.9309 45.0207C61.9879 45.1818 62.0957 45.3203 62.2383 45.4157C62.3808 45.5112 62.5506 45.5584 62.7224 45.5505L63.6437 45.5078L63.306 43.3413L62.2927 43.7381C62.1007 43.8133 61.9455 43.9592 61.8594 44.1454C61.7734 44.3316 61.7632 44.5436 61.831 44.737Z" fill="#FFB573"/>
<path d="M74.0875 32.463C73.9884 33.486 73.7834 34.4963 73.476 35.4777C73.2681 36.1998 73.0932 36.7484 73.0932 36.7484L72.6795 36.6492L69.2669 35.7911C69.2129 34.0522 69.2808 32.1386 71.0237 30.9949C72.1189 30.2727 74.0736 31.2577 74.0875 32.463Z" fill="#55AB60"/>
<g opacity="0.5">
<path opacity="0.5" d="M74.0875 32.4642C73.9884 33.4873 73.7834 34.4975 73.476 35.4789C73.2681 36.2011 73.0932 36.7496 73.0932 36.7496L72.6795 36.6504L69.2669 35.7924C69.2129 34.0534 69.2808 32.1398 71.0237 30.9961C72.1189 30.2739 74.0736 31.2589 74.0875 32.4642Z" fill="black"/>
</g>
<path opacity="0.3" d="M74.0783 32.5803C73.8565 32.3462 73.3508 32.3065 72.2506 32.6527C70.6727 33.1487 70.2309 34.8629 70.21 36.0255L72.6753 36.6445L72.8881 36.698L73.088 36.7476C73.088 36.7476 73.1749 36.4738 73.2978 36.0532C73.3478 35.8816 73.4088 35.6852 73.4677 35.4739C73.7619 34.5304 73.9663 33.5616 74.0783 32.5803Z" fill="black"/>
<path d="M67.0787 86.8969L64.9961 86.1727L66.3042 81.6948L68.3848 82.422L67.0787 86.8969Z" fill="#FFB573"/>
<path d="M94.9032 81.5915L93.2103 82.8434L89.7407 79.3486L91.4336 78.0947L94.9032 81.5915Z" fill="#FFB573"/>
<path d="M92.5156 82.3347L94.3453 80.8318C94.376 80.8051 94.4154 80.7903 94.4563 80.7903C94.4971 80.7903 94.5365 80.8051 94.5672 80.8318L95.9722 82.0976C96.0067 82.1305 96.0338 82.1704 96.0516 82.2144C96.0695 82.2585 96.0776 82.3058 96.0757 82.3533C96.0737 82.4007 96.0616 82.4472 96.0401 82.4897C96.0187 82.5322 95.9884 82.5696 95.9512 82.5996C95.3047 83.1124 94.9639 83.3287 94.1615 83.9884C93.6618 84.3941 92.6315 85.3643 91.946 85.9247C91.2605 86.4852 90.6659 85.8454 90.9017 85.5498C91.6318 84.7305 92.1219 83.7284 92.3187 82.6521C92.3446 82.5266 92.4143 82.4142 92.5156 82.3347Z" fill="#263238"/>
<path d="M64.8541 85.5278L67.1685 86.487C67.2094 86.5052 67.2435 86.5359 67.2656 86.5746C67.2877 86.6133 67.2968 86.6581 67.2914 86.7023L67.0296 88.728C67.0237 88.7759 67.0066 88.8217 66.9797 88.8619C66.9527 88.9021 66.9167 88.9355 66.8745 88.9594C66.8323 88.9833 66.785 88.9971 66.7364 88.9996C66.6879 89.0021 66.6394 88.9933 66.5949 88.974C65.7754 88.6436 65.3907 88.478 64.3754 88.0574L61.2555 86.7678C60.4101 86.4166 60.592 85.495 60.9747 85.5625C62.1225 85.849 63.3257 85.8329 64.4653 85.5159C64.5915 85.4694 64.731 85.4737 64.8541 85.5278Z" fill="#263238"/>
<path opacity="0.2" d="M66.301 81.6968L65.6274 84.0032L67.6541 84.9128L68.3835 82.4209L66.301 81.6968Z" fill="black"/>
<path opacity="0.2" d="M91.4366 78.0989L89.7407 79.3488L91.5285 81.1493L93.2273 79.8954L91.4366 78.0989Z" fill="black"/>
<path d="M80.4891 43.4109L71.91 43.5329C71.1341 39.825 70.6486 36.063 70.458 32.2807C70.4569 31.9035 70.5879 31.5376 70.8288 31.2459C71.0697 30.9541 71.4053 30.7546 71.7781 30.6816C72.3028 30.5824 72.9593 30.4634 73.6079 30.3741C73.8327 30.3433 74.0585 30.3156 74.2814 30.2917C75.5774 30.18 76.8799 30.1611 78.1787 30.2352C78.3726 30.2352 78.5635 30.2521 78.7553 30.263C79.6247 30.3195 80.4412 30.4296 81.0158 30.5189C81.1215 30.5356 81.2226 30.5736 81.313 30.6305C81.4034 30.6874 81.4812 30.762 81.5415 30.8498C81.6019 30.9375 81.6435 31.0366 81.664 31.1409C81.6844 31.2452 81.6832 31.3525 81.6603 31.4564C81.4095 32.6289 81.2046 33.6576 81.0388 34.5791C80.7769 36.0443 80.611 37.2278 80.5141 38.2664C80.3675 39.9778 80.3591 41.6981 80.4891 43.4109Z" fill="#55AB60"/>
<g opacity="0.5">
<path opacity="0.5" d="M80.4891 43.4109L71.91 43.5329C71.1341 39.825 70.6486 36.063 70.458 32.2807C70.4569 31.9035 70.5879 31.5376 70.8288 31.2459C71.0697 30.9541 71.4053 30.7546 71.7781 30.6816C72.3028 30.5824 72.9593 30.4634 73.6079 30.3741C73.8327 30.3433 74.0585 30.3156 74.2814 30.2917C75.5774 30.18 76.8799 30.1611 78.1787 30.2352C78.3726 30.2352 78.5635 30.2521 78.7553 30.263C79.6247 30.3195 80.4412 30.4296 81.0158 30.5189C81.1215 30.5356 81.2226 30.5736 81.313 30.6305C81.4034 30.6874 81.4812 30.762 81.5415 30.8498C81.6019 30.9375 81.6435 31.0366 81.664 31.1409C81.6844 31.2452 81.6832 31.3525 81.6603 31.4564C81.4095 32.6289 81.2046 33.6576 81.0388 34.5791C80.7769 36.0443 80.611 37.2278 80.5141 38.2664C80.3675 39.9778 80.3591 41.6981 80.4891 43.4109Z" fill="black"/>
</g>
<path opacity="0.3" d="M80.5093 38.2742C80.0747 36.6946 80.0944 35.026 80.5663 33.457L81.0393 34.5869C80.7723 36.0521 80.6063 37.2355 80.5093 38.2742Z" fill="black"/>
<path d="M77.5336 27.6054C77.3923 28.5355 77.6229 29.4835 78.1761 30.2471C77.3079 31.2238 76.2594 32.0265 75.0873 32.612C74.7609 32.3309 74.5145 31.9696 74.3728 31.5644C74.2312 31.1591 74.1991 30.7241 74.2798 30.3027C75.6729 29.9515 75.6968 29.0299 75.2881 27.5013L76.3934 27.0559C76.495 26.9673 76.6207 26.9104 76.7547 26.8924C76.8887 26.8744 77.0251 26.896 77.1469 26.9546C77.2686 27.0131 77.3702 27.106 77.439 27.2216C77.5078 27.3372 77.5407 27.4704 77.5336 27.6044V27.6054Z" fill="#FFB573"/>
<path opacity="0.2" d="M76.3948 27.0547C76.49 26.9723 76.6061 26.9175 76.7306 26.8963C76.855 26.8751 76.983 26.8883 77.1003 26.9346C77.2177 26.9808 77.32 27.0582 77.396 27.1583C77.4719 27.2584 77.5187 27.3773 77.5311 27.5021C77.0436 28.2483 76.3312 28.8225 75.4955 29.1428C75.5303 28.5833 75.4598 28.0222 75.2876 27.4882L76.3948 27.0547Z" fill="black"/>
<path d="M79.5286 24.5322C78.7821 26.4775 78.5063 27.3147 77.1672 28.02C76.7509 28.2798 76.2705 28.4207 75.7787 28.4273C75.287 28.4339 74.803 28.3059 74.3797 28.0574C73.9564 27.8089 73.6103 27.4494 73.3793 27.0185C73.1482 26.5875 73.0412 26.1017 73.07 25.6144C73.2019 23.6989 74.4021 20.8419 76.6126 20.6544C77.0983 20.6116 77.5869 20.6928 78.0321 20.8902C78.4773 21.0876 78.8643 21.3947 79.1562 21.7823C79.4482 22.1699 79.6355 22.6253 79.7003 23.105C79.7652 23.5847 79.7053 24.0729 79.5266 24.5232L79.5286 24.5322Z" fill="#FFB573"/>
<path d="M75.7775 20.6505C74.3865 22.5987 78.3758 22.1206 78.1759 23.4945C78.06 24.3288 76.8608 25.8832 78.9673 26.1729C81.0739 26.4625 81.5956 23.0501 80.5123 21.7684C79.429 20.4868 77.1406 19.6545 75.7775 20.6505Z" fill="#263238"/>
<path d="M76.2183 20.592C75.9305 21.2953 74.3975 22.2585 73.8379 22.08C74.0349 21.6209 74.3684 21.2325 74.7938 20.9666C75.2191 20.7007 75.7161 20.57 76.2183 20.592Z" fill="#263238"/>
<path d="M79.4022 26.517C79.191 26.8605 78.8515 27.1073 78.4579 27.2035C77.9332 27.3255 77.6954 26.8563 77.8583 26.3762C78.0042 25.9476 78.4579 25.3633 78.9705 25.4546C79.0831 25.4763 79.1885 25.5256 79.277 25.598C79.3655 25.6704 79.4344 25.7637 79.4773 25.8693C79.5202 25.9749 79.5358 26.0895 79.5227 26.2026C79.5096 26.3158 79.4682 26.4238 79.4022 26.517Z" fill="#FFB573"/>
<path d="M71.908 43.5328C71.908 43.5328 70.456 55.9327 69.1169 63.6465C68.0686 69.6927 65.4194 82.2811 65.4194 82.2811L68.8581 83.4903C68.8581 83.4903 72.7974 70.3623 73.4869 64.7644C76.264 56.6866 78.2596 43.4644 78.2596 43.4644L71.908 43.5328Z" fill="#55AB60"/>
<path d="M64.8589 83.1323L68.8402 84.5211L69.3718 83.2523L65.0548 81.6135L64.8589 83.1323Z" fill="#263238"/>
<path opacity="0.3" d="M76.2563 47.2161L74.9712 49.6614C74.525 52.7072 74.6047 55.8062 75.207 58.8254C76.2773 54.5519 77.1317 50.0552 77.6633 47.0386L76.2563 47.2161Z" fill="black"/>
<path d="M73.7715 43.5327C73.7715 43.5327 75.3084 57.4058 78.1785 65.0997C79.6165 68.9684 90.2932 80.417 90.2932 80.417L92.7015 78.5045C92.7015 78.5045 85.9312 66.9497 82.9722 63.9301C81.765 57.2183 83.282 47.1654 80.4739 43.4058L73.7715 43.5327Z" fill="#55AB60"/>
<path d="M90.4992 81.2475L93.3233 78.948L92.5608 77.7051L89.4629 80.3775L90.4992 81.2475Z" fill="#263238"/>
<path d="M80.6198 42.9118L81.0195 43.6667C81.0505 43.7253 80.9816 43.7887 80.8826 43.7887L71.8828 43.9177C71.8049 43.9177 71.7409 43.88 71.7339 43.8334L71.647 43.0715C71.647 43.02 71.7079 42.9723 71.7909 42.9723L80.4849 42.8483C80.5109 42.8471 80.5369 42.8522 80.5604 42.8633C80.5839 42.8743 80.6044 42.891 80.6198 42.9118Z" fill="#263238"/>
<path d="M79.4565 43.8918H79.6925C79.7375 43.8918 79.7725 43.866 79.7705 43.8383L79.6455 42.8463C79.6455 42.8155 79.6025 42.7947 79.5555 42.7947H79.3195C79.2745 42.7947 79.2395 42.8205 79.2435 42.8482L79.3665 43.8402C79.3695 43.868 79.4115 43.8918 79.4565 43.8918Z" fill="#55AB60"/>
<path d="M72.5255 43.9891H72.7615C72.8085 43.9891 72.8415 43.9633 72.8395 43.9355L72.7165 42.9436C72.7165 42.9128 72.6715 42.89 72.6245 42.892H72.3885C72.3415 42.892 72.3055 42.9178 72.3105 42.9455L72.4335 43.9375C72.4375 43.9653 72.4805 43.9891 72.5255 43.9891Z" fill="#55AB60"/>
<path d="M75.9919 43.9334H76.2279C76.2749 43.9334 76.3109 43.9077 76.3059 43.8799L76.1829 42.8879C76.1829 42.8571 76.1379 42.8343 76.0929 42.8363H75.8569C75.8099 42.8363 75.7769 42.8621 75.7789 42.8899L75.9019 43.8819C75.8979 43.9176 75.9449 43.9334 75.9919 43.9334Z" fill="#55AB60"/>
<path d="M76.0815 24.0559C76.0315 24.2176 75.9045 24.3207 75.7975 24.29C75.6905 24.2592 75.6465 24.1005 75.6975 23.9388C75.7485 23.7771 75.8775 23.672 75.9835 23.7047C76.0895 23.7374 76.1335 23.8942 76.0815 24.0559Z" fill="#263238"/>
<path d="M74.2444 23.4845C74.1924 23.6462 74.0644 23.7494 73.9584 23.7186C73.8524 23.6879 73.8074 23.5291 73.8584 23.3674C73.9094 23.2058 74.0354 23.1026 74.1424 23.1333C74.2494 23.1641 74.2944 23.3228 74.2444 23.4845Z" fill="#263238"/>
<path d="M74.1885 23.1553L73.8345 22.9211C73.8345 22.9211 73.9375 23.2872 74.1885 23.1553Z" fill="#263238"/>
<path d="M74.7029 23.9111C74.4423 24.2349 74.1377 24.5214 73.7979 24.7623C73.8625 24.8466 73.9447 24.9161 74.039 24.9659C74.1332 25.0158 74.2372 25.0448 74.3439 25.0509L74.7029 23.9111Z" fill="#ED893E"/>
<path d="M74.881 25.9448C74.8727 25.9389 74.8666 25.9305 74.8635 25.9209C74.8604 25.9112 74.8606 25.9008 74.864 25.8913C74.8684 25.8787 74.8775 25.8682 74.8894 25.8621C74.9013 25.856 74.9152 25.8547 74.928 25.8585C75.1289 25.9262 75.3431 25.9457 75.553 25.9155C75.763 25.8853 75.9628 25.8063 76.136 25.6849C76.1464 25.6765 76.1597 25.6725 76.173 25.6738C76.1863 25.6751 76.1986 25.6816 76.207 25.6919C76.2155 25.7021 76.2196 25.7153 76.2182 25.7285C76.2169 25.7417 76.2104 25.7539 76.2 25.7623C76.0145 25.8949 75.7997 25.9815 75.5736 26.015C75.3474 26.0485 75.1165 26.0278 74.9 25.9548L74.881 25.9448Z" fill="#263238"/>
<path d="M76.788 23.6196C76.7743 23.6081 76.7636 23.5935 76.757 23.5769C76.7184 23.4586 76.6521 23.351 76.5634 23.263C76.4747 23.1751 76.3663 23.1093 76.247 23.071C76.2339 23.0681 76.2214 23.0626 76.2104 23.0549C76.1994 23.0472 76.1901 23.0374 76.1829 23.0262C76.1683 23.0034 76.1635 22.9758 76.1695 22.9495C76.1755 22.9232 76.1917 22.9003 76.2147 22.8859C76.2377 22.8715 76.2655 22.8667 76.292 22.8726C76.444 22.9188 76.5828 23.0004 76.6967 23.1104C76.8106 23.2205 76.8964 23.3559 76.947 23.5055C76.9518 23.5178 76.9541 23.5309 76.9537 23.5441C76.9533 23.5573 76.9503 23.5702 76.9448 23.5822C76.9393 23.5943 76.9314 23.6051 76.9217 23.614C76.9119 23.623 76.9005 23.6299 76.888 23.6345C76.8714 23.6404 76.8536 23.6422 76.8361 23.6396C76.8186 23.637 76.8021 23.6301 76.788 23.6196Z" fill="#263238"/>
<path d="M73.6969 22.437V22.4201C73.6922 22.3944 73.698 22.3678 73.713 22.3463C73.728 22.3247 73.751 22.3099 73.7769 22.3051C73.9328 22.2737 74.094 22.2799 74.247 22.3233C74.4 22.3666 74.5402 22.4457 74.6559 22.5541C74.6653 22.5633 74.6727 22.5742 74.6778 22.5863C74.6829 22.5984 74.6855 22.6114 74.6855 22.6245C74.6855 22.6376 74.6829 22.6506 74.6778 22.6626C74.6727 22.6747 74.6653 22.6857 74.6559 22.6949C74.6466 22.7042 74.6355 22.7116 74.6233 22.7166C74.6112 22.7217 74.5981 22.7243 74.5849 22.7243C74.5717 22.7243 74.5586 22.7217 74.5464 22.7166C74.5342 22.7116 74.5232 22.7042 74.5139 22.6949C74.4198 22.609 74.3062 22.547 74.1828 22.514C74.0594 22.481 73.9297 22.4781 73.8049 22.5054C73.7815 22.5086 73.7577 22.5035 73.7378 22.491C73.7178 22.4785 73.703 22.4593 73.6959 22.437H73.6969Z" fill="#263238"/>
<path d="M65.5484 31.6953C65.309 31.3661 65.1757 30.9727 65.1661 30.5668C65.1565 30.1609 65.2709 29.7616 65.4945 29.4216C66.0941 28.8026 66.5567 28.6281 66.4088 27.5458C66.2609 26.4635 67.9228 26.4953 68.0617 25.6699C68.8901 26.3732 69.7695 28.014 69.2989 28.7669C68.8282 29.5198 69.082 30.0843 68.9801 30.9959C68.8782 31.9076 66.8715 33.8192 65.5484 31.6953Z" fill="#55AB60"/>
<path opacity="0.5" d="M65.5484 31.6953C65.309 31.3661 65.1757 30.9727 65.1661 30.5668C65.1565 30.1609 65.2709 29.7616 65.4945 29.4216C66.0941 28.8026 66.5567 28.6281 66.4088 27.5458C66.2609 26.4635 67.9228 26.4953 68.0617 25.6699C68.8901 26.3732 69.7695 28.014 69.2989 28.7669C68.8282 29.5198 69.082 30.0843 68.9801 30.9959C68.8782 31.9076 66.8715 33.8192 65.5484 31.6953Z" fill="white"/>
<path d="M68.1306 27.4089C67.7497 30.0297 67.01 32.5865 65.9321 35.0086C66.1901 34.9877 66.4321 34.8762 66.6147 34.6941C66.6147 34.6941 68.2905 30.1677 68.1306 27.4089Z" fill="#55AB60"/>
<path d="M64.7529 32.9274C64.2212 32.5306 63.5367 31.6259 63.8605 30.8313C64.1842 30.0367 64.555 29.7034 64.0144 28.7481C63.4737 27.7929 65.0347 27.2145 64.8578 26.4041C65.8941 26.7651 67.3181 27.9674 67.1562 28.8305C66.9943 29.6935 67.442 30.1359 67.6849 31.0198C67.9277 31.9037 66.7725 34.4184 64.7529 32.9274Z" fill="#55AB60"/>
<path opacity="0.6" d="M64.7529 32.9274C64.2212 32.5306 63.5367 31.6259 63.8605 30.8313C64.1842 30.0367 64.555 29.7034 64.0144 28.7481C63.4737 27.7929 65.0347 27.2145 64.8578 26.4041C65.8941 26.7651 67.3181 27.9674 67.1562 28.8305C66.9943 29.6935 67.442 30.1359 67.6849 31.0198C67.9277 31.9037 66.7725 34.4184 64.7529 32.9274Z" fill="white"/>
<path d="M68.5486 33.6823C69.1062 33.6426 70.0106 33.3073 70.1475 32.5911C70.2844 31.8749 70.1715 31.4751 70.9929 31.0416C71.8144 30.6081 70.9689 29.4921 71.4656 28.9951C70.5662 28.7838 69.0003 28.9951 68.7165 29.6846C68.4327 30.374 67.917 30.4782 67.3374 31.0019C66.7578 31.5257 66.4271 33.8321 68.5486 33.6823Z" fill="#55AB60"/>
<path opacity="0.7" d="M68.5486 33.6823C69.1062 33.6426 70.0106 33.3073 70.1475 32.5911C70.2844 31.8749 70.1715 31.4751 70.9929 31.0416C71.8144 30.6081 70.9689 29.4921 71.4656 28.9951C70.5662 28.7838 69.0003 28.9951 68.7165 29.6846C68.4327 30.374 67.917 30.4782 67.3374 31.0019C66.7578 31.5257 66.4271 33.8321 68.5486 33.6823Z" fill="white"/>
<path d="M65.4424 29.021C65.9239 31.2683 66.0038 33.5821 65.6784 35.8568C65.9309 35.8063 66.1556 35.665 66.3094 35.46C66.3094 35.46 66.5574 31.3254 65.4424 29.021Z" fill="#55AB60"/>
<path d="M69.8566 30.2192C68.2886 31.8758 66.9568 33.7379 65.8983 35.7536C65.7746 35.5701 65.7201 35.3491 65.7444 35.1296C65.7444 35.1296 67.906 31.5882 69.8566 30.2192Z" fill="#55AB60"/>
<path d="M63.1888 32.4184C62.5202 32.0553 61.2002 33.0701 61.8897 34.2496C62.5792 35.4291 64.0152 35.9747 64.6768 35.3408C65.5882 35.1791 65.9849 33.7159 65.4372 32.464C65.3519 32.2392 65.2007 32.0449 65.0031 31.9062C64.8055 31.7675 64.5706 31.6907 64.3286 31.6858C64.0866 31.6809 63.8487 31.7481 63.6455 31.8786C63.4424 32.0092 63.2833 32.1972 63.1888 32.4184Z" fill="#55AB60"/>
<path d="M63.188 32.4146C63.188 32.4146 62.9519 31.6527 63.3419 31.4087C63.3946 31.4746 63.4434 31.5435 63.488 31.615C63.488 31.615 63.223 31.6914 63.188 32.4146Z" fill="#263238"/>
<path d="M70.742 30.4305C70.6621 32.0415 68.9943 33.2646 67.1835 33.6584C67.0721 33.7721 66.9911 33.9115 66.9476 34.0641C66.9333 34.0988 66.9312 34.1371 66.9415 34.1731C66.9518 34.2091 66.9741 34.2406 67.0046 34.2625C67.1421 34.3754 67.3038 34.4555 67.4773 34.4966C68.434 34.5198 69.3669 34.1985 70.1035 33.5919C71.0478 32.8747 71.9102 31.4542 71.6384 30.7955C71.3666 30.1368 71.1518 30.3571 71.0478 29.8581C70.9902 29.6553 70.9655 29.4446 70.9749 29.2341C70.9749 29.2341 70.739 29.3442 70.6751 29.4871C70.7645 29.7933 70.7873 30.1148 70.742 30.4305Z" fill="#55AB60"/>
<path opacity="0.2" d="M71.6511 30.8054C71.5887 30.6283 71.4861 30.4677 71.3513 30.3362C71.3416 31.0955 71.094 31.833 70.6428 32.4462C70.2122 33.0109 69.6521 33.4656 69.0091 33.7725C68.366 34.0794 67.6586 34.2297 66.9453 34.2109C66.9568 34.2337 66.974 34.2532 66.9953 34.2674C67.1327 34.3803 67.2944 34.4604 67.4679 34.5016C68.4247 34.5249 69.3576 34.2035 70.0942 33.5969C71.0395 32.8866 71.9079 31.4661 71.6511 30.8054Z" fill="black"/>
<path d="M70.747 29.8205C70.7123 29.6998 70.6712 29.5809 70.624 29.4644C70.7209 29.3399 70.8523 29.2461 71.002 29.1946V29.5815C71.002 29.5815 70.872 29.8037 70.747 29.8205Z" fill="#263238"/>
<path d="M67.0036 33.9045C66.968 33.944 66.9346 33.9854 66.9036 34.0285C66.8874 34.0751 66.8863 34.1256 66.9007 34.1728C66.9151 34.22 66.9441 34.2615 66.9836 34.2914C66.9982 34.3067 67.0158 34.3189 67.0351 34.3274C67.0545 34.3359 67.0754 34.3405 67.0966 34.341C67.0502 34.2691 67.0164 34.19 66.9966 34.1069C66.9949 34.0394 66.9972 33.9718 67.0036 33.9045Z" fill="#263238"/>
<path d="M72.041 31.1537C71.6232 32.7101 69.7365 33.5612 67.8798 33.5702C67.7441 33.6557 67.6327 33.7742 67.556 33.9144C67.5318 33.9443 67.5186 33.9816 67.5186 34.02C67.5186 34.0585 67.5318 34.0957 67.556 34.1257C67.6678 34.2699 67.8128 34.3856 67.9787 34.463C68.9089 34.6867 69.8892 34.5668 70.7369 34.1257C71.8021 33.6148 72.9523 32.4076 72.8264 31.7092C72.7005 31.0108 72.4417 31.1795 72.4467 30.6725C72.4307 30.4627 72.4506 30.2518 72.5056 30.0486C72.3765 30.0765 72.2577 30.1397 72.1629 30.2311C72.1961 30.5439 72.1543 30.86 72.041 31.1537Z" fill="#55AB60"/>
<path opacity="0.2" d="M72.8396 31.7123C72.8169 31.5252 72.7517 31.3458 72.6487 31.1875C72.4806 31.9269 72.0854 32.5963 71.5175 33.103C70.9786 33.5669 70.3359 33.8962 69.6428 34.0634C68.9497 34.2306 68.2264 34.2309 67.5332 34.0643C67.5395 34.0885 67.5515 34.1109 67.5682 34.1297C67.6808 34.2732 67.8255 34.3887 67.9909 34.467C68.9214 34.6891 69.9015 34.5682 70.749 34.1268C71.8143 33.6189 72.9645 32.4116 72.8396 31.7123Z" fill="black"/>
<path d="M72.1729 30.5705C72.1729 30.5705 72.1519 30.2957 72.1279 30.1975C72.249 30.0969 72.3964 30.0325 72.5529 30.012L72.4679 30.3889C72.4679 30.3889 72.2979 30.5705 72.1729 30.5705Z" fill="#263238"/>
<path d="M67.6531 33.7776C67.6531 33.7776 67.5701 33.8381 67.5281 33.8768C67.5029 33.9189 67.4917 33.9678 67.496 34.0165C67.5003 34.0653 67.5199 34.1115 67.5521 34.1486C67.6091 34.219 67.6521 34.221 67.6521 34.221C67.6215 34.1417 67.6046 34.0579 67.6021 33.973C67.6181 33.8966 67.6531 33.7776 67.6531 33.7776Z" fill="#263238"/>
<path d="M73.1378 32.9035L61.6108 34.4739L63.3841 47.2821L74.9111 45.7117L73.1378 32.9035Z" fill="#55AB60"/>
<path opacity="0.8" d="M73.1378 32.9035L61.6108 34.4739L63.3841 47.2821L74.9111 45.7117L73.1378 32.9035Z" fill="white"/>
<path opacity="0.2" d="M73.1371 32.9029L69.7354 33.3667L71.5074 46.1751L74.9091 45.7114L73.1371 32.9029Z" fill="#55AB60"/>
<path opacity="0.2" d="M74.9164 45.7102L73.0437 44.7113L71.4448 33.1357L73.1437 32.9036L74.9164 45.7102Z" fill="#55AB60"/>
<path opacity="0.3" d="M73.0397 44.7112L71.5098 46.1744L74.9124 45.7101L73.0397 44.7112Z" fill="#55AB60"/>
<path d="M76.771 43.9147L75.0142 43.2302L75.187 45.4126C75.8443 45.3796 76.4752 45.1461 76.9938 44.744L76.771 43.9147Z" fill="#FFB573"/>
<path d="M82.3141 33.0256C82.7868 34.338 83.1925 35.6415 83.5423 36.9936C83.7172 37.6662 83.882 38.3437 84.0149 39.047C84.0789 39.3962 84.1359 39.7504 84.1778 40.1204C84.2248 40.5094 84.2415 40.9014 84.2278 41.2929C84.2198 41.5468 84.1802 41.7987 84.1099 42.0429C84.0138 42.3434 83.8524 42.6194 83.6372 42.8513C83.3235 43.1846 82.951 43.4579 82.538 43.6578C81.8606 43.9847 81.1473 44.2324 80.4124 44.3959C79.0376 44.7125 77.6356 44.8985 76.2253 44.9514L76.0884 43.8542C76.7309 43.7015 77.3875 43.5328 78.03 43.3582C78.6726 43.1836 79.3082 42.9833 79.9198 42.763C80.5033 42.5647 81.0657 42.3095 81.5986 42.0012C81.7925 41.8887 81.9658 41.7445 82.1112 41.5746C82.1492 41.5161 82.1492 41.4992 82.1422 41.4992C82.1483 41.4134 82.1483 41.3272 82.1422 41.2413C82.1316 40.9582 82.1015 40.6762 82.0523 40.3971C82.0053 40.0926 81.9414 39.7801 81.8704 39.4597C81.7215 38.8337 81.5586 38.1959 81.3708 37.5581C81.002 36.2923 80.5893 35.0047 80.1716 33.7557L82.3141 33.0256Z" fill="#FFB573"/>
<path d="M73.3853 44.3075L73.5222 44.8135C73.5659 44.9745 73.6608 45.1172 73.7928 45.2203C73.9248 45.3235 74.0868 45.3815 74.2547 45.3858L75.1991 45.4116L75.0272 43.2292L74.0639 43.3394C73.9514 43.3505 73.8426 43.3859 73.7452 43.4428C73.6478 43.4998 73.564 43.577 73.4996 43.6693C73.4352 43.7615 73.3917 43.8665 73.3721 43.977C73.3526 44.0876 73.3574 44.201 73.3863 44.3095L73.3853 44.3075Z" fill="#FFB573"/>
<path d="M81.3125 30.5824C82.2998 30.9792 83.1112 34.2021 83.1112 34.2021L80.3841 36.3121C80.3841 36.3121 78.4524 33.3093 78.8471 32.0059C79.1779 30.9057 80.0563 30.0784 81.3125 30.5824Z" fill="#55AB60"/>
<g opacity="0.5">
<path opacity="0.5" d="M81.3125 30.5824C82.2998 30.9792 83.1112 34.2021 83.1112 34.2021L80.3841 36.3121C80.3841 36.3121 78.4524 33.3093 78.8471 32.0059C79.1779 30.9057 80.0563 30.0784 81.3125 30.5824Z" fill="black"/>
</g>
<path d="M91.8474 83.2443H91.8124C91.7631 83.2414 91.7153 83.2258 91.6739 83.199C91.6325 83.1722 91.5989 83.1352 91.5764 83.0915C91.5589 83.0667 91.5484 83.0378 91.546 83.0076C91.5435 82.9774 91.5492 82.9472 91.5624 82.9199C91.6824 82.6858 92.4414 82.5916 92.5264 82.5827C92.5364 82.581 92.5467 82.5826 92.5557 82.5873C92.5647 82.5919 92.572 82.5994 92.5764 82.6084C92.5815 82.6164 92.5843 82.6257 92.5843 82.6352C92.5843 82.6447 92.5815 82.654 92.5764 82.662C92.4144 82.8763 92.1074 83.2255 91.8474 83.2443ZM92.4214 82.6977C92.1214 82.7424 91.7124 82.8386 91.6554 82.9646C91.6482 82.9758 91.6444 82.9889 91.6444 83.0022C91.6444 83.0156 91.6482 83.0287 91.6554 83.04C91.6697 83.0687 91.6916 83.093 91.7187 83.1105C91.7458 83.128 91.7771 83.1378 91.8094 83.1391C91.9564 83.1461 92.1924 82.9824 92.4284 82.6938L92.4214 82.6977Z" fill="#263238"/>
<path d="M92.4895 82.6886C92.2315 82.7055 91.7215 82.5994 91.6125 82.4029C91.5941 82.3678 91.5884 82.3276 91.5962 82.2888C91.604 82.25 91.6249 82.215 91.6555 82.1897C91.6817 82.1618 91.7137 82.14 91.7493 82.1258C91.7849 82.1116 91.8232 82.1052 91.8615 82.1073C92.1685 82.1073 92.5615 82.5765 92.5705 82.6033C92.5751 82.6103 92.5775 82.6183 92.5775 82.6266C92.5775 82.6349 92.5751 82.643 92.5705 82.6499C92.5682 82.6585 92.5633 82.6662 92.5566 82.6721C92.5498 82.6779 92.5414 82.6816 92.5325 82.6827L92.4895 82.6886ZM91.8375 82.2055C91.796 82.2089 91.7573 82.2273 91.7285 82.2571C91.6835 82.3037 91.6905 82.3345 91.7025 82.3563C91.7715 82.4853 92.1755 82.5904 92.4325 82.5904C92.2935 82.4426 92.0405 82.2105 91.8585 82.2036L91.8375 82.2055Z" fill="#263238"/>
<path d="M63.6688 85.4803C63.5074 85.4267 63.3659 85.3261 63.2628 85.1916C63.2384 85.1514 63.2236 85.1062 63.2195 85.0595C63.2153 85.0127 63.2219 84.9657 63.2388 84.9218C63.2469 84.8971 63.2614 84.8748 63.2809 84.8574C63.3004 84.84 63.3241 84.828 63.3498 84.8226C63.6188 84.771 64.2568 85.4506 64.3828 85.5894C64.3886 85.5977 64.3917 85.6076 64.3917 85.6177C64.3917 85.6278 64.3886 85.6377 64.3828 85.646C64.3776 85.6553 64.3696 85.6627 64.3599 85.6674C64.3503 85.672 64.3394 85.6735 64.3288 85.6718C64.103 85.6296 63.8819 85.5655 63.6688 85.4803ZM63.4688 84.9317C63.4379 84.9164 63.4033 84.9099 63.3688 84.9129C63.3688 84.9129 63.3428 84.9129 63.3338 84.9476C63.3218 84.978 63.3172 85.0108 63.3201 85.0433C63.3231 85.0759 63.3336 85.1073 63.3508 85.1351C63.5804 85.3611 63.8818 85.5014 64.2038 85.5319C63.9912 85.2944 63.7433 85.0903 63.4688 84.9268V84.9317Z" fill="#263238"/>
<path d="M64.3263 85.6587C64.3197 85.6562 64.3139 85.6521 64.3093 85.6468C64.0923 85.4335 63.7423 84.7957 63.8623 84.5923C63.8903 84.5477 63.9473 84.5011 64.0723 84.5358C64.5453 84.6717 64.4003 85.5813 64.3933 85.621C64.3921 85.6301 64.3881 85.6386 64.3818 85.6454C64.3755 85.6521 64.3673 85.6567 64.3583 85.6587C64.3533 85.6609 64.3478 85.662 64.3423 85.662C64.3368 85.662 64.3313 85.6609 64.3263 85.6587ZM64.0903 84.6409H64.0573C64.0073 84.627 63.9743 84.629 63.9623 84.6409C63.8913 84.7609 64.1163 85.2411 64.3213 85.497C64.3263 85.2738 64.3543 84.758 64.0893 84.6429L64.0903 84.6409Z" fill="#263238"/>
<path d="M76.0308 23.7275L75.6738 23.4934C75.6738 23.4934 75.7768 23.8595 76.0308 23.7275Z" fill="#263238"/>
<path d="M9.135 118.04V119H1.71V108.5H8.91V109.46H2.82V113.195H8.25V114.14H2.82V118.04H9.135ZM16.3245 119L13.8195 115.7L11.2995 119H10.0995L13.2195 114.95L10.2495 111.11H11.4495L13.8195 114.2L16.1895 111.11H17.3595L14.3895 114.95L17.5395 119H16.3245ZM22.3038 119.075C21.5238 119.075 20.8238 118.905 20.2038 118.565C19.5938 118.225 19.1138 117.75 18.7638 117.14C18.4138 116.52 18.2388 115.825 18.2388 115.055C18.2388 114.285 18.4138 113.595 18.7638 112.985C19.1138 112.375 19.5938 111.9 20.2038 111.56C20.8238 111.22 21.5238 111.05 22.3038 111.05C22.9838 111.05 23.5888 111.185 24.1188 111.455C24.6588 111.715 25.0838 112.1 25.3938 112.61L24.5988 113.15C24.3388 112.76 24.0088 112.47 23.6088 112.28C23.2088 112.08 22.7738 111.98 22.3038 111.98C21.7338 111.98 21.2188 112.11 20.7588 112.37C20.3088 112.62 19.9538 112.98 19.6938 113.45C19.4438 113.92 19.3188 114.455 19.3188 115.055C19.3188 115.665 19.4438 116.205 19.6938 116.675C19.9538 117.135 20.3088 117.495 20.7588 117.755C21.2188 118.005 21.7338 118.13 22.3038 118.13C22.7738 118.13 23.2088 118.035 23.6088 117.845C24.0088 117.655 24.3388 117.365 24.5988 116.975L25.3938 117.515C25.0838 118.025 24.6588 118.415 24.1188 118.685C23.5788 118.945 22.9738 119.075 22.3038 119.075ZM27.486 111.11H28.551V119H27.486V111.11ZM28.026 109.385C27.806 109.385 27.621 109.31 27.471 109.16C27.321 109.01 27.246 108.83 27.246 108.62C27.246 108.42 27.321 108.245 27.471 108.095C27.621 107.945 27.806 107.87 28.026 107.87C28.246 107.87 28.431 107.945 28.581 108.095C28.731 108.235 28.806 108.405 28.806 108.605C28.806 108.825 28.731 109.01 28.581 109.16C28.431 109.31 28.246 109.385 28.026 109.385ZM35.6693 118.52C35.4693 118.7 35.2193 118.84 34.9193 118.94C34.6293 119.03 34.3243 119.075 34.0043 119.075C33.2643 119.075 32.6943 118.875 32.2943 118.475C31.8943 118.075 31.6943 117.51 31.6943 116.78V112.01H30.2843V111.11H31.6943V109.385H32.7593V111.11H35.1593V112.01H32.7593V116.72C32.7593 117.19 32.8743 117.55 33.1043 117.8C33.3443 118.04 33.6843 118.16 34.1243 118.16C34.3443 118.16 34.5543 118.125 34.7543 118.055C34.9643 117.985 35.1443 117.885 35.2943 117.755L35.6693 118.52ZM44.1997 115.385H37.5997C37.6597 116.205 37.9747 116.87 38.5447 117.38C39.1147 117.88 39.8347 118.13 40.7047 118.13C41.1947 118.13 41.6447 118.045 42.0547 117.875C42.4647 117.695 42.8197 117.435 43.1197 117.095L43.7197 117.785C43.3697 118.205 42.9297 118.525 42.3997 118.745C41.8797 118.965 41.3047 119.075 40.6747 119.075C39.8647 119.075 39.1447 118.905 38.5147 118.565C37.8947 118.215 37.4097 117.735 37.0597 117.125C36.7097 116.515 36.5347 115.825 36.5347 115.055C36.5347 114.285 36.6997 113.595 37.0297 112.985C37.3697 112.375 37.8297 111.9 38.4097 111.56C38.9997 111.22 39.6597 111.05 40.3897 111.05C41.1197 111.05 41.7747 111.22 42.3547 111.56C42.9347 111.9 43.3897 112.375 43.7197 112.985C44.0497 113.585 44.2147 114.275 44.2147 115.055L44.1997 115.385ZM40.3897 111.965C39.6297 111.965 38.9897 112.21 38.4697 112.7C37.9597 113.18 37.6697 113.81 37.5997 114.59H43.1947C43.1247 113.81 42.8297 113.18 42.3097 112.7C41.7997 112.21 41.1597 111.965 40.3897 111.965ZM53.5825 107.87V119H52.5625V117.44C52.2425 117.97 51.8175 118.375 51.2875 118.655C50.7675 118.935 50.1775 119.075 49.5175 119.075C48.7775 119.075 48.1075 118.905 47.5075 118.565C46.9075 118.225 46.4375 117.75 46.0975 117.14C45.7575 116.53 45.5875 115.835 45.5875 115.055C45.5875 114.275 45.7575 113.58 46.0975 112.97C46.4375 112.36 46.9075 111.89 47.5075 111.56C48.1075 111.22 48.7775 111.05 49.5175 111.05C50.1575 111.05 50.7325 111.185 51.2425 111.455C51.7625 111.715 52.1875 112.1 52.5175 112.61V107.87H53.5825ZM49.6075 118.13C50.1575 118.13 50.6525 118.005 51.0925 117.755C51.5425 117.495 51.8925 117.13 52.1425 116.66C52.4025 116.19 52.5325 115.655 52.5325 115.055C52.5325 114.455 52.4025 113.92 52.1425 113.45C51.8925 112.98 51.5425 112.62 51.0925 112.37C50.6525 112.11 50.1575 111.98 49.6075 111.98C49.0475 111.98 48.5425 112.11 48.0925 112.37C47.6525 112.62 47.3025 112.98 47.0425 113.45C46.7925 113.92 46.6675 114.455 46.6675 115.055C46.6675 115.655 46.7925 116.19 47.0425 116.66C47.3025 117.13 47.6525 117.495 48.0925 117.755C48.5425 118.005 49.0475 118.13 49.6075 118.13ZM64.6293 118.52C64.4293 118.7 64.1793 118.84 63.8793 118.94C63.5893 119.03 63.2843 119.075 62.9643 119.075C62.2243 119.075 61.6543 118.875 61.2543 118.475C60.8543 118.075 60.6543 117.51 60.6543 116.78V112.01H59.2443V111.11H60.6543V109.385H61.7193V111.11H64.1193V112.01H61.7193V116.72C61.7193 117.19 61.8343 117.55 62.0643 117.8C62.3043 118.04 62.6443 118.16 63.0843 118.16C63.3043 118.16 63.5143 118.125 63.7143 118.055C63.9243 117.985 64.1043 117.885 64.2543 117.755L64.6293 118.52ZM69.5147 119.075C68.7547 119.075 68.0697 118.905 67.4597 118.565C66.8497 118.215 66.3697 117.735 66.0197 117.125C65.6697 116.515 65.4947 115.825 65.4947 115.055C65.4947 114.285 65.6697 113.595 66.0197 112.985C66.3697 112.375 66.8497 111.9 67.4597 111.56C68.0697 111.22 68.7547 111.05 69.5147 111.05C70.2747 111.05 70.9597 111.22 71.5697 111.56C72.1797 111.9 72.6547 112.375 72.9947 112.985C73.3447 113.595 73.5197 114.285 73.5197 115.055C73.5197 115.825 73.3447 116.515 72.9947 117.125C72.6547 117.735 72.1797 118.215 71.5697 118.565C70.9597 118.905 70.2747 119.075 69.5147 119.075ZM69.5147 118.13C70.0747 118.13 70.5747 118.005 71.0147 117.755C71.4647 117.495 71.8147 117.13 72.0647 116.66C72.3147 116.19 72.4397 115.655 72.4397 115.055C72.4397 114.455 72.3147 113.92 72.0647 113.45C71.8147 112.98 71.4647 112.62 71.0147 112.37C70.5747 112.11 70.0747 111.98 69.5147 111.98C68.9547 111.98 68.4497 112.11 67.9997 112.37C67.5597 112.62 67.2097 112.98 66.9497 113.45C66.6997 113.92 66.5747 114.455 66.5747 115.055C66.5747 115.655 66.6997 116.19 66.9497 116.66C67.2097 117.13 67.5597 117.495 67.9997 117.755C68.4497 118.005 68.9547 118.13 69.5147 118.13ZM81.7348 119.075C81.0948 119.075 80.4798 118.985 79.8898 118.805C79.3098 118.615 78.8548 118.38 78.5248 118.1L79.0048 117.26C79.3348 117.52 79.7498 117.735 80.2498 117.905C80.7498 118.065 81.2698 118.145 81.8098 118.145C82.5298 118.145 83.0598 118.035 83.3998 117.815C83.7498 117.585 83.9248 117.265 83.9248 116.855C83.9248 116.565 83.8298 116.34 83.6398 116.18C83.4498 116.01 83.2098 115.885 82.9198 115.805C82.6298 115.715 82.2448 115.63 81.7648 115.55C81.1248 115.43 80.6098 115.31 80.2198 115.19C79.8298 115.06 79.4948 114.845 79.2148 114.545C78.9448 114.245 78.8098 113.83 78.8098 113.3C78.8098 112.64 79.0848 112.1 79.6348 111.68C80.1848 111.26 80.9498 111.05 81.9298 111.05C82.4398 111.05 82.9498 111.12 83.4598 111.26C83.9698 111.39 84.3898 111.565 84.7198 111.785L84.2548 112.64C83.6048 112.19 82.8298 111.965 81.9298 111.965C81.2498 111.965 80.7348 112.085 80.3848 112.325C80.0448 112.565 79.8748 112.88 79.8748 113.27C79.8748 113.57 79.9698 113.81 80.1598 113.99C80.3598 114.17 80.6048 114.305 80.8948 114.395C81.1848 114.475 81.5848 114.56 82.0948 114.65C82.7248 114.77 83.2298 114.89 83.6098 115.01C83.9898 115.13 84.3148 115.335 84.5848 115.625C84.8548 115.915 84.9898 116.315 84.9898 116.825C84.9898 117.515 84.6998 118.065 84.1198 118.475C83.5498 118.875 82.7548 119.075 81.7348 119.075ZM93.8286 115.385H87.2286C87.2886 116.205 87.6036 116.87 88.1736 117.38C88.7436 117.88 89.4636 118.13 90.3336 118.13C90.8236 118.13 91.2736 118.045 91.6836 117.875C92.0936 117.695 92.4486 117.435 92.7486 117.095L93.3486 117.785C92.9986 118.205 92.5586 118.525 92.0286 118.745C91.5086 118.965 90.9336 119.075 90.3036 119.075C89.4936 119.075 88.7736 118.905 88.1436 118.565C87.5236 118.215 87.0386 117.735 86.6886 117.125C86.3386 116.515 86.1636 115.825 86.1636 115.055C86.1636 114.285 86.3286 113.595 86.6586 112.985C86.9986 112.375 87.4586 111.9 88.0386 111.56C88.6286 111.22 89.2886 111.05 90.0186 111.05C90.7486 111.05 91.4036 111.22 91.9836 111.56C92.5636 111.9 93.0186 112.375 93.3486 112.985C93.6786 113.585 93.8436 114.275 93.8436 115.055L93.8286 115.385ZM90.0186 111.965C89.2586 111.965 88.6186 112.21 88.0986 112.7C87.5886 113.18 87.2986 113.81 87.2286 114.59H92.8236C92.7536 113.81 92.4586 113.18 91.9386 112.7C91.4286 112.21 90.7886 111.965 90.0186 111.965ZM97.0314 112.655C97.2814 112.125 97.6514 111.725 98.1414 111.455C98.6414 111.185 99.2564 111.05 99.9864 111.05V112.085L99.7314 112.07C98.9014 112.07 98.2514 112.325 97.7814 112.835C97.3114 113.345 97.0764 114.06 97.0764 114.98V119H96.0114V111.11H97.0314V112.655ZM108.882 111.11L105.372 119H104.277L100.782 111.11H101.892L104.847 117.83L107.832 111.11H108.882ZM117.032 115.385H110.432C110.492 116.205 110.807 116.87 111.377 117.38C111.947 117.88 112.667 118.13 113.537 118.13C114.027 118.13 114.477 118.045 114.887 117.875C115.297 117.695 115.652 117.435 115.952 117.095L116.552 117.785C116.202 118.205 115.762 118.525 115.232 118.745C114.712 118.965 114.137 119.075 113.507 119.075C112.697 119.075 111.977 118.905 111.347 118.565C110.727 118.215 110.242 117.735 109.892 117.125C109.542 116.515 109.367 115.825 109.367 115.055C109.367 114.285 109.532 113.595 109.862 112.985C110.202 112.375 110.662 111.9 111.242 111.56C111.832 111.22 112.492 111.05 113.222 111.05C113.952 111.05 114.607 111.22 115.187 111.56C115.767 111.9 116.222 112.375 116.552 112.985C116.882 113.585 117.047 114.275 117.047 115.055L117.032 115.385ZM113.222 111.965C112.462 111.965 111.822 112.21 111.302 112.7C110.792 113.18 110.502 113.81 110.432 114.59H116.027C115.957 113.81 115.662 113.18 115.142 112.7C114.632 112.21 113.992 111.965 113.222 111.965ZM129.77 111.11L125.825 119.945C125.505 120.685 125.135 121.21 124.715 121.52C124.295 121.83 123.79 121.985 123.2 121.985C122.82 121.985 122.465 121.925 122.135 121.805C121.805 121.685 121.52 121.505 121.28 121.265L121.775 120.47C122.175 120.87 122.655 121.07 123.215 121.07C123.575 121.07 123.88 120.97 124.13 120.77C124.39 120.57 124.63 120.23 124.85 119.75L125.195 118.985L121.67 111.11H122.78L125.75 117.815L128.72 111.11H129.77ZM134.275 119.075C133.515 119.075 132.83 118.905 132.22 118.565C131.61 118.215 131.13 117.735 130.78 117.125C130.43 116.515 130.255 115.825 130.255 115.055C130.255 114.285 130.43 113.595 130.78 112.985C131.13 112.375 131.61 111.9 132.22 111.56C132.83 111.22 133.515 111.05 134.275 111.05C135.035 111.05 135.72 111.22 136.33 111.56C136.94 111.9 137.415 112.375 137.755 112.985C138.105 113.595 138.28 114.285 138.28 115.055C138.28 115.825 138.105 116.515 137.755 117.125C137.415 117.735 136.94 118.215 136.33 118.565C135.72 118.905 135.035 119.075 134.275 119.075ZM134.275 118.13C134.835 118.13 135.335 118.005 135.775 117.755C136.225 117.495 136.575 117.13 136.825 116.66C137.075 116.19 137.2 115.655 137.2 115.055C137.2 114.455 137.075 113.92 136.825 113.45C136.575 112.98 136.225 112.62 135.775 112.37C135.335 112.11 134.835 111.98 134.275 111.98C133.715 111.98 133.21 112.11 132.76 112.37C132.32 112.62 131.97 112.98 131.71 113.45C131.46 113.92 131.335 114.455 131.335 115.055C131.335 115.655 131.46 116.19 131.71 116.66C131.97 117.13 132.32 117.495 132.76 117.755C133.21 118.005 133.715 118.13 134.275 118.13ZM147.565 111.11V119H146.545V117.56C146.265 118.04 145.88 118.415 145.39 118.685C144.9 118.945 144.34 119.075 143.71 119.075C142.68 119.075 141.865 118.79 141.265 118.22C140.675 117.64 140.38 116.795 140.38 115.685V111.11H141.445V115.58C141.445 116.41 141.65 117.04 142.06 117.47C142.47 117.9 143.055 118.115 143.815 118.115C144.645 118.115 145.3 117.865 145.78 117.365C146.26 116.855 146.5 116.15 146.5 115.25V111.11H147.565ZM158.628 118.52C158.428 118.7 158.178 118.84 157.878 118.94C157.588 119.03 157.283 119.075 156.963 119.075C156.223 119.075 155.653 118.875 155.253 118.475C154.853 118.075 154.653 117.51 154.653 116.78V112.01H153.243V111.11H154.653V109.385H155.718V111.11H158.118V112.01H155.718V116.72C155.718 117.19 155.833 117.55 156.063 117.8C156.303 118.04 156.643 118.16 157.083 118.16C157.303 118.16 157.513 118.125 157.713 118.055C157.923 117.985 158.103 117.885 158.253 117.755L158.628 118.52ZM164.587 111.05C165.577 111.05 166.362 111.34 166.942 111.92C167.532 112.49 167.827 113.325 167.827 114.425V119H166.762V114.53C166.762 113.71 166.557 113.085 166.147 112.655C165.737 112.225 165.152 112.01 164.392 112.01C163.542 112.01 162.867 112.265 162.367 112.775C161.877 113.275 161.632 113.97 161.632 114.86V119H160.567V107.87H161.632V112.49C161.922 112.03 162.322 111.675 162.832 111.425C163.342 111.175 163.927 111.05 164.587 111.05ZM177.618 115.385H171.018C171.078 116.205 171.393 116.87 171.963 117.38C172.533 117.88 173.253 118.13 174.123 118.13C174.613 118.13 175.063 118.045 175.473 117.875C175.883 117.695 176.238 117.435 176.538 117.095L177.138 117.785C176.788 118.205 176.348 118.525 175.818 118.745C175.298 118.965 174.723 119.075 174.093 119.075C173.283 119.075 172.563 118.905 171.933 118.565C171.313 118.215 170.828 117.735 170.478 117.125C170.128 116.515 169.953 115.825 169.953 115.055C169.953 114.285 170.118 113.595 170.448 112.985C170.788 112.375 171.248 111.9 171.828 111.56C172.418 111.22 173.078 111.05 173.808 111.05C174.538 111.05 175.193 111.22 175.773 111.56C176.353 111.9 176.808 112.375 177.138 112.985C177.468 113.585 177.633 114.275 177.633 115.055L177.618 115.385ZM173.808 111.965C173.048 111.965 172.408 112.21 171.888 112.7C171.378 113.18 171.088 113.81 171.018 114.59H176.613C176.543 113.81 176.248 113.18 175.728 112.7C175.218 112.21 174.578 111.965 173.808 111.965ZM187.791 111.05C188.531 111.05 189.201 111.22 189.801 111.56C190.401 111.89 190.871 112.36 191.211 112.97C191.551 113.58 191.721 114.275 191.721 115.055C191.721 115.835 191.551 116.53 191.211 117.14C190.871 117.75 190.401 118.225 189.801 118.565C189.201 118.905 188.531 119.075 187.791 119.075C187.131 119.075 186.536 118.935 186.006 118.655C185.486 118.375 185.066 117.97 184.746 117.44V119H183.726V107.87H184.791V112.61C185.121 112.1 185.541 111.715 186.051 111.455C186.571 111.185 187.151 111.05 187.791 111.05ZM187.716 118.13C188.266 118.13 188.766 118.005 189.216 117.755C189.666 117.495 190.016 117.13 190.266 116.66C190.526 116.19 190.656 115.655 190.656 115.055C190.656 114.455 190.526 113.92 190.266 113.45C190.016 112.98 189.666 112.62 189.216 112.37C188.766 112.11 188.266 111.98 187.716 111.98C187.156 111.98 186.651 112.11 186.201 112.37C185.761 112.62 185.411 112.98 185.151 113.45C184.901 113.92 184.776 114.455 184.776 115.055C184.776 115.655 184.901 116.19 185.151 116.66C185.411 117.13 185.761 117.495 186.201 117.755C186.651 118.005 187.156 118.13 187.716 118.13ZM200.762 115.385H194.162C194.222 116.205 194.537 116.87 195.107 117.38C195.677 117.88 196.397 118.13 197.267 118.13C197.757 118.13 198.207 118.045 198.617 117.875C199.027 117.695 199.382 117.435 199.682 117.095L200.282 117.785C199.932 118.205 199.492 118.525 198.962 118.745C198.442 118.965 197.867 119.075 197.237 119.075C196.427 119.075 195.707 118.905 195.077 118.565C194.457 118.215 193.972 117.735 193.622 117.125C193.272 116.515 193.097 115.825 193.097 115.055C193.097 114.285 193.262 113.595 193.592 112.985C193.932 112.375 194.392 111.9 194.972 111.56C195.562 111.22 196.222 111.05 196.952 111.05C197.682 111.05 198.337 111.22 198.917 111.56C199.497 111.9 199.952 112.375 200.282 112.985C200.612 113.585 200.777 114.275 200.777 115.055L200.762 115.385ZM196.952 111.965C196.192 111.965 195.552 112.21 195.032 112.7C194.522 113.18 194.232 113.81 194.162 114.59H199.757C199.687 113.81 199.392 113.18 198.872 112.7C198.362 112.21 197.722 111.965 196.952 111.965ZM205.06 119.075C204.42 119.075 203.805 118.985 203.215 118.805C202.635 118.615 202.18 118.38 201.85 118.1L202.33 117.26C202.66 117.52 203.075 117.735 203.575 117.905C204.075 118.065 204.595 118.145 205.135 118.145C205.855 118.145 206.385 118.035 206.725 117.815C207.075 117.585 207.25 117.265 207.25 116.855C207.25 116.565 207.155 116.34 206.965 116.18C206.775 116.01 206.535 115.885 206.245 115.805C205.955 115.715 205.57 115.63 205.09 115.55C204.45 115.43 203.935 115.31 203.545 115.19C203.155 115.06 202.82 114.845 202.54 114.545C202.27 114.245 202.135 113.83 202.135 113.3C202.135 112.64 202.41 112.1 202.96 111.68C203.51 111.26 204.275 111.05 205.255 111.05C205.765 111.05 206.275 111.12 206.785 111.26C207.295 111.39 207.715 111.565 208.045 111.785L207.58 112.64C206.93 112.19 206.155 111.965 205.255 111.965C204.575 111.965 204.06 112.085 203.71 112.325C203.37 112.565 203.2 112.88 203.2 113.27C203.2 113.57 203.295 113.81 203.485 113.99C203.685 114.17 203.93 114.305 204.22 114.395C204.51 114.475 204.91 114.56 205.42 114.65C206.05 114.77 206.555 114.89 206.935 115.01C207.315 115.13 207.64 115.335 207.91 115.625C208.18 115.915 208.315 116.315 208.315 116.825C208.315 117.515 208.025 118.065 207.445 118.475C206.875 118.875 206.08 119.075 205.06 119.075ZM214.439 118.52C214.239 118.7 213.989 118.84 213.689 118.94C213.399 119.03 213.094 119.075 212.774 119.075C212.034 119.075 211.464 118.875 211.064 118.475C210.664 118.075 210.464 117.51 210.464 116.78V112.01H209.054V111.11H210.464V109.385H211.529V111.11H213.929V112.01H211.529V116.72C211.529 117.19 211.644 117.55 211.874 117.8C212.114 118.04 212.454 118.16 212.894 118.16C213.114 118.16 213.324 118.125 213.524 118.055C213.734 117.985 213.914 117.885 214.064 117.755L214.439 118.52ZM227.503 111.11V121.91H226.438V117.515C226.108 118.025 225.683 118.415 225.163 118.685C224.653 118.945 224.078 119.075 223.438 119.075C222.688 119.075 222.013 118.91 221.413 118.58C220.823 118.24 220.358 117.765 220.018 117.155C219.678 116.545 219.508 115.845 219.508 115.055C219.508 114.275 219.678 113.58 220.018 112.97C220.358 112.36 220.828 111.89 221.428 111.56C222.028 111.22 222.698 111.05 223.438 111.05C224.098 111.05 224.688 111.19 225.208 111.47C225.738 111.75 226.163 112.15 226.483 112.67V111.11H227.503ZM223.528 118.13C224.078 118.13 224.573 118.005 225.013 117.755C225.463 117.495 225.813 117.13 226.063 116.66C226.323 116.19 226.453 115.655 226.453 115.055C226.453 114.455 226.323 113.925 226.063 113.465C225.813 112.995 225.463 112.63 225.013 112.37C224.573 112.11 224.078 111.98 223.528 111.98C222.968 111.98 222.463 112.11 222.013 112.37C221.573 112.63 221.223 112.995 220.963 113.465C220.713 113.925 220.588 114.455 220.588 115.055C220.588 115.655 220.713 116.19 220.963 116.66C221.223 117.13 221.573 117.495 222.013 117.755C222.463 118.005 222.968 118.13 223.528 118.13ZM237.579 111.11V119H236.559V117.56C236.279 118.04 235.894 118.415 235.404 118.685C234.914 118.945 234.354 119.075 233.724 119.075C232.694 119.075 231.879 118.79 231.279 118.22C230.689 117.64 230.394 116.795 230.394 115.685V111.11H231.459V115.58C231.459 116.41 231.664 117.04 232.074 117.47C232.484 117.9 233.069 118.115 233.829 118.115C234.659 118.115 235.314 117.865 235.794 117.365C236.274 116.855 236.514 116.15 236.514 115.25V111.11H237.579ZM243.322 111.05C244.352 111.05 245.142 111.31 245.692 111.83C246.242 112.34 246.517 113.1 246.517 114.11V119H245.497V117.77C245.257 118.18 244.902 118.5 244.432 118.73C243.972 118.96 243.422 119.075 242.782 119.075C241.902 119.075 241.202 118.865 240.682 118.445C240.162 118.025 239.902 117.47 239.902 116.78C239.902 116.11 240.142 115.57 240.622 115.16C241.112 114.75 241.887 114.545 242.947 114.545H245.452V114.065C245.452 113.385 245.262 112.87 244.882 112.52C244.502 112.16 243.947 111.98 243.217 111.98C242.717 111.98 242.237 112.065 241.777 112.235C241.317 112.395 240.922 112.62 240.592 112.91L240.112 112.115C240.512 111.775 240.992 111.515 241.552 111.335C242.112 111.145 242.702 111.05 243.322 111.05ZM242.947 118.235C243.547 118.235 244.062 118.1 244.492 117.83C244.922 117.55 245.242 117.15 245.452 116.63V115.34H242.977C241.627 115.34 240.952 115.81 240.952 116.75C240.952 117.21 241.127 117.575 241.477 117.845C241.827 118.105 242.317 118.235 242.947 118.235ZM249.41 107.87H250.475V119H249.41V107.87ZM253.438 111.11H254.503V119H253.438V111.11ZM253.978 109.385C253.758 109.385 253.573 109.31 253.423 109.16C253.273 109.01 253.198 108.83 253.198 108.62C253.198 108.42 253.273 108.245 253.423 108.095C253.573 107.945 253.758 107.87 253.978 107.87C254.198 107.87 254.383 107.945 254.533 108.095C254.683 108.235 254.758 108.405 254.758 108.605C254.758 108.825 254.683 109.01 254.533 109.16C254.383 109.31 254.198 109.385 253.978 109.385ZM261.621 118.52C261.421 118.7 261.171 118.84 260.871 118.94C260.581 119.03 260.276 119.075 259.956 119.075C259.216 119.075 258.646 118.875 258.246 118.475C257.846 118.075 257.646 117.51 257.646 116.78V112.01H256.236V111.11H257.646V109.385H258.711V111.11H261.111V112.01H258.711V116.72C258.711 117.19 258.826 117.55 259.056 117.8C259.296 118.04 259.636 118.16 260.076 118.16C260.296 118.16 260.506 118.125 260.706 118.055C260.916 117.985 261.096 117.885 261.246 117.755L261.621 118.52ZM270.044 111.11L266.099 119.945C265.779 120.685 265.409 121.21 264.989 121.52C264.569 121.83 264.064 121.985 263.474 121.985C263.094 121.985 262.739 121.925 262.409 121.805C262.079 121.685 261.794 121.505 261.554 121.265L262.049 120.47C262.449 120.87 262.929 121.07 263.489 121.07C263.849 121.07 264.154 120.97 264.404 120.77C264.664 120.57 264.904 120.23 265.124 119.75L265.469 118.985L261.944 111.11H263.054L266.024 117.815L268.994 111.11H270.044Z" fill="#7B7979"/>
</svg>
