<svg width="33" height="35" viewBox="0 0 33 35" fill="none" xmlns="http://www.w3.org/2000/svg">
<g filter="url(#filter0_d_1_1083)">
<path d="M22.2721 1.25H22.2118C21.0755 1.25578 19.9585 1.55596 18.9618 2.1234C17.965 2.69085 17.12 3.50766 16.5029 4.50003C15.8857 3.50723 15.0401 2.69014 14.0428 2.12268C13.0455 1.55521 11.928 1.25528 10.7912 1.25H10.7309C8.94071 1.26733 7.22947 2.01879 5.96909 3.34105C4.70872 4.6633 4.00108 6.44949 4 8.31136C4.14928 11.3103 5.1486 14.1961 6.87206 16.6054C9.65486 20.2511 12.8927 23.4946 16.5 26.25C20.1073 23.4946 23.3451 20.2511 26.1279 16.6054C27.8514 14.1961 28.8507 11.3103 29 8.31136C28.9989 6.45001 28.2917 4.66429 27.0319 3.34211C25.7722 2.01994 24.0617 1.26813 22.2721 1.25ZM24.7721 15.5685C22.3701 18.7445 19.5917 21.5919 16.5029 24.043C13.4136 21.5915 10.6343 18.7442 8.23088 15.5685C6.7189 13.4598 5.83302 10.9372 5.68235 8.31136C5.68154 6.91138 6.21311 5.56787 7.1611 4.57393C8.10909 3.57999 9.39656 3.01628 10.7426 3.00578H10.8015C11.667 3.00616 12.5179 3.23845 13.2721 3.68026C14.0101 4.11232 14.6368 4.72362 15.0985 5.46204C15.2521 5.70597 15.4616 5.90629 15.7082 6.04493C15.9548 6.18358 16.2307 6.25617 16.511 6.25617C16.7914 6.25617 17.0673 6.18358 17.3139 6.04493C17.5605 5.90629 17.77 5.70597 17.9235 5.46204C18.3868 4.72498 19.0131 4.11402 19.75 3.68026C20.5041 3.23845 21.355 3.00616 22.2206 3.00578H22.2721C23.6181 3.01628 24.9056 3.57999 25.8536 4.57393C26.8016 5.56787 27.3332 6.91138 27.3324 8.31136C27.1689 10.9364 26.2798 13.4564 24.7721 15.5685Z" fill="#EC5353"/>
</g>
<defs>
<filter id="filter0_d_1_1083" x="0" y="1.25" width="33" height="33" filterUnits="userSpaceOnUse" color-interpolation-filters="sRGB">
<feFlood flood-opacity="0" result="BackgroundImageFix"/>
<feColorMatrix in="SourceAlpha" type="matrix" values="0 0 0 0 0 0 0 0 0 0 0 0 0 0 0 0 0 0 127 0" result="hardAlpha"/>
<feOffset dy="4"/>
<feGaussianBlur stdDeviation="2"/>
<feComposite in2="hardAlpha" operator="out"/>
<feColorMatrix type="matrix" values="0 0 0 0 0 0 0 0 0 0 0 0 0 0 0 0 0 0 0.1 0"/>
<feBlend mode="normal" in2="BackgroundImageFix" result="effect1_dropShadow_1_1083"/>
<feBlend mode="normal" in="SourceGraphic" in2="effect1_dropShadow_1_1083" result="shape"/>
</filter>
</defs>
</svg>
