<svg width="26" height="27" viewBox="0 0 26 27" fill="none" xmlns="http://www.w3.org/2000/svg">
<path fill-rule="evenodd" clip-rule="evenodd" d="M13.0005 25.8143C8.14621 25.8143 4 25.1156 4 22.3176C4 19.5195 8.1156 16.9353 13.0005 16.9353C17.8548 16.9353 22 19.4945 22 22.2925C22 25.0905 17.8802 25.8143 13.0005 25.8143Z" stroke="white" stroke-width="2" stroke-linecap="round" stroke-linejoin="round"/>
<path fill-rule="evenodd" clip-rule="evenodd" d="M12.9995 13.5439C14.5846 13.5385 16.1028 12.9117 17.2208 11.8012C18.3387 10.6907 18.9651 9.18715 18.9624 7.62067C18.9597 6.05419 18.328 4.55279 17.2062 3.44608C16.0844 2.33936 14.5641 1.71777 12.9789 1.71777C11.3938 1.71777 9.87344 2.33936 8.75162 3.44608C7.6298 4.55279 6.99816 6.05419 6.99544 7.62067C6.99271 9.18715 7.61911 10.6907 8.73707 11.8012C9.85503 12.9117 11.3732 13.5385 12.9583 13.5439H12.9995Z" stroke="white" stroke-width="2" stroke-linecap="round" stroke-linejoin="round"/>
</svg>
