<svg width="18" height="17" viewBox="0 0 18 17" fill="none" xmlns="http://www.w3.org/2000/svg">
<path d="M10.917 1.88086H14.309H10.917Z" fill="#60C370"/>
<path fill-rule="evenodd" clip-rule="evenodd" d="M1.70899 14.1192C1.84071 14.1194 1.96945 14.1582 2.07886 14.2307C2.18827 14.3031 2.27345 14.4061 2.32367 14.5264C2.3739 14.6467 2.38692 14.7791 2.36102 14.9067C2.33513 15.0344 2.2715 15.1515 2.17822 15.2434C2.08494 15.3354 1.96621 15.3979 1.83698 15.4231C1.70775 15.4483 1.57383 15.435 1.45221 15.385C1.33059 15.335 1.2267 15.2505 1.15369 15.1422C1.08067 15.0338 1.0418 14.9065 1.04199 14.7764C1.04212 14.6899 1.05949 14.6044 1.09308 14.5246C1.12667 14.4448 1.17586 14.3723 1.23779 14.3112C1.29973 14.2502 1.37319 14.2019 1.45404 14.1689C1.53489 14.1359 1.62152 14.1191 1.70899 14.1192Z" fill="#60C370"/>
<path fill-rule="evenodd" clip-rule="evenodd" d="M15.479 14.1192C15.6108 14.1192 15.7396 14.1578 15.8491 14.2302C15.9587 14.3025 16.044 14.4054 16.0944 14.5257C16.1447 14.646 16.1579 14.7784 16.1321 14.9061C16.1064 15.0338 16.0428 15.1511 15.9496 15.2431C15.8563 15.3351 15.7375 15.3977 15.6083 15.423C15.479 15.4483 15.3451 15.4351 15.2235 15.3851C15.1018 15.3352 14.9978 15.2507 14.9247 15.1423C14.8517 15.0339 14.8128 14.9066 14.813 14.7764C14.8133 14.602 14.8836 14.4348 15.0084 14.3116C15.1333 14.1884 15.3025 14.1192 15.479 14.1192Z" fill="#60C370"/>
<path d="M10.917 1.88086H14.309M1.70899 14.1192C1.84071 14.1194 1.96945 14.1582 2.07886 14.2307C2.18827 14.3031 2.27345 14.4061 2.32367 14.5264C2.3739 14.6467 2.38692 14.7791 2.36102 14.9067C2.33513 15.0344 2.2715 15.1515 2.17822 15.2434C2.08494 15.3354 1.96621 15.3979 1.83698 15.4231C1.70775 15.4483 1.57383 15.435 1.45221 15.385C1.33059 15.335 1.2267 15.2505 1.15369 15.1422C1.08067 15.0338 1.0418 14.9065 1.04199 14.7764C1.04212 14.6899 1.05949 14.6044 1.09308 14.5246C1.12667 14.4448 1.17586 14.3723 1.23779 14.3112C1.29973 14.2502 1.37319 14.2019 1.45404 14.1689C1.53489 14.1359 1.62152 14.1191 1.70899 14.1192ZM15.479 14.1192C15.6108 14.1192 15.7396 14.1578 15.8491 14.2302C15.9587 14.3025 16.044 14.4054 16.0944 14.5257C16.1447 14.646 16.1579 14.7784 16.1321 14.9061C16.1064 15.0338 16.0428 15.1511 15.9496 15.2431C15.8563 15.3351 15.7375 15.3977 15.6083 15.423C15.479 15.4483 15.3451 15.4351 15.2235 15.3851C15.1018 15.3352 14.9978 15.2507 14.9247 15.1423C14.8517 15.0339 14.8128 14.9066 14.813 14.7764C14.8133 14.602 14.8836 14.4348 15.0084 14.3116C15.1333 14.1884 15.3025 14.1192 15.479 14.1192Z" stroke="white" stroke-width="2" stroke-linecap="round" stroke-linejoin="round"/>
</svg>
